<svg width="128" height="153" viewBox="0 0 128 153" fill="none" xmlns="http://www.w3.org/2000/svg">
<path fill-rule="evenodd" clip-rule="evenodd" d="M85.1879 61.3509C88.7991 69.9575 90.6123 74.2879 94.8468 81.3751L108.123 62.5616C108.695 74.9394 108.2 88.733 108.157 100.897C114.306 109.354 120.661 116.076 128 123.51C127.914 82.2977 128 0.0959473 128 0.0959473L85.1879 61.3509ZM72.9812 78.7616C75.0899 84.9035 75.911 87.0011 77.4736 92.2013C64.4538 92.2691 63.614 92.2392 50.5264 92.2013C52.0816 86.5906 52.7651 84.6737 55.0396 78.6997C61.7256 88.2665 64.0037 91.5273 64.0037 91.5273C64.0037 91.5273 65.3538 89.6598 72.9812 78.7616Z" fill="black"/>
<mask id="mask0_2_593" style="mask-type:luminance" maskUnits="userSpaceOnUse" x="0" y="0" width="128" height="153">
<path d="M0 0H128V152.838H0V0Z" fill="white"/>
</mask>
<g mask="url(#mask0_2_593)">
<path fill-rule="evenodd" clip-rule="evenodd" d="M0 0V123.363C9.10724 114.325 14.6693 107.972 19.8754 101.431C19.8754 65.8263 19.8754 62.5616 19.8754 62.5616C19.8754 62.5616 29.0129 75.5401 33.157 81.3525C38.4309 71.9835 40.8448 66.8903 43.1097 61.637C8.63655 12.3044 0 0 0 0Z" fill="black"/>
</g>
<mask id="mask1_2_593" style="mask-type:luminance" maskUnits="userSpaceOnUse" x="0" y="0" width="128" height="153">
<path d="M0 0H128V152.838H0V0Z" fill="white"/>
</mask>
<g mask="url(#mask1_2_593)">
<path fill-rule="evenodd" clip-rule="evenodd" d="M64.0037 0C55.5819 27.9794 48.8449 53.5841 33.6823 80.4111C22.3645 100.452 12.8807 109.851 0 123.363C0 123.363 0.489478 123.913 19.8754 152.856C27.7757 141.457 37.3897 123.363 42.1043 110.725C84.9543 110.718 47.0865 110.725 85.8957 110.725C90.6311 123.363 101.209 141.457 108.123 152.856C127.162 124.195 128 123.51 128 123.51C116.485 110.07 105.604 100.429 94.316 80.4111C79.1889 53.5841 64.0037 0 64.0037 0ZM64.0037 41.1612C64.0037 41.1612 66.3254 58.664 69.0481 66.9411C71.7798 75.2217 77.4736 92.2014 77.4736 92.2014H50.5264C50.5264 92.2014 56.2407 75.2408 58.9446 66.9411C61.669 58.6095 64.0037 41.1612 64.0037 41.1612Z" fill="black" fill-opacity="0.5"/>
</g>
<path fill-rule="evenodd" clip-rule="evenodd" d="M53.7875 110.725H74.2257L64.0037 125.208L53.7875 110.725Z" fill="black"/>
</svg>
