<svg width="128" height="138" viewBox="0 0 128 138" fill="none" xmlns="http://www.w3.org/2000/svg">
<path d="M30.0783 120.313C37.0922 120.313 42.7781 114.627 42.7781 107.614C42.7781 100.6 37.0922 94.9138 30.0783 94.9138C23.0645 94.9138 17.3786 100.6 17.3786 107.614C17.3786 114.627 23.0645 120.313 30.0783 120.313Z" fill="black"/>
<path d="M97.9217 0C97.8103 0 97.6989 0 97.6989 0C81.1001 0 67.6205 13.4795 67.6205 30.0783C67.6205 36.2054 69.403 41.9983 72.8564 47.1227H64.1671V60.1567H97.6989H97.8103H97.9217C114.52 60.1567 128 46.6771 128 30.0783C128 13.4795 114.52 0 97.9217 0ZM98.4787 47.1227H97.4761C88.3412 46.8999 80.9887 39.3246 80.9887 30.0783C80.9887 20.7206 88.564 13.1453 97.9217 13.0339C107.279 13.1453 114.855 20.7206 114.855 30.0783C114.855 39.1018 107.836 46.4543 99.0357 47.0113C98.8129 47.0113 98.5901 47.1227 98.4787 47.1227Z" fill="black"/>
<path d="M97.8103 42.6667C104.824 42.6667 110.51 36.9808 110.51 29.9669C110.51 22.9531 104.824 17.2672 97.8103 17.2672C90.7964 17.2672 85.1105 22.9531 85.1105 29.9669C85.1105 36.9808 90.7964 42.6667 97.8103 42.6667Z" fill="black"/>
<path d="M30.0783 42.6667C37.0922 42.6667 42.7781 36.9808 42.7781 29.9669C42.7781 22.9531 37.0922 17.2672 30.0783 17.2672C23.0645 17.2672 17.3786 22.9531 17.3786 29.9669C17.3786 36.9808 23.0645 42.6667 30.0783 42.6667Z" fill="black"/>
<path d="M122.987 90.235H96.0278H64.2785V83.7737V77.4239H96.0278H122.987L127.889 83.7737L122.987 90.235Z" fill="black"/>
<path d="M30.0783 0.222803C13.4796 0.222803 0 13.7024 0 30.3011C0 46.8999 13.4796 60.3795 30.0783 60.3795H43.0009V47.3455H30.0783C20.7206 47.3455 13.0339 39.6588 13.0339 30.3011C13.0339 20.9434 20.7206 13.2567 30.0783 13.2567C39.436 13.2567 47.1227 20.9434 47.1227 30.3011V47.1227V93.2428V107.391C47.1227 116.748 39.436 124.435 30.0783 124.435C20.7206 124.435 13.0339 116.748 13.0339 107.391C13.0339 98.0331 20.7206 90.3464 30.0783 90.3464H43.0009V77.3124H30.0783C13.4796 77.3124 0 90.792 0 107.391C0 123.99 13.4796 137.469 30.0783 137.469C46.6771 137.469 60.1567 123.99 60.1567 107.391V30.3011C60.1567 13.7024 46.6771 0.222803 30.0783 0.222803Z" fill="black"/>
</svg>
