<svg width="128" height="171" viewBox="0 0 128 171" fill="none" xmlns="http://www.w3.org/2000/svg">
<path d="M120.036 91.8756C117.476 91.8756 115.769 93.0133 114.062 94.4356L112.924 96.1422L112.64 95.8578L114.062 93.5822V92.16H104.96V122.311H113.209V103.253C113.209 100.124 115.2 99.2711 116.622 98.9867C118.044 98.7022 119.751 99.5556 119.751 101.262V122.311H128V101.547C128 95.0044 125.156 91.8756 120.036 91.8756Z" />
<path d="M28.16 115.484H36.6933V122.027H19.9111V91.8756H28.16V115.484Z" />
<path d="M0 122.027H16.7822V116.053H8.24889V109.511H16.7822V103.822H8.24889V98.1333H16.7822V91.8756H0V122.027Z" />
<path d="M39.5378 122.027H56.6044V116.053H47.7867V109.511H56.6044V103.822H47.7867V98.1333H56.6044V91.8756H39.5378V122.027Z" />
<path d="M85.0489 122.027H102.116V116.053H93.2978V109.511H102.116V103.822H93.2978V98.1333H102.116V91.8756H85.0489V122.027Z" />
<path d="M74.24 91.8756L71.1111 110.933L70.8267 114.347V114.631H70.5422V114.347L70.2578 110.933L67.1289 91.8756H58.88L65.7067 122.027H75.9467L82.7733 91.8756H74.24Z" />
<path d="M107.236 0H0V42.6667H56.6044C69.4044 24.1778 86.7556 9.38667 107.236 0Z" />
<path d="M42.6667 170.382H85.3333V127.716H42.6667V170.382Z" />
<path d="M128 42.6667V0C87.3244 11.0933 55.4667 43.8044 45.7956 85.3333H89.3156C95.8578 66.2756 110.08 50.9156 128 42.6667Z" />
</svg>
