<svg width="128" height="104" viewBox="0 0 128 104" fill="none" xmlns="http://www.w3.org/2000/svg">
<path d="M127.999 5.1433V72.5093C127.999 72.5093 128.23 82.9417 119.547 92.8531C110.864 102.761 99.4637 103.959 96.4415 103.959H83.4522L85.0972 29.0191C85.0972 29.0191 85.3131 17.753 94.7816 8.34039C103.803 -0.629336 115.319 0.0108271 115.319 0.0108271H123.023C123.023 0.00710526 127.999 -0.45813 127.999 5.1433Z" />
<path d="M42.0947 58.3179L42.4744 103.959H4.51864C4.51864 103.959 0.000281062 103.855 0.000281062 100.349V86.66C0.000281062 86.66 -0.167204 76.5811 7.67479 68.1176C15.5168 59.654 24.8699 58.5412 27.7804 58.5412C30.6946 58.5412 42.0947 58.3179 42.0947 58.3179Z" />
<path d="M85.2872 103.959H40.3641L42.0911 58.3174C42.0911 58.3174 41.5588 47.4495 51.6563 37.7912C58.5864 31.1663 65.0178 29.4915 70.6342 29.4915H85.0862L85.2872 103.959Z" />
<path opacity="0.61" d="M83.4154 103.962H85.2875L85.0902 29.4988L83.4154 103.962Z" />
<path opacity="0.59" d="M42.0949 57.7546L40.3196 103.958H42.4299L42.0949 57.7546Z" />
</svg>
