<svg viewBox="0 0 128 128" fill="none" xmlns="http://www.w3.org/2000/svg">
<path fill-rule="evenodd" clip-rule="evenodd" d="M73.2511 99.8734V29.2523C73.2511 23.6278 71.2493 21.753 65.752 21.753H49.2474V29.6247H50.2504C54.0083 29.6247 54.7532 30.5008 54.7532 34.9995V99.8734H73.2511ZM81.3764 99.8734H99.7474V44.8772C99.7474 39.3797 97.6314 37.3779 92.2526 37.3779H81.3764V99.8734ZM46.6236 99.8734V37.3779H35.7601C30.377 37.3779 28.2484 39.3797 28.2484 44.8772V99.8734H46.6236ZM117.12 63.9979C117.12 95.125 94.7537 117.754 64.0042 117.754C33.2548 117.754 10.8804 95.125 10.8804 63.9979C10.8804 32.875 33.2548 10.2544 64.0042 10.2544C94.7537 10.2544 117.12 33.002 117.12 63.9979ZM128 63.9979C128 27.3775 100.632 0 64.0042 0C27.3808 0 0 27.3775 0 63.9979C0 100.627 27.3808 128 64.0042 128C100.632 128 128 100.627 128 63.9979Z" />
</svg>
