<?xml version="1.0" encoding="UTF-8" standalone="no"?>
<!DOCTYPE svg PUBLIC "-//W3C//DTD SVG 1.1//EN" "http://www.w3.org/Graphics/SVG/1.1/DTD/svg11.dtd">
<svg width="100%" height="100%" viewBox="0 0 71 24" version="1.1" xmlns="http://www.w3.org/2000/svg" fill="currentColor">
    <g transform="matrix(1,0,0,1,286,-490)">
        <path d="M-215.2,490C-235.2,495.5 -247.9,499.5 -257,509.3C-252.6,511.1 -248,512.8 -244,514C-239.3,504.7 -230.8,497.2 -215.1,490.4L-215.2,490Z"/>
    </g>
    <g transform="matrix(1,0,0,1,286,-490)">
        <path d="M-241,492.4C-243.4,492.2 -246,491.7 -248.1,491.1C-252.5,490.9 -275.7,490.3 -286,494.7C-283.2,496.4 -280.3,498.1 -276.7,500C-266.4,495.2 -253.2,493.5 -241,492.8L-241,492.4Z"/>
    </g>
    <g transform="matrix(1,0,0,1,286,-490)">
        <path d="M-226.1,492.3C-229.3,492.7 -234.4,492.9 -237.5,492.9C-246.7,493.9 -262.9,496.5 -272.1,502.2C-268.7,503.9 -265.3,505.6 -261.7,507.1C-252.1,498.8 -239.2,495.1 -226.1,492.6L-226.1,492.3Z"/>
    </g>
</svg>
