<svg width="128" height="27" viewBox="0 0 128 27" fill="none" xmlns="http://www.w3.org/2000/svg">
<g clip-path="url(#clip0_33_897)">
<path d="M0 26.0893L3.05988 14.1521H4.65843L3.3446 19.2707H13.3595L14.6734 14.147H16.2719L13.2069 26.0807H11.6135L13.1126 20.2308H3.09933L1.59855 26.0807L0 26.0893Z" />
<path d="M14.9458 26.0808L24.6589 14.1384H26.4684L29.8988 26.0722H28.2539L27.2626 22.3265H19.5529L16.5925 26.0791L14.9458 26.0808ZM20.3384 21.3699H26.9676L25.2524 15.1054L20.3384 21.3699Z" />
<path d="M34.6471 20.6471L33.2577 26.0686H31.6592L34.7191 14.1313H41.3483C45.0616 14.1313 46.8694 15.057 46.3052 17.2611C45.9175 18.77 44.9141 19.5666 42.8062 20.186C44.6809 20.666 44.4167 22.1578 44.1406 23.4189C43.7478 25.2255 43.8318 25.7228 44.1955 25.955L44.1646 26.0703H42.3963C41.9469 25.2582 42.6844 23.0198 42.6587 22.113C42.6141 20.8191 41.2694 20.654 39.6709 20.6557L34.6471 20.6471ZM39.8784 19.6819C42.2522 19.6819 44.2641 18.9834 44.6929 17.3093C45.1525 15.5182 43.2881 15.088 41.1493 15.0897H36.0706L34.8941 19.6819H39.8784Z" />
<path d="M46.8567 26.0618L49.9114 14.1245H55.695C57.5817 14.1245 59.3175 14.2054 60.6845 15.0175C62.6227 16.16 62.6158 18.481 62.2076 20.0725C61.7558 21.9386 60.6087 23.5604 59.0019 24.6045C57.1375 25.8329 54.8683 26.0652 52.6352 26.0669L46.8567 26.0618ZM48.7005 25.1H52.534C53.9678 25.1 55.2302 25.0329 56.6504 24.5511C59.115 23.7372 60.2025 21.6984 60.6176 20.0777C61.0652 18.3364 61.0121 16.4318 58.8681 15.5371C57.9539 15.1568 56.5149 15.0914 55.1033 15.0914H51.2682L48.7005 25.1Z" />
<path d="M76.2052 24.4533H76.2533L82.5991 14.106H84.246L76.7421 26.0466H74.9755L73.7543 15.503H73.7062L67.0771 26.05H65.3121L64 14.1094H65.5985L66.5916 24.4516H66.6379L73.2157 14.1094H75.0029L76.2052 24.4533Z" />
<path d="M79.3949 26.0429L89.1076 14.1091H90.9175L94.3482 26.0429H92.703L91.7116 22.2972H83.9933L81.0346 26.0446L79.3949 26.0429ZM84.7857 21.3354H91.4214L89.7068 15.0623L84.7857 21.3354Z" />
<path d="M99.0818 20.6094L97.6909 26.0309H96.0921L99.1543 14.0955H105.782C109.496 14.0955 111.305 15.0193 110.738 17.2251C110.351 18.734 109.349 19.5306 107.24 20.1501C109.116 20.6301 108.85 22.1218 108.573 23.3812C108.181 25.1878 108.265 25.6868 108.629 25.9174L108.599 26.0344H106.836C106.387 25.2222 107.125 22.9838 107.1 22.0771C107.054 20.7833 105.711 20.6181 104.113 20.6198L99.0818 20.6094ZM104.312 19.6459C106.685 19.6459 108.697 18.9474 109.128 17.2716C109.586 15.4822 107.721 15.052 105.582 15.0537H100.509L99.3337 19.6459H104.312Z" />
<path d="M110.971 25.9929L113.975 14.0557H125.029L124.787 15.0175H115.302L114.217 19.3189H122.779L122.537 20.2807H113.975L112.783 25.0225H122.498L122.26 25.9809L110.971 25.9929Z" />
<path d="M0.0445859 12.2352L8.49357 0.24292H13.4041L15.7591 12.2008H10.8725L10.6564 10.5801H5.92937L4.76991 12.2387L0.0445859 12.2352ZM9.9703 4.04535L7.37698 8.19535L10.4506 8.17643L9.9703 4.04535Z" />
<path d="M18.3969 0.275391H23.3126L21.455 7.26085C21.1497 8.39989 21.1806 9.37889 23.2182 9.36511C25.0037 9.35476 25.7601 8.48419 26.098 7.2316L27.9607 0.282272H32.9175L31.1647 6.82039C30.1681 10.5282 27.4856 12.1644 22.4652 12.1954C17.7828 12.2246 15.5445 10.8775 16.613 6.89609L18.3969 0.275391Z" />
<path d="M31.4331 12.1425L34.5685 0.236251L41.87 0.189796C45.3003 0.167428 47.8731 0.778226 47.2574 3.14399C46.9349 4.36731 45.6812 5.26716 44.5782 5.75236C46.146 6.07238 46.7463 7.17526 46.4067 8.46393C45.7051 11.1274 42.8511 12.0771 38.8822 12.0943L31.4331 12.1425ZM37.7518 7.13224L37.1738 9.33287L39.3589 9.31738C40.5904 9.31738 41.5767 9.10573 41.8116 8.21274C42.0861 7.18042 40.9369 7.11331 39.3435 7.12191L37.7518 7.13224ZM38.8461 2.98226L38.323 4.96606L40.4035 4.95402C41.4 4.95402 42.213 4.59442 42.3965 3.90103C42.6401 2.97537 41.6676 2.96505 40.6076 2.97193L38.8461 2.98226Z" />
<path d="M74.0871 4.70093C74.2586 3.49654 73.4731 2.80831 71.9466 2.82551C70.2314 2.83584 68.9039 3.98173 68.3156 6.21329C67.8867 7.83406 67.9399 9.35672 70.4149 9.33952C71.9826 9.32924 72.9483 8.47931 73.4267 7.36607L78.1092 7.33681C76.888 10.3237 73.6704 12.1406 69.7511 12.1647C64.8423 12.1956 62.4907 9.87116 63.4804 6.11522C64.4701 2.35924 68.3395 0.0278931 72.4851 0.00036414C77.0235 -0.0288854 79.0989 1.70543 78.7078 4.67167L74.0871 4.70093Z" />
<path d="M78.0414 12.2165L81.2299 0.272437L86.1024 0.239746L85.0344 4.24176H89.5951L90.6631 0.274158H95.5312L92.2929 12.2165H87.49L88.7904 7.42823H84.1906L82.9318 12.2165H78.0414Z" />
<path d="M110.855 6.15298C109.826 10.0862 105.832 12.3229 101.437 12.347C96.7753 12.3882 94.2545 10.1515 95.2923 6.22007C96.247 2.59314 100.026 0.213613 104.647 0.182642C109.945 0.149952 111.66 3.09727 110.855 6.15298ZM100.151 6.22179C99.7617 7.69803 99.853 9.54078 102.184 9.52529C104.285 9.51151 105.485 8.08688 105.988 6.18394C106.403 4.61136 106.019 2.94758 103.861 3.00952C101.654 3.02328 100.535 4.76105 100.151 6.22179Z" />
<path d="M121.86 6.64181L123.339 0.299839H128.001L124.941 12.1441H120.459L116.752 5.63185L115.26 12.1441H110.535L113.666 0.294678H118.143L121.86 6.64181Z" />
<path d="M49.4483 0.28418H54.364L52.5081 7.26963C52.2012 8.40865 52.232 9.38593 54.2696 9.37386C56.0551 9.3618 56.8132 8.49295 57.1495 7.24039L59.0069 0.291062H63.9639L62.2092 6.82918C61.2144 10.537 58.5302 12.1732 53.5115 12.2042C48.8274 12.2335 46.5891 10.8862 47.6576 6.90488L49.4483 0.28418Z" />
</g>
<defs>
<clipPath id="clip0_33_897">
<rect width="128" height="26.0892" fill="white"/>
</clipPath>
</defs>
</svg>
