<svg width="128" height="136" viewBox="0 0 128 136" fill="none" xmlns="http://www.w3.org/2000/svg">
<path d="M83.3238 1.06307C83.7953 6.27898 84.2477 11.4966 84.6914 16.7149C85.0722 21.073 85.0722 21.073 85.4607 25.5191C85.6064 29.0592 85.6065 29.0592 85.7551 32.6707C81.8925 36.5334 77.8608 35.6077 72.5346 35.7099C70.582 35.7726 68.6294 35.8353 66.6177 35.8999C64.9095 35.6366 63.2014 35.3734 61.4415 35.1021C59.8368 32.6951 58.2321 30.288 56.5788 27.808C53.3694 27.808 50.16 27.808 46.8534 27.808C46.8534 31.0174 46.8534 34.2268 46.8534 37.5335C50.8651 39.1382 54.8769 40.7429 59.0102 42.3962C58.2504 50.602 58.2504 50.602 56.5788 59.4157C49.2847 64.2784 49.2847 64.2784 41.9907 64.2784C40.3708 71.6399 39.2815 78.6098 39.5593 86.1606C44.1215 93.9656 44.1215 93.9656 51.7161 98.3174C60.2114 99.7044 64.4727 99.2814 72.0787 95.2782C77.1326 90.8033 77.1326 90.8033 76.0297 81.2979C72.0179 81.2979 68.0062 81.2979 63.8729 81.2979C63.0705 85.3097 62.2682 89.3214 61.4415 93.4547C55.5151 91.9351 55.5151 91.9351 49.2847 88.592C46.5495 81.9058 46.5495 81.9058 46.8534 74.0038C54.495 62.2637 60.3105 57.7807 73.907 54.6764C75.6606 54.3348 77.4141 53.9932 79.2209 53.6412C81.0214 53.2432 82.822 52.8451 84.6772 52.435C89.078 51.4697 93.4938 50.5729 97.9119 49.6903C96.7335 48.6622 95.555 47.6342 94.3409 46.5751C90.6179 42.3962 90.6178 42.3962 89.4022 33.8864C90.6178 25.3767 90.6178 25.3767 95.6325 20.5139C104.925 17.3506 110.4 17.7306 119.794 20.5139C126.029 27.3527 126.998 31.8429 128 41.0285C126.481 55.4544 120.75 64.4272 110.069 74.0038C110.871 74.8062 111.673 75.6085 112.5 76.4352C114.715 90.8952 112.543 101.499 104.114 113.418C92.1429 127.229 78.1751 133.804 59.8839 135.32C38.0339 136.036 23.8126 130.091 7.95164 115.337C-0.411591 102.792 -0.802871 88.7646 0.657558 74.0038C3.89045 65.4367 6.6847 60.5771 13.4222 54.401C14.8263 52.8465 16.2304 51.2919 17.6771 49.6903C17.1831 43.9567 17.1831 43.9567 15.2457 37.5335C14.0432 27.1539 13.9705 20.2551 19.3486 11.0924C25.5696 5.37584 28.8779 2.89643 37.1279 1.06307C42.6722 1.53537 48.1293 2.30977 53.6346 3.11453C65.0119 3.91858 71.9009 -2.44416 83.3238 1.06307Z" fill="currentColor"/>
</svg>
