<svg width="128" height="178" viewBox="0 0 128 178" fill="none" xmlns="http://www.w3.org/2000/svg">
<path fill-rule="evenodd" clip-rule="evenodd" d="M85.5262 166.389C90.7242 166.389 105.206 158.67 99.8355 155.129C96.4404 152.905 92.4569 149.926 85.0998 144.296C81.8018 141.775 80.3553 142.461 79.3405 142.461C76.307 142.461 81.2297 137.554 79.6104 133.603C77.813 129.296 76.7928 122.689 75.2868 121.189C73.7647 119.667 74.3854 111.689 77.5647 108.51C81.0408 105.039 86.0228 94.9398 88.7703 91.075C92.0359 86.4546 94.2759 76.3124 92.9858 75.0062C91.6742 73.7107 85.7368 61.3932 83.1513 58.7969C81.4672 57.1237 78.7252 52.9998 75.9616 49.6533L75.3138 48.7303L72.5178 50.3172C69.7272 51.9311 66.2781 55.2291 66.2781 55.2291C66.2781 55.2291 63.8761 56.0279 58.3165 54.9106C55.3208 54.3169 54.2413 52.2064 54.2413 49.8098C54.2413 47.4186 52.676 48.0232 52.676 48.0232C52.676 48.0232 24.6188 49.3834 22.5569 50.5709C20.5166 51.7584 11.5456 64.0489 11.5456 64.0489C11.5456 64.0489 6.77949 110.755 10.4607 114.452C14.8598 118.835 37.7892 154.962 42.0803 159.275C46.3445 165.115 80.3283 166.389 85.5262 166.389ZM31.3713 62.9963C28.4781 63.5145 23.7984 62.6941 21.6015 66.6991L17.4183 84.8569C17.4183 84.8569 17.8663 103.09 18.2712 106.712C18.6598 110.312 23.3666 122.069 25.9898 124.713C28.3108 127.034 32.8287 134.715 36.9201 138.764C38.0267 139.848 40.2721 140.372 41.2167 141.646C42.917 143.945 41.8536 142.364 38.8039 137.851C27.5929 121.243 25.1748 106.912 24.6296 104.461C23.4313 99.1176 24.3111 86.568 24.6296 81.5374C24.7915 78.8763 26.6376 72.9011 28.3972 71.5678C29.2176 70.9309 36.9093 70.0781 38.4585 69.6409C40.8604 68.9392 44.2664 68.9823 46.4686 68.5289C53.5126 67.077 66.467 70.6826 67.3469 71.0982C77.8939 75.9777 73.7971 77.678 73.959 78.2502C74.1209 78.8439 59.2773 108.747 59.3421 110.15C59.4123 111.673 59.952 126.63 61.35 130.716C61.7657 131.925 66.4508 143.238 67.2929 145.289C71.0065 154.277 59.3097 143.794 58.554 143.384C57.7983 142.958 42.3664 116.45 40.1371 110.82C38.6312 107.036 39.1818 101.331 39.4786 100.122C39.8835 98.4591 38.6852 85.6558 41.0656 83.9069C42.6849 82.7194 49.9016 81.9908 53.3885 83.5183C56.5569 84.9109 58.2626 88.468 57.9333 89.3046C57.6796 90.0117 52.6706 106.178 51.8879 104.823C51.6396 104.38 51.618 99.2633 50.9595 98.7559C50.2902 98.2324 46.609 97.4659 46.1556 98.0543C45.7022 98.6588 44.8169 104.083 45.2811 105.946C47.5104 114.927 52.7083 112.131 53.6907 110.453C55.1481 107.964 62.2083 88.1063 62.0787 86.8217C61.7819 83.9015 59.6228 78.8655 55.0401 77.3218C52.2927 76.4042 40.3477 76.9169 37.0605 78.6334C32.0136 81.2837 32.3105 104.24 33.2713 107.581C34.2321 110.901 50.1337 137.598 50.8785 139.649C52.3521 143.648 61.9762 153.159 63.4821 154.055C64.1082 154.433 77.2462 159.534 78.9465 156.975C79.686 155.863 79.3189 152.765 76.0371 150.622C72.9065 148.571 65.4253 126.748 65.4469 125.037C65.4793 123.418 63.5037 111.273 64.8153 108.747C67.2983 103.922 85.1862 77.1166 83.2268 74.9576C80.6036 72.059 72.5772 58.527 68.815 63.6225C65.4199 68.2375 49.3402 63.4875 45.3351 60.5566C45.0383 60.3299 35.5545 62.2245 31.3713 62.9963ZM109.686 0C111.279 0.188919 118.323 2.66106 118.323 2.66106C118.323 2.66106 125.124 12.6036 126.856 14.7411C128.605 16.8731 127.828 18.4223 127.828 18.4223L124.492 30.6103C123.267 29.6225 114.264 30.4321 112.126 30.6372C109.978 30.8208 114.069 28.1057 115.041 27.1395C116.012 26.168 119.893 23.4529 119.391 21.9038C118.927 20.3439 113.071 9.01953 113.071 9.01953C113.071 9.01953 102.847 8.92237 97.9949 9.50532C93.1424 10.0829 82.9462 20.2305 82.9462 20.2305L79.2325 34.9014C79.2325 34.9014 80.7331 37.6002 82.8706 39.3491C85.0027 41.0979 91.21 40.5096 93.531 40.3207C95.852 40.1318 94.8966 42.8414 92.9534 44.5848C91.0103 46.3283 84.0311 46.3283 84.0311 46.3283L86.9296 47.2999C90.1466 50.2146 96.0301 65.123 99.5008 68.6045C102.966 72.059 99.3929 89.5475 94.4162 94.5242C89.4234 99.4846 87.0484 110.204 84.0149 113.238C80.9652 116.277 77.8184 115.089 80.9652 118.225C84.1282 121.356 82.6547 125.14 83.1513 127.909C83.4751 129.685 83.9771 132.923 85.5154 134.44C87.0106 135.951 110.01 151.891 119.251 152.619C120.935 152.76 120.957 160.872 111.484 170.842C111.484 170.842 109.794 176.596 93.9952 177.103C76.7604 177.643 59.8063 174.766 55.9038 174.766C52.0175 174.766 40.6877 168.327 40.6877 168.327C38.534 168.327 2.55849 118.274 2.55849 114.819C2.55849 111.349 0 101.989 0 98.5184C0 95.0639 4.01047 63.3634 3.36815 59.5256C2.86077 56.5137 4.43149 55.812 7.9022 52.3413C11.3621 48.8868 17.618 43.0141 19.9876 40.6337C21.0564 39.5704 29.3526 39.8025 39.4031 37.6542L40.963 36.9903L38.9659 36.0187C38.9659 36.0187 35.7272 31.9543 30.5023 32.1486C25.2719 32.3375 23.5177 32.7315 26.2381 31.571C28.9531 30.4105 33.8273 26.7293 33.8273 26.7293L45.2272 31.7653H53.8473L64.6426 22.8754L89.1373 2.97952L109.686 0Z" fill="black"/>
</svg>
