<svg width="128" height="109" viewBox="0 0 128 109" fill="none" xmlns="http://www.w3.org/2000/svg">
<path d="M117.123 45.091C113.673 41.6302 109.574 38.8846 105.06 37.0116C100.546 35.1385 95.7074 34.175 90.8205 34.1762C85.9317 34.1747 81.0907 35.1381 76.5749 37.0111C72.0591 38.884 67.9574 41.6298 64.5048 45.091L56.0183 53.488L63.9552 61.4249L72.3906 52.9768C76.0305 49.3403 80.6667 46.8644 85.7134 45.8622C90.7601 44.86 95.9906 45.3763 100.744 47.346C105.497 49.3157 109.56 52.6503 112.418 56.9284C115.277 61.2065 116.803 66.2359 116.804 71.3812C116.804 78.2815 114.065 84.8996 109.188 89.7813C104.311 94.663 97.6953 97.4089 90.7949 97.4157C85.3782 97.4104 80.0994 95.7074 75.7008 92.5462L75.458 92.789C75.458 92.789 69.7066 98.6299 67.7895 100.611C74.3343 105.802 82.4411 108.631 90.7949 108.637C100.664 108.627 110.125 104.701 117.101 97.7199C124.076 90.7393 127.997 81.2754 128 71.4067C128.011 66.5199 127.056 61.679 125.19 57.1627C123.323 52.6464 120.582 48.5438 117.123 45.091Z" fill="currentColor"/>
<path d="M55.6349 89.8361C53.2253 92.2659 50.3584 94.1946 47.1996 95.5107C44.0407 96.8269 40.6526 97.5045 37.2305 97.5045C33.8062 97.5012 30.4162 96.8224 27.2547 95.5069C24.0931 94.1915 21.2222 92.2652 18.8062 89.8386C16.3902 87.4119 14.4766 84.5324 13.1751 81.3651C11.8737 78.1978 11.2098 74.8048 11.2216 71.3806C11.2317 64.4892 13.9764 57.8836 18.8529 53.0142C23.7295 48.1449 30.3392 45.4099 37.2305 45.4099C42.62 45.4128 47.8742 47.0972 52.2608 50.2283L52.478 49.9982L60.2871 42.1892C53.7367 37.0093 45.6327 34.1864 37.2816 34.1756C32.3908 34.1706 27.5468 35.1289 23.0263 36.9959C18.5058 38.8629 14.3973 41.602 10.9354 45.0568C7.4735 48.5116 4.72595 52.6144 2.84964 57.1311C0.973342 61.6477 0.00503261 66.4897 0 71.3806C-5.81889e-07 81.2491 3.91939 90.7136 10.8963 97.693C17.8732 104.672 27.3364 108.595 37.205 108.598C42.0875 108.612 46.9248 107.662 51.4402 105.805C55.9557 103.947 60.0607 101.218 63.5207 97.7729C64.0447 97.2617 71.841 89.3376 71.841 89.3376L63.9041 81.4007L55.6349 89.8361Z" fill="currentColor"/>
<path d="M35.7224 29.2042C37.4029 23.9763 40.7018 19.418 45.1427 16.1879C49.5836 12.9577 54.9364 11.223 60.4277 11.2344C63.8479 11.234 67.2343 11.9115 70.3911 13.2277C73.5479 14.544 76.4125 16.4728 78.8193 18.9029C81.8029 21.8942 83.9985 25.5784 85.2097 29.626C86.7566 29.4174 88.3141 29.2979 89.8747 29.2681H91.6385C93.3789 29.3022 95.1159 29.4388 96.8403 29.6771C95.1344 21.2898 90.5783 13.7514 83.9455 8.34175C77.3128 2.93213 69.0123 -0.0152391 60.4533 5.92558e-05C51.5955 -0.0122662 43.0263 3.148 36.2975 8.90848C29.5687 14.669 25.1254 22.6487 23.7723 31.4025C27.6282 30.0947 31.6536 29.3542 35.7224 29.2042Z" fill="currentColor"/>
</svg>
