<svg width="128" height="49" viewBox="0 0 128 49" fill="none" xmlns="http://www.w3.org/2000/svg">
<path d="M92.1048 16.3397C91.2856 16.2074 90.5094 16.6735 90.2012 17.4147C89.9664 17.2441 88.7189 16.3309 86.9242 16.3309C85.5611 16.3309 84.3163 16.8324 83.2537 17.5558C81.6556 18.6514 80.382 20.2602 79.449 22.0513C78.5248 23.8454 77.9397 25.8291 77.9338 27.7834C77.9338 28.0953 77.9542 28.407 77.9876 28.7173C77.9876 28.7173 77.2279 30.5922 75.2163 30.5922C74.2368 30.5922 72.3883 29.9349 72.282 27.6394C72.2762 27.4953 72.317 27.0938 72.3213 27.0423L73.5891 18.3632C73.7318 17.3882 73.0636 16.4809 72.1016 16.3382C71.1366 16.1941 70.2385 16.8691 70.0973 17.8411L68.6039 28.0658C68.39 29.5157 67.1542 30.6201 65.7016 30.5893C63.4732 30.5466 62.6756 28.432 62.7673 27.6364C62.7847 27.4923 62.7789 27.3423 62.7994 27.1923C62.7994 27.1835 65.8792 6.3327 65.8792 6.3327C66.0218 5.35773 65.3596 4.45041 64.3946 4.30482C63.4296 4.16071 62.5315 4.8298 62.3874 5.80477L59.1023 28.032C58.8883 29.4849 57.6526 30.5613 56.2 30.5584C55.2699 30.5584 53.3195 29.8657 53.2657 27.6056C53.2657 27.4908 53.2773 27.3747 53.2918 27.257L56.3776 6.33123C56.5202 5.35626 55.855 4.44894 54.893 4.30335C53.928 4.15924 53.0299 4.83127 52.8858 5.8033L49.6065 28.0306C49.3925 29.4834 48.1568 30.5687 46.7042 30.5569C44.8804 30.5422 43.7582 29.0173 43.7699 27.6041C43.7699 27.4776 43.7815 27.3467 43.7989 27.2144L45.0828 18.3588C45.2254 17.3838 44.5573 16.4765 43.5923 16.3368C42.6273 16.1927 41.7292 16.8677 41.591 17.8427L40.1121 28.0364C39.8982 29.4834 38.5649 30.6113 37.2098 30.5599C34.8548 30.4702 34.21 28.432 34.2755 27.607C34.2872 27.4629 34.2872 27.3129 34.3075 27.1629L35.5782 18.3617C35.7179 17.3868 35.0528 16.4794 34.0878 16.3397C33.1227 16.1985 32.2247 16.8706 32.0864 17.8455L30.8157 26.6438C30.7677 26.9644 30.7444 27.2894 30.7444 27.61C30.7444 29.3834 31.4576 31.0157 32.6192 32.198C33.7748 33.3833 35.4079 34.1333 37.2113 34.1303C39.0744 34.1303 40.77 33.326 41.9578 32.023C42.0116 32.0804 43.6679 34.1303 46.7042 34.1303C48.5672 34.1303 50.2629 33.326 51.4507 32.023C51.5045 32.0804 53.2002 34.1303 56.1971 34.1303C58.0558 34.1303 59.7471 33.3289 60.9348 32.0363C60.9915 32.0995 62.6785 34.1612 65.6958 34.1612C67.5647 34.1612 69.2662 33.3509 70.4539 32.0422C70.5106 32.1024 72.1889 34.1612 75.2091 34.1612C76.8932 34.1612 78.4345 33.495 79.596 32.4083C80.021 32.8554 81.3936 34.1583 83.6322 34.1583C85.871 34.1583 87.594 32.7216 87.7367 32.6127L87.1751 36.1538C81.5522 35.4759 78.4898 37.6214 77.3371 38.6949C74.2208 41.6095 74.7433 45.2373 75.998 46.8093C76.8117 47.8299 77.6369 48.4239 78.8639 48.7592C80.4562 49.1945 82.3629 49.0166 84.1416 47.9725C84.1766 47.9519 88.1632 45.7402 89.9073 40.3566C90.2578 40.4639 90.5179 40.561 90.6581 40.6139C91.5694 40.9683 92.5879 40.5066 92.9384 39.5875C93.2898 38.6669 92.8328 37.6376 91.9224 37.2832C91.658 37.1817 91.207 37.0259 90.6361 36.8567L93.5592 18.3838C93.7129 17.4118 93.0567 16.4956 92.0947 16.3397L92.1065 16.3368L92.1048 16.3397ZM84.3381 43.1595C82.3601 45.3623 81.1665 45.4138 80.545 45.4065C80.1506 45.4065 79.3631 45.3402 78.8522 44.6918C78.2875 43.9741 78.6587 42.8815 78.8697 42.4536C79.0779 42.0242 79.3835 41.6286 79.6688 41.3786C80.4257 40.7095 81.2816 40.2713 82.2116 39.986C83.1388 39.7037 84.1387 39.5875 85.1253 39.5875C85.5619 39.5875 85.9927 39.614 86.4124 39.6566C85.8694 41.1507 85.0932 42.3153 84.3366 43.158H84.3396L84.3381 43.1595ZM88.5914 25.388C88.0948 26.8011 87.2435 28.2026 86.2925 29.1629C85.8212 29.6467 84.7545 30.5878 83.641 30.5878C82.7225 30.5878 82.0253 29.9452 81.7997 29.432C81.5945 28.9673 81.4693 28.4658 81.4693 27.782C81.4693 26.9864 81.644 26.0409 81.9772 25.0997C82.4736 23.6865 83.3251 22.2851 84.2755 21.3248C84.7469 20.8411 85.8432 19.8999 86.9276 19.8999C87.9495 19.8999 88.5602 20.647 88.7688 21.0558C88.9765 21.4572 89.099 22.0219 89.099 22.7057C89.099 23.5013 88.9242 24.4468 88.5914 25.388Z" fill="currentColor"/>
<path d="M72.7273 14.4387C74.0529 14.4387 75.1274 13.353 75.1274 12.0138C75.1274 10.6745 74.0529 9.58883 72.7273 9.58883C71.4017 9.58883 70.3271 10.6745 70.3271 12.0138C70.3271 13.353 71.4017 14.4387 72.7273 14.4387Z" fill="currentColor"/>
<path d="M28.2793 24.2848C27.4657 23.7451 26.3697 23.973 25.8355 24.798C24.7191 26.5171 21.4092 30.5596 15.5886 30.5596C12.2525 30.5596 9.25271 29.2008 7.06364 26.9921C4.88036 24.7833 3.53546 21.7496 3.53255 18.379C3.53255 15.0086 4.87745 11.9778 7.06364 9.7661C9.24984 7.56032 12.5465 6.03831 16.0166 6.21919C15.6512 10.0147 16.4357 12.6146 17.5754 14.5351C19.5957 17.9291 23.5954 19.4085 26.5894 17.2394C29.0755 15.4395 29.1671 12.1734 28.1075 9.7161C27.3375 7.9309 25.5677 6.35448 24.8282 5.75744C22.6129 3.96926 20.1677 3.30898 20.1677 3.30898C20.2929 2.89135 20.3991 2.58254 20.4588 2.42372C20.8096 1.50316 20.3525 0.473783 19.4428 0.119383C18.5317 -0.235017 17.5128 0.226732 17.162 1.14582C17.0456 1.45169 16.8651 1.9855 16.6715 2.67959C7.24994 2.04726 0 9.61611 0 18.382C0 27.1479 6.97776 34.1271 15.5842 34.1271C23.1398 34.1271 27.3725 28.9229 28.7844 26.7538C29.3186 25.9318 29.0929 24.8245 28.2764 24.2848H28.2793ZM19.4996 6.84123C19.6029 6.87652 21.9944 7.61914 23.9462 9.79997C25.9926 12.0896 25.0481 13.9866 24.4993 14.3674C23.3946 15.1322 21.859 14.2895 21.2171 13.5396C20.5752 12.7896 20.1327 11.9073 19.8388 10.9705C19.2711 9.15733 19.4676 7.23092 19.4996 6.84123Z" fill="currentColor"/>
<path d="M126.123 18.2201C124.966 17.0348 123.334 16.2878 121.53 16.2878C119.958 16.2878 118.93 16.9187 118.819 16.9745C118.548 16.6261 118.153 16.3745 117.688 16.3055C116.722 16.1614 115.825 16.8363 115.686 17.8112L114.207 28.0051C113.994 29.4521 112.758 30.5285 111.305 30.5285C109.139 30.5285 108.288 28.5213 108.37 27.5757C108.382 27.4316 108.382 27.2816 108.403 27.1316L109.674 18.3304C109.813 17.3554 109.148 16.4481 108.183 16.3084C107.366 16.1878 106.605 16.6539 106.302 17.3892C106.08 17.2304 104.838 16.3334 103.068 16.3334C101.704 16.3334 100.46 16.8348 99.3977 17.5584C97.7989 18.6539 96.5253 20.2627 95.5929 22.0538C94.6681 23.8478 94.0837 25.8316 94.0778 27.786C94.0778 28.8991 94.2771 30.0153 94.788 31.0447C95.2931 32.0711 96.8572 34.1593 99.7828 34.1593C102.863 34.1593 105.044 31.6358 105.702 30.8226C105.982 31.3153 107.632 34.1019 111.302 34.1019C114.505 34.1019 117.225 31.7344 117.698 28.5315L118.568 22.7641V22.7464C118.672 22.017 119.551 19.8862 121.53 19.8598C123.645 19.8304 124.553 21.9127 124.465 22.8125L123.22 31.6417C123.074 32.6167 123.737 33.527 124.702 33.674C125.666 33.821 126.568 33.152 126.713 32.177C126.713 32.177 128 23.1347 128 22.8141C128 21.0405 127.286 19.4082 126.125 18.2259V18.2231L126.123 18.2201ZM104.739 25.386C104.243 26.7992 103.392 28.2007 102.441 29.1609C101.969 29.6447 100.903 30.5859 99.7888 30.5859C98.8707 30.5859 98.1731 29.9433 97.9476 29.43C97.7424 28.9653 97.6174 28.4638 97.6174 27.7801C97.6174 26.9845 97.7922 26.039 98.1249 25.0978C98.6216 23.6847 99.4729 22.2832 100.424 21.3229C100.895 20.8391 101.991 19.898 103.076 19.898C104.097 19.898 104.708 20.645 104.917 21.0538C105.125 21.4553 105.247 22.02 105.247 22.7038C105.247 23.4994 105.072 24.4449 104.739 25.386Z" fill="currentColor"/>
</svg>
