<!DOCTYPE svg PUBLIC "-//W3C//DTD SVG 1.1//EN" "http://www.w3.org/Graphics/SVG/1.1/DTD/svg11.dtd">
<svg width="100%" height="100%" viewBox="0 0 480 480" version="1.1" xmlns="http://www.w3.org/2000/svg" fill="currentColor">
    <g>
        <path d="M240,0C372.46,0 480,107.54 480,240C480,372.46 372.46,480 240,480C107.54,480 0,372.46 0,240C0,107.54 107.54,0 240,0ZM295.77,96.601C287.862,96.601 279.955,97.017 272.464,98.681L272.464,176.089C261.644,171.927 249.159,169.846 232.512,169.846C173.416,169.846 125.14,210.215 125.14,275.137C125.14,341.724 169.254,378.347 234.177,378.347C266.222,378.347 299.099,369.607 319.491,358.787L319.491,98.681C311.584,97.017 303.261,96.601 295.77,96.601ZM233.344,337.146C197.554,337.146 173,313.008 173,274.305C173,236.017 199.218,211.463 234.177,211.463C248.326,211.463 261.228,213.128 272.464,220.203L272.464,330.904C259.979,335.481 247.078,337.562 233.344,337.146Z"/>
    </g>
</svg>
