<svg width="128" height="129" viewBox="0 0 128 129" fill="none" xmlns="http://www.w3.org/2000/svg">
<path d="M19.3033 42.6272C31.9219 30.0086 47.4633 22.2611 58.783 18.9209C77.8965 13.3074 93.1131 12.3332 104.386 14.1425C97.4512 8.5766 89.4362 4.51086 80.8486 2.20253C72.261 -0.105789 63.2877 -0.606428 54.4966 0.732296C45.7055 2.07102 37.288 5.21996 29.7767 9.97985C22.2654 14.7397 15.824 21.0069 10.8599 28.3849C12.6954 33.6484 15.5663 38.491 19.3033 42.6272ZM128 57.0088C127.507 52.6425 126.574 48.3371 125.216 44.1582C107.124 67.6326 53.6334 75.612 15.8703 52.9727C-0.970083 74.777 0.421679 99.1328 23.3394 104.885C45.1437 110.36 104.99 101.36 128 57.0088Z" />
<path d="M106.799 37.6168C107.448 17.6682 54.3293 13.8177 22.3188 45.689C49.2726 70.3233 105.917 63.1789 106.799 37.6168ZM0.607256 73.246C3.08764 65.0858 7.0335 57.4456 12.2517 50.6994C9.12108 48.5943 6.14445 46.2688 3.34439 43.7406C1.12129 50.3321 -0.00706177 57.2432 0.00415836 64.1995C-0.0321622 67.2261 0.169491 70.2509 0.607256 73.246ZM25.2879 115.37C33.0831 121.306 42.1327 125.382 51.7447 127.283C61.3567 129.185 71.2763 128.864 80.7449 126.343C90.2135 123.823 98.9802 119.17 106.375 112.741C113.769 106.312 119.595 98.2775 123.407 89.2512C101.139 113.468 54.7469 123.813 25.2879 115.37ZM23.3394 104.885C45.1437 110.36 104.99 101.406 128 57.0088ZM15.8239 53.019C-0.970075 74.7769 0.421679 99.1328 23.3394 104.885Z" />
</svg>
