<svg viewBox="0 0 143 55" xmlns="http://www.w3.org/2000/svg">
<path d="M131.9 10.1C126.7 10.1 124 12.8 123 13.6V11H116V40H124V24C124 19.9 126.1 17.7 129.5 17.7C133 17.7 135 20 135 24V40H143V21.7C143 14.6 138.1 10.1 131.9 10.1Z" />
<path d="M94.8 10.1C85.9 10.1 79.1 17 79.1 25.4C79.1 33.8 85.9 40.7 94.8 40.7C103.7 40.7 110.5 33.8 110.5 25.4C110.5 17 103.7 10.1 94.8 10.1ZM94.8 32.8C90.6 32.8 87.5 29.5 87.5 25.4C87.5 21.4 90.5 18 94.8 18C99 18 102.1 21.3 102.1 25.4C102.1 29.5 99.1 32.8 94.8 32.8Z" />
<path d="M81.7 11H71.6L58.5 27.6L52.9 22.1L67.4 4H57.3L47.4 16.6L42 11H30L42.1 23.1L28.4 40H38.5L47.6 28.4L53.2 34.5L40.3 51H50.4L58.7 39.8L74.2 55H86.5L64.1 32.9L81.7 11Z" />
<path d="M0 40H27V33H8V23H25V16H8V7H27V0H0V40Z" />
</svg>
