<svg width="128" height="110" viewBox="0 0 128 110" fill="none" xmlns="http://www.w3.org/2000/svg">
<path d="M114.794 0H13.2063C5.91268 0 0 5.91268 0 13.2064C0 20.5 5.91268 26.4127 13.2063 26.4127H114.794C122.087 26.4127 128 20.5 128 13.2064C128 5.91268 122.087 0 114.794 0Z" fill="currentColor"/>
<path d="M114.794 41.6508H13.2063C5.91268 41.6508 0 47.5635 0 54.8572C0 62.1508 5.91268 68.0635 13.2063 68.0635H114.794C122.087 68.0635 128 62.1508 128 54.8572C128 47.5635 122.087 41.6508 114.794 41.6508Z" fill="currentColor"/>
<path d="M66.0317 83.3016H13.2063C5.91268 83.3016 0 89.2143 0 96.5079C0 103.802 5.91268 109.714 13.2063 109.714H66.0317C73.3254 109.714 79.2381 103.802 79.2381 96.5079C79.2381 89.2143 73.3254 83.3016 66.0317 83.3016Z" fill="currentColor"/>
<path d="M114.794 83.3016H98.5397C91.246 83.3016 85.3333 89.2143 85.3333 96.5079C85.3333 103.802 91.246 109.714 98.5397 109.714H114.794C122.087 109.714 128 103.802 128 96.5079C128 89.2143 122.087 83.3016 114.794 83.3016Z" fill="currentColor"/>
</svg>
