<svg width="128" height="15" viewBox="0 0 128 15" fill="none" xmlns="http://www.w3.org/2000/svg">
<path d="M25.6 9.75238V8.53333H26.819V6.09524H28.0381V3.65714H29.2571V0H26.819V2.4381H25.6V4.87619H24.381V7.31429H23.1619V9.75238H21.9429V12.1905H36.5714V10.9714H37.7905V9.75238H25.6Z" fill="black"/>
<path d="M46.3238 3.65714H47.5429V0H45.1048V2.4381H43.8857V4.87619H42.6667V7.31429H41.4476V9.75238H40.2286V12.1905H42.6667V10.9714H43.8857V8.53333H45.1048V6.09524H46.3238V3.65714Z" fill="black"/>
<path d="M85.3333 3.65714H86.5524V2.4381H87.7714V0H70.7048V2.4381H69.4857V4.87619H68.2667V7.31429H67.0476V9.75238H65.8286V12.1905H68.2667V10.9714H69.4857V8.53333H70.7048V7.31429H82.8952V6.09524H84.1143V4.87619H85.3333V3.65714ZM82.8952 3.65714H81.6762V4.87619H71.9238V3.65714H73.1429V2.4381H82.8952V3.65714Z" fill="black"/>
<path d="M65.8286 3.65714H67.0476V2.4381H68.2667V0H51.2V2.4381H49.981V4.87619H48.7619V7.31429H47.5429V9.75238H46.3238V12.1905H48.7619V10.9714H49.981V8.53333H51.2V7.31429H63.3905V6.09524H64.6095V4.87619H65.8286V3.65714ZM63.3905 3.65714H62.1714V4.87619H52.419V3.65714H53.6381V2.4381H63.3905V3.65714Z" fill="black"/>
<path d="M106.057 2.4381V1.21905H107.276V0H90.2095V2.4381H88.9905V4.87619H87.7714V7.31429H86.5524V9.75238H85.3333V12.1905H101.181V10.9714H102.4V9.75238H88.9905V8.53333H90.2095V7.31429H101.181V6.09524H102.4V4.87619H91.4286V3.65714H92.6476V2.4381H106.057Z" fill="black"/>
<path d="M23.1619 1.21905H24.381V0H6.09524V2.4381H4.87619V4.87619H3.65714V7.31429H2.4381V9.75238H1.21905V12.1905H0V14.6286H2.4381V13.4095H3.65714V10.9714H4.87619V8.53333H6.09524V7.31429H17.0667V6.09524H18.2857V4.87619H7.31429V3.65714H8.53333V2.4381H23.1619V1.21905Z" fill="black"/>
<path d="M109.714 0V2.4381H108.495V4.87619H107.276V7.31429H106.057V9.75238H104.838V12.1905H107.276V10.9714H108.495V8.53333H109.714V7.31429H118.248V8.53333H119.467V9.75238H120.686V10.9714H121.905V12.1905H123.124V13.4095H124.343V14.6286H126.781V12.1905H125.562V10.9714H124.343V9.75238H123.124V8.53333H121.905V6.09524H123.124V4.87619H124.343V3.65714H125.562V2.4381H126.781V1.21905H128V0H109.714ZM121.905 3.65714H120.686V4.87619H110.933V3.65714H112.152V2.4381H121.905V3.65714Z" fill="black"/>
</svg>
