<svg width="128" height="221" viewBox="0 0 128 221" fill="none" xmlns="http://www.w3.org/2000/svg">
<path fill-rule="evenodd" clip-rule="evenodd" d="M55.6456 0.574128C23.5221 4.23027 3.77425 24.201 0.472408 56.3728C-1.67836 77.3315 3.29019 90.6703 20.0156 108.833C31.1571 120.931 35.0544 128.488 35.1276 138.129C35.1608 142.68 35.3954 142.791 42.6312 141.72C50.4874 140.557 50.0616 141.083 49.0486 133.806C47.149 120.152 42.864 112.005 30.9059 99.3117C17.3708 84.9433 14.7493 79.0548 14.7077 62.9299C14.6262 31.5283 34.6119 13.4272 68.0479 14.6198C86.5598 15.2802 99.0319 21.7991 105.651 34.2762L107.905 38.5262L114.314 36.061C117.838 34.7054 120.829 33.5144 120.959 33.4146C121.701 32.8424 114.851 21.5296 111.561 17.8934C99.3231 4.37 78.6254 -2.04073 55.6456 0.574128ZM52.1591 48.8941C49.9002 60.6161 47.8609 70.5965 47.6264 71.0738C47.3802 71.5745 45.3642 68.7501 42.8691 64.4119C35.6599 51.8766 36.5881 51.692 33.416 66.2982C30.3337 80.487 30.3636 80.7016 34.6535 75.0843L37.0156 71.9904L41.2988 78.8735C43.6542 82.6577 45.8482 85.9197 46.1742 86.1209C46.5003 86.3239 49.0053 82.3567 51.7416 77.3083C54.4779 72.2582 56.9264 67.9101 57.1842 67.6423C57.4421 67.3761 59.1737 76.8891 61.035 88.7824C62.8947 100.674 64.6562 110.669 64.949 110.994C65.5993 111.711 65.5395 112.003 69.4717 88.9238C71.2266 78.634 72.727 70.149 72.8068 70.0675C72.8883 69.9877 74.6266 73.8068 76.6692 78.5541C80.3703 87.1522 81.1538 88.28 81.8225 85.9746C82.8554 82.4182 88.5027 51.6171 88.18 51.2944C87.5944 50.7089 87.4713 50.9767 84.4057 59.4633C82.8221 63.8481 81.3533 67.9018 81.1421 68.474C80.9225 69.0661 79.2043 65.6528 77.1583 60.5562C72.6887 49.4281 72.9216 49.4597 68.7432 59.4151C66.8369 63.9545 65.2234 67.6123 65.1552 67.5441C65.0887 67.4776 63.4519 59.1606 61.5174 49.0621C57.3439 27.255 57.4154 27.5827 56.7734 27.5827C56.4939 27.5827 54.418 37.1722 52.1591 48.8941ZM95.4257 64.9875V71.8972L104.07 72.0918L112.715 72.2865L110.736 78.0019C107.919 86.1259 103.954 92.377 96.615 100.255C85.8462 111.815 80.871 123.299 80.871 136.59V140.308L58.8659 143.743L36.8592 147.178L36.6729 162.243L36.4866 177.308L39.0981 176.941C40.5353 176.738 49.1966 175.801 58.3453 174.858C67.494 173.915 76.1486 172.982 77.5791 172.782C80.0692 172.435 80.1773 172.504 80.1773 174.436C80.1773 176.433 80.1274 176.458 74.4602 177.252C71.3148 177.691 61.5689 179.053 52.8012 180.276L36.8592 182.501L36.6712 196.186L36.4833 209.871L43.2566 209.475L50.0283 209.079L52.4552 212.742C55.9001 217.937 61.1148 220.568 67.9614 220.563C79.3457 220.555 85.2989 213.612 86.2288 199.263L86.6264 193.126L84.2693 193.496C82.9718 193.699 79.8048 194.059 77.2315 194.295L72.554 194.726L72.5141 197.615C72.4293 203.951 69.4584 207.862 65.947 206.261C63.8877 205.323 62.8498 202.886 62.8498 198.992V195.812L55.5175 196.303L48.1853 196.793L48.4148 195.208C48.6111 193.841 82.6475 188.199 93.6259 187.711C94.228 187.685 93.7773 158.775 93.1652 158.163C93.0055 158.003 83.1066 158.968 71.1667 160.307C47.5432 162.957 48.5662 162.962 49.481 160.215L50.1181 158.306L71.9053 154.793L93.6924 151.278L93.8621 148.863C95.444 126.289 97.1057 121.195 106.027 111.576C120.623 95.8402 128 79.3659 128 62.5057V58.0777H111.712H95.4257V64.9875Z" />
</svg>
