<svg viewBox="0 0 433 340" version="1.1" xmlns="http://www.w3.org/2000/svg">
    <g transform="matrix(1,0,0,1,-295.9,-177.9)">
        <path fill="currentColor" d="M728.1,409.6L592.4,409.6C555.9,409.6 429.1,409.5 423.2,349.2C418.4,299.8 525.2,291.8 525.2,291.8C525.2,291.8 346.1,289.8 296.4,410.9C296.4,266.9 408.6,177.9 512.1,177.9C614.5,178 728.1,259.9 728.1,409.6ZM613.6,219.1C586,201.8 551.3,190 511.8,189.8C461,189.8 412.6,208.6 371.9,249.8C384.7,250.6 391.6,253.2 393.1,253.2C407.3,253.2 416.5,232.5 431.7,232.5C444.2,232.5 454.3,240.2 462,240.2C467.9,240.2 491.7,214.4 500.7,213.9C506.4,213.5 508.9,220.3 512.8,219.4C531.9,216 539.3,233.7 553.6,234.3C565.6,234.8 571.1,219.6 593.6,218.1C601.5,217.6 611.4,218.1 613.6,219.1ZM634,367L634,398.4L647.9,398.4L647.9,367L634,367ZM584.1,292.2C584.1,292.2 568.6,293.2 552.5,302.7C552,311.5 552.7,317.6 552.7,317.6C552.8,317.6 584,298.9 584.1,298.6L584.1,292.2ZM514,367L514,392.6C514,392.6 521.6,393.9 528,394.6L528,367L514,367ZM595.2,228.3C592.6,228.3 589.5,240.6 589.5,240.7C596,238.8 600.7,240.6 600.7,240.6C600.7,240.6 597.2,228.3 595.2,228.3ZM595.2,244.1C575.1,244.1 554.9,265 553.1,293.6C600.8,274 633.4,291.6 637.1,293.7C636,265 616.6,244.1 595.2,244.1ZM664,367L664,398.4L677.9,398.4L677.9,367L664,367ZM574.1,367L574.1,398C574.1,398 581.9,398.2 587.9,398.3L587.9,367L574.1,367ZM543.9,367L543.9,396.2C543.9,396.2 551.6,396.9 558.2,397.3L558.2,367L543.9,367ZM595.2,301.1C595.2,301.1 509.6,353.9 509.6,353.7L509.6,358.9L681.6,358.9L682,354.3C682.5,354.5 595.2,301.2 595.2,301.1ZM595,312.8L646.4,344.2L627.6,344.2C627.6,344.2 604.3,330.2 595.2,324.5L564.5,331.2L595,312.8ZM624.57,514.8L643.773,453.6L603.511,453.6L613.72,423.4L727.6,423.4L727.6,453.6L691.659,453.6L672.578,514.8L624.57,514.8ZM413.183,514.8L441.502,423.3L506.767,423.3L506.767,472.4L507.01,472.4L539.582,423.3L604.118,423.3L574.22,514.8L528.036,514.8L543.593,466.4L543.35,466.4L506.889,514.8L479.421,514.8L475.046,464.8L474.803,464.8L458.517,514.8L413.183,514.8ZM418.166,470.5L404.19,512.6C388.147,515.9 364.69,517.5 351.929,517.5C323.61,517.5 295.9,517 295.9,489.2C295.9,479.2 301.977,433.5 336.372,424.8C350.106,421.2 363.353,420.7 375.264,420.7C395.074,420.7 413.183,422.7 432.265,426.3L423.392,453.2C412.697,452.2 403.096,450.9 392.157,450.9C383.65,450.9 373.927,450.9 365.662,452.5C351.442,455.7 345.123,470.8 345.123,482.6C345.123,494.1 353.752,494.5 364.812,494.3L372.833,470.5L418.166,470.5Z"/>
    </g>
</svg>
