<svg width="128" height="47" viewBox="0 0 128 47" fill="none" xmlns="http://www.w3.org/2000/svg">
<path fill-rule="evenodd" clip-rule="evenodd" d="M83.3614 4.15925C83.3614 4.87632 83.3614 5.59344 83.3614 6.31051C83.3614 6.66907 83.5404 6.84832 83.8992 6.84832C83.8992 7.56539 83.8992 8.28252 83.8992 8.99958C83.8992 9.35815 84.0783 9.5374 84.437 9.5374C84.437 10.2545 84.437 10.9716 84.437 11.6887C86.5425 21.6783 88.5142 31.7174 90.3529 41.8063C89.8092 45.6601 87.658 47.0047 83.8992 45.8399C83.0661 45.187 82.439 44.3803 82.0168 43.4198C80.3969 34.5964 78.6044 25.812 76.6387 17.0668C72.5185 24.9504 68.1267 32.6591 63.4622 40.1929C61.8821 40.7709 60.2686 40.8606 58.6219 40.4618C56.5722 37.6944 54.6001 34.9157 52.7059 32.1256C52.7059 31.9464 52.7059 31.7671 52.7059 31.5878C52.7059 31.2293 52.5268 31.05 52.1681 31.05C52.2573 28.8913 52.1675 26.7401 51.8992 24.5962C50.4527 23.8236 48.9289 23.2858 47.3277 22.9828C46.3126 20.7747 45.1473 18.6235 43.8319 16.529C43.1421 18.634 42.6939 20.7853 42.4874 22.9828C40.7593 22.8161 39.1459 22.9953 37.6471 23.5206C36.2129 23.6998 34.7787 23.8792 33.3445 24.0584C34.2001 19.9597 34.9172 15.8365 35.4958 11.6887C35.8544 11.6887 36.0336 11.5094 36.0336 11.1508C36.0336 10.613 36.0336 10.0752 36.0336 9.5374C36.4844 9.35363 36.6637 8.99507 36.5714 8.46177C36.5714 7.92395 36.5714 7.38614 36.5714 6.84832C36.93 6.84832 37.1092 6.66907 37.1092 6.31051C37.1092 5.59344 37.1092 4.87632 37.1092 4.15925C38.8193 -0.540207 41.598 -1.25729 45.4454 2.00799C50.465 10.613 55.4848 19.2181 60.5042 27.8231C65.5602 19.3557 70.4005 10.7507 75.0252 2.00799C78.8727 -1.25729 81.6511 -0.540207 83.3614 4.15925ZM47.3277 22.9828C45.7143 22.9828 44.1008 22.9828 42.4874 22.9828C42.6939 20.7853 43.1421 18.634 43.8319 16.529C45.1473 18.6235 46.3126 20.7747 47.3277 22.9828Z" fill="black"/>
<path fill-rule="evenodd" clip-rule="evenodd" d="M37.1092 4.15925C37.1092 4.87632 37.1092 5.59344 37.1092 6.31051C36.7507 6.31051 36.5714 6.48976 36.5714 6.84832C36.5714 7.38614 36.5714 7.92395 36.5714 8.46177C36.1206 8.64554 35.9413 9.0041 36.0336 9.5374C36.0336 10.0752 36.0336 10.613 36.0336 11.1508C35.6751 11.1508 35.4958 11.3301 35.4958 11.6887C29.3713 11.4825 23.276 11.7514 17.2101 12.4954C9.66556 15.4836 6.70758 20.9514 8.33613 28.8987C9.65324 33.175 12.432 35.8641 16.6723 36.966C16.58 37.4993 16.7593 37.8578 17.2101 38.0416C18.6961 38.8529 20.1302 39.7493 21.5126 40.7307C22.4988 40.056 23.5744 39.6975 24.7395 39.655C24.9233 40.1058 25.2818 40.2851 25.8151 40.1929C27.4191 40.4418 29.0326 40.6211 30.6555 40.7307C30.7832 41.7549 31.3211 42.472 32.2689 42.8819C32.2689 43.0612 32.2689 43.2405 32.2689 43.4197C21.5146 48.4152 12.1029 46.6225 4.03361 38.0416C-1.34454 29.4366 -1.34454 20.8315 4.03361 12.2265C7.28648 8.07847 11.4993 5.47899 16.6723 4.42816C23.4822 4.1593 30.2945 4.06965 37.1092 4.15925Z" fill="black"/>
<path fill-rule="evenodd" clip-rule="evenodd" d="M83.3614 4.15925C98.2454 3.9801 113.125 4.15936 128 4.69706C126.944 6.98509 126.047 9.3156 125.311 11.6887C118.857 11.6887 112.403 11.6887 105.95 11.6887C105.95 22.9828 105.95 34.2769 105.95 45.571C103.261 45.571 100.571 45.571 97.8824 45.571C97.8824 34.2769 97.8824 22.9828 97.8824 11.6887C93.4007 11.6887 88.9186 11.6887 84.437 11.6887C84.437 10.9716 84.437 10.2545 84.437 9.5374C84.0783 9.5374 83.8992 9.35815 83.8992 8.99958C83.8992 8.28252 83.8992 7.56539 83.8992 6.84832C83.5404 6.84832 83.3614 6.66907 83.3614 6.31051C83.3614 5.59344 83.3614 4.87632 83.3614 4.15925Z" fill="black"/>
<path fill-rule="evenodd" clip-rule="evenodd" d="M37.6471 23.5206C39.1459 22.9953 40.7593 22.8161 42.4874 22.9828C44.1008 22.9828 45.7143 22.9828 47.3277 22.9828C48.9289 23.2858 50.4527 23.8236 51.8992 24.5962C52.1675 26.7401 52.2573 28.8913 52.1681 31.05C52.5268 31.05 52.7059 31.2293 52.7059 31.5878C52.7059 31.7671 52.7059 31.9464 52.7059 32.1256C52.9866 33.9576 52.9866 35.7503 52.7059 37.5038C52.7059 37.683 52.7059 37.8623 52.7059 38.0416C52.189 37.0926 52.0094 36.0169 52.1681 34.8147C47.8618 34.9042 43.5593 34.8145 39.2605 34.5458C43.3798 34.2771 47.5031 34.1874 51.6303 34.2769C51.3182 31.9589 51.139 29.6283 51.0924 27.2853C46.7899 27.2853 42.4874 27.2853 38.1849 27.2853C37.8387 29.7517 37.8387 32.1719 38.1849 34.5458C38.0056 34.6355 37.8263 34.7251 37.6471 34.8147C37.0223 32.3239 36.9327 29.8141 37.3782 27.2853C38.008 26.536 38.8147 26.0879 39.7983 25.9408C39.0813 25.2237 39.0813 24.5066 39.7983 23.7895C39.1028 23.526 38.3857 23.4363 37.6471 23.5206Z" fill="black"/>
<path fill-rule="evenodd" clip-rule="evenodd" d="M37.6471 23.5206C35.6573 24.4592 33.506 24.9971 31.1933 25.134C31.8233 24.6798 32.5404 24.3212 33.3445 24.0584C34.7787 23.8792 36.2129 23.6998 37.6471 23.5206Z" fill="black"/>
<path fill-rule="evenodd" clip-rule="evenodd" d="M32.2689 26.7475C32.8431 26.2449 33.5602 26.0656 34.4202 26.2097C34.4202 30.8707 34.4202 35.5318 34.4202 40.1929C33.0437 40.0307 31.7889 40.21 30.6555 40.7307C29.0326 40.6211 27.4191 40.4418 25.8151 40.1929C28.3995 39.6619 31.0886 39.4827 33.8824 39.655C33.8824 35.3525 33.8824 31.05 33.8824 26.7475C33.3445 26.7475 32.8067 26.7475 32.2689 26.7475Z" fill="black"/>
<path fill-rule="evenodd" clip-rule="evenodd" d="M32.2689 26.7475C32.8067 26.7475 33.3445 26.7475 33.8824 26.7475C33.8824 31.05 33.8824 35.3525 33.8824 39.655C31.0886 39.4827 28.3995 39.6619 25.8151 40.1929C25.2818 40.2851 24.9233 40.1058 24.7395 39.655C25.2628 38.3385 25.4421 36.9043 25.2773 35.3525C23.1001 35.4092 20.9488 35.23 18.8235 34.8147C18.8235 33.022 18.8235 31.2293 18.8235 29.4366C23.3222 28.6085 27.804 27.7122 32.2689 26.7475Z" fill="black"/>
<path fill-rule="evenodd" clip-rule="evenodd" d="M29.042 25.6719C25.2453 27.0705 21.3014 28.1461 17.2101 28.8987C17.2101 31.9464 17.2101 34.994 17.2101 38.0416C16.7593 37.8578 16.58 37.4993 16.6723 36.966C16.6723 34.0976 16.6723 31.2293 16.6723 28.3609C20.7775 27.3794 24.9008 26.483 29.042 25.6719Z" fill="black"/>
<path fill-rule="evenodd" clip-rule="evenodd" d="M52.7059 37.5038C53.6003 38.5463 53.9585 39.8012 53.7815 41.2685C53.2437 41.2685 52.7059 41.2685 52.1681 41.2685C53.3975 40.4216 53.5766 39.346 52.7059 38.0416C52.7059 37.8623 52.7059 37.683 52.7059 37.5038Z" fill="black"/>
<path fill-rule="evenodd" clip-rule="evenodd" d="M51.0924 41.2685C44.8276 41.918 38.5531 42.6351 32.2689 43.4197C32.2689 43.2405 32.2689 43.0612 32.2689 42.8819C38.4363 41.8631 44.7108 41.3253 51.0924 41.2685Z" fill="black"/>
</svg>
