<svg width="128" height="30" viewBox="0 0 128 30" fill="none" xmlns="http://www.w3.org/2000/svg">
<path d="M101.744 0.0980916C107.95 -0.222914 111.58 0.0919688 117.06 3.38014C117.06 4.10219 117.06 4.82425 117.06 5.56818C117.872 5.70356 118.684 5.83895 119.521 5.97843C122.313 6.61282 124.419 7.46858 126.906 8.85023C126.906 9.93331 126.906 11.0164 126.906 12.1323C124.079 12.1914 121.254 12.2348 118.427 12.269C117.629 12.2874 116.831 12.3057 116.009 12.3246C111.698 12.3638 108.749 12.1108 105.026 9.94425C102.474 9.8592 99.9183 9.84614 97.3675 9.94425C97.9091 13.1935 97.9091 13.1935 98.4615 16.5083C99.491 16.7199 100.521 16.9314 101.581 17.1494C102.944 17.4342 104.306 17.7191 105.709 18.0126C107.727 18.4315 107.727 18.4315 109.786 18.8588C114.964 20.0673 120.114 21.4381 124.718 24.1665C125.259 25.2495 125.259 25.2495 125.812 26.3545C126.534 26.7155 127.256 27.0766 128 27.4485C126.195 27.4485 124.39 27.4485 122.53 27.4485C123.613 28.5316 123.613 28.5316 124.718 29.6366C122.155 29.3569 119.6 28.9881 117.06 28.5425C116.518 27.4595 116.518 27.4595 115.966 26.3545C115.254 26.3386 114.542 26.3226 113.808 26.3062C110.584 26.2247 107.361 26.1189 104.137 26.0126C103.016 25.9879 101.896 25.9633 100.741 25.9378C99.6661 25.8991 98.5908 25.8603 97.4829 25.8203C96.4918 25.7917 95.5006 25.763 94.4794 25.7335C91.4846 25.1849 90.4945 24.3144 88.6154 21.9784C87.8933 22.3395 87.1713 22.7005 86.4274 23.0725C76.6433 24.0193 69.3865 20.5318 60.735 16.2605C57.1611 15.1617 55.0055 15.5024 51.4188 16.5083C48.756 18.1411 48.756 18.1411 46.2906 20.2007C39.4967 25.1658 32.1897 28.0933 23.6581 27.2434C19.6923 26.3545 19.6923 26.3545 16.8205 25.0554C13.1994 23.8166 11.0986 24.9143 7.65812 26.3545C8.01915 25.2714 8.38017 24.1883 8.75214 23.0725C4.41983 23.614 4.41983 23.614 0 24.1665C0 23.4444 0 22.7224 0 21.9784C4.63882 19.7955 7.91905 18.2623 13.1282 18.6964C16.3495 18.8291 16.3495 18.8291 19.1453 18.0126C21.8803 17.6024 21.8803 17.6024 25.1624 19.7904C25.5234 20.1514 25.8844 20.5125 26.2564 20.8844C26.9785 20.8844 27.7005 20.8844 28.4444 20.8844C29.1665 19.4403 29.8885 17.9962 30.6325 16.5083C29.1884 16.8694 27.7443 17.2304 26.2564 17.6024C26.7754 16.7449 27.2944 15.8875 27.8291 15.0041C28.8153 13.3472 29.7702 11.6689 30.6325 9.94425C30.0077 10.1022 29.383 10.2601 28.7393 10.4229C21.038 12.186 13.3596 12.8847 5.47009 12.1323C4.38701 11.4102 3.30393 10.6882 2.18803 9.94425C3.62227 10.0204 3.62227 10.0204 5.08547 10.0981C17.4829 10.462 28.7593 8.29951 40.6701 4.88629C41.329 4.75028 41.9878 4.61428 42.6667 4.47416C43.2082 5.0157 43.2082 5.0157 43.7607 5.56818C44.3615 5.41446 44.9622 5.26074 45.5812 5.10237C58.9264 1.82184 75.1254 5.27197 88.6154 6.66219C89.3374 5.57912 90.0595 4.49604 90.8034 3.38014C93.1325 2.89724 93.1325 2.89724 95.7949 2.76476C98.393 2.67242 98.393 2.67242 100.65 2.28613C101.011 1.56407 101.372 0.842023 101.744 0.0980916Z" fill="currentColor"/>
<path d="M61.265 8.85023C61.4342 9.86561 61.4342 9.86561 61.6068 10.9015C62.1824 13.5388 62.1824 13.5388 65.1838 14.9656C69.2997 16.6637 72.5579 17.0514 76.9915 17.2605C78.3538 17.3324 79.7161 17.4043 81.1197 17.4784C82.1491 17.5193 83.1786 17.5602 84.2393 17.6024C84.2393 17.2413 84.2393 16.8803 84.2393 16.5083C87.3312 15.9462 89.1515 16.1349 91.7778 17.893C93.7571 19.5505 95.6409 21.1518 97.3675 23.0725C97.3675 23.7945 97.3675 24.5166 97.3675 25.2605C92.3855 25.6644 92.3855 25.6644 89.9145 23.6195C89.2715 22.8072 89.2715 22.8072 88.6154 21.9784C87.8933 22.3395 87.1713 22.7005 86.4274 23.0725C76.6433 24.0193 69.3865 20.5318 60.735 16.2605C57.1611 15.1617 55.0055 15.5024 51.4188 16.5083C48.756 18.1411 48.756 18.1411 46.2906 20.2007C39.4967 25.1658 32.1897 28.0933 23.6581 27.2434C19.6923 26.3545 19.6923 26.3545 16.8205 25.0554C13.1994 23.8166 11.0986 24.9143 7.65812 26.3545C8.01915 25.2714 8.38017 24.1883 8.75214 23.0725C5.86393 23.4335 2.97573 23.7945 0 24.1665C0 23.4444 0 22.7224 0 21.9784C4.63882 19.7955 7.91905 18.2623 13.1282 18.6964C16.3495 18.8291 16.3495 18.8291 19.1453 18.0126C21.8803 17.6024 21.8803 17.6024 25.1624 19.7904C23.3573 20.5125 21.5521 21.2345 19.6923 21.9784C19.6923 22.7005 19.6923 23.4225 19.6923 24.1665C29.841 22.7904 38.1123 17.7303 46.0598 11.393C48.4205 9.7463 50.3215 9.16561 53.1282 8.57673C53.9645 8.39057 54.8008 8.20442 55.6624 8.01262C57.9829 7.75621 57.9829 7.75621 61.265 8.85023Z" fill="currentColor"/>
<path d="M66.735 8.85023C67.0961 9.21125 67.4571 9.57228 67.8291 9.94425C69.436 9.93586 71.0426 9.85185 72.6453 9.73484C73.6191 9.67209 74.5929 9.60933 75.5962 9.54467C77.662 9.40107 79.7275 9.25294 81.7927 9.10023C82.7679 9.03888 83.7431 8.97754 84.7479 8.91433C86.0952 8.81795 86.0952 8.81795 87.4698 8.71962C89.7094 8.85023 89.7094 8.85023 91.8974 11.0383C92.2585 10.3162 92.6195 9.59416 92.9915 8.85023C94.4356 9.21125 95.8797 9.57228 97.3675 9.94425C97.9091 13.1935 97.9091 13.1935 98.4615 16.5083C100.006 16.8257 100.006 16.8257 101.581 17.1494C102.944 17.4342 104.306 17.7191 105.709 18.0126C107.055 18.2919 108.4 18.5711 109.786 18.8588C114.964 20.0673 120.114 21.4381 124.718 24.1665C125.259 25.2495 125.259 25.2495 125.812 26.3545C126.534 26.7155 127.256 27.0766 128 27.4485C126.195 27.4485 124.39 27.4485 122.53 27.4485C123.252 28.1706 123.974 28.8926 124.718 29.6366C122.155 29.3569 119.6 28.9881 117.06 28.5425C116.518 27.4595 116.518 27.4595 115.966 26.3545C114.047 26.3312 114.047 26.3312 112.09 26.3075C110.396 26.2562 108.702 26.2034 107.009 26.1494C106.167 26.143 105.326 26.1367 104.459 26.1301C99.7742 25.9492 97.8995 25.7016 94.1667 22.6066C93.4178 21.6773 92.669 20.7479 91.8974 19.7904C91.1754 19.0683 90.4533 18.3463 89.7094 17.6024C88.2443 17.9405 86.7874 18.3137 85.3333 18.6964C77.0784 19.1161 67.9577 18.6236 61.265 13.2263C61.265 12.1432 61.265 11.0601 61.265 9.94425C60.5429 9.58322 59.8209 9.22219 59.0769 8.85023C62.0129 7.38224 63.6202 8.05154 66.735 8.85023Z" fill="currentColor"/>
<path d="M101.744 0.0980916C107.95 -0.222914 111.58 0.0919688 117.06 3.38014C117.06 4.10219 117.06 4.82425 117.06 5.56818C117.872 5.70356 118.684 5.83895 119.521 5.97843C122.313 6.61282 124.419 7.46858 126.906 8.85023C126.906 9.93331 126.906 11.0164 126.906 12.1323C124.079 12.1914 121.254 12.2348 118.427 12.269C117.629 12.2874 116.831 12.3057 116.009 12.3246C111.698 12.3638 108.749 12.1108 105.026 9.94425C102.474 9.8592 99.9183 9.84614 97.3675 9.94425C98.0896 8.50014 98.8116 7.05604 99.5556 5.56818C98.1115 5.56818 96.6674 5.56818 95.1795 5.56818C95.1795 4.84613 95.1795 4.12407 95.1795 3.38014C96.0595 3.24476 96.9395 3.10937 97.8462 2.96989C98.7713 2.74425 99.6964 2.5186 100.65 2.28613C101.011 1.56407 101.372 0.842023 101.744 0.0980916Z" fill="currentColor"/>
<path d="M48.8205 10.9015C49.678 10.9466 50.5354 10.9918 51.4188 11.0383C45.3394 17.7257 37.0151 24.4674 28.4444 27.4485C24.2231 27.4905 20.6642 26.7941 16.8205 25.0554C13.1994 23.8166 11.0986 24.9143 7.65812 26.3545C8.01915 25.2714 8.38017 24.1883 8.75214 23.0725C5.86393 23.4335 2.97573 23.7945 0 24.1665C0 23.4444 0 22.7224 0 21.9784C4.63882 19.7955 7.91905 18.2623 13.1282 18.6964C16.3495 18.8291 16.3495 18.8291 19.1453 18.0126C21.8803 17.6024 21.8803 17.6024 25.1624 19.7904C23.3573 20.5125 21.5521 21.2345 19.6923 21.9784C19.6923 22.7005 19.6923 23.4225 19.6923 24.1665C30.33 22.7241 39.7448 11.3337 48.8205 10.9015Z" fill="currentColor"/>
<path d="M92.9915 13.2263C93.3525 13.9483 93.7135 14.6704 94.0855 15.4143C95.1686 15.0533 96.2516 14.6923 97.3675 14.3203C97.7286 15.0424 98.0896 15.7644 98.4615 16.5083C100.878 17.1484 103.323 17.6775 105.778 18.1494C112.327 19.422 118.912 20.7258 124.718 24.1665C125.079 24.8885 125.44 25.6106 125.812 26.3545C126.534 26.7155 127.256 27.0766 128 27.4485C126.195 27.4485 124.39 27.4485 122.53 27.4485C123.252 28.1706 123.974 28.8926 124.718 29.6366C122.155 29.3569 119.6 28.9881 117.06 28.5425C116.699 27.8205 116.338 27.0984 115.966 26.3545C114.009 26.2932 114.009 26.2932 112.013 26.2306C110.299 26.1587 108.585 26.086 106.872 26.0126C105.582 25.9756 105.582 25.9756 104.267 25.9378C103.439 25.8991 102.61 25.8603 101.756 25.8203C100.994 25.7917 100.232 25.763 99.4474 25.7335C96.7854 25.1281 95.7761 24.0839 94.0855 21.9784C93.3529 19.0539 93.2391 16.2477 92.9915 13.2263Z" fill="currentColor"/>
<path d="M101.744 0.0980916C104.632 0.0980916 107.52 0.0980924 110.496 0.0980924C109.052 0.459118 107.608 0.820144 106.12 1.19211C106.481 2.99724 106.842 4.80237 107.214 6.6622C113.012 8.48432 118.671 10.2426 124.718 11.0383C124.718 11.3993 124.718 11.7603 124.718 12.1323C122.257 12.1915 119.795 12.2339 117.333 12.269C115.963 12.2944 114.592 12.3198 113.179 12.346C109.587 12.1428 108.059 11.6473 105.026 9.94425C102.474 9.8592 99.9183 9.84614 97.3675 9.94425C98.0896 8.50014 98.8116 7.05604 99.5556 5.56818C98.1115 5.56818 96.6674 5.56818 95.1795 5.56818C95.1795 4.84613 95.1795 4.12407 95.1795 3.38014C96.0595 3.24476 96.9395 3.10937 97.8462 2.96989C98.7713 2.74425 99.6964 2.5186 100.65 2.28613C101.011 1.56407 101.372 0.842023 101.744 0.0980916Z" fill="currentColor"/>
<path d="M90.8034 9.94425C91.1644 10.3053 91.5255 10.6663 91.8974 11.0383C92.2585 10.3162 92.6195 9.59416 92.9915 8.85023C94.4356 9.21125 95.8797 9.57228 97.3675 9.94425C97.0065 11.7494 96.6455 13.5545 96.2735 15.4143C95.5515 15.4143 94.8294 15.4143 94.0855 15.4143C94.4465 16.8584 94.8075 18.3025 95.1795 19.7904C94.0964 19.7904 93.0133 19.7904 91.8974 19.7904C91.1754 19.0683 90.4533 18.3463 89.7094 17.6024C87.2998 17.099 87.2998 17.099 84.6496 16.9186C83.7555 16.8368 82.8614 16.755 81.9402 16.6707C81.2548 16.6172 80.5694 16.5636 79.8633 16.5083C79.8633 16.1473 79.8633 15.7863 79.8633 15.4143C82.0294 14.6923 84.1956 13.9702 86.4274 13.2263C82.4561 12.8653 78.4848 12.5042 74.3932 12.1323C74.3932 11.7713 74.3932 11.4102 74.3932 11.0383C76.3053 10.6393 78.2205 10.2546 80.1368 9.87587C81.736 9.55222 81.736 9.55222 83.3675 9.22202C86.3001 8.86569 88.0566 8.94253 90.8034 9.94425Z" fill="currentColor"/>
<path d="M90.8034 3.38014C92.2475 3.38014 93.6916 3.38014 95.1795 3.38014C95.1795 4.10219 95.1795 4.82425 95.1795 5.56818C96.6236 5.56818 98.0677 5.56818 99.5556 5.56818C98.8335 7.01228 98.1115 8.45638 97.3675 9.94425C95.9234 9.58322 94.4793 9.22219 92.9915 8.85023C92.6304 9.93331 92.2694 11.0164 91.8974 12.1323C91.1754 11.4102 90.4533 10.6882 89.7094 9.94425C87.0511 9.74239 87.0511 9.74239 83.9915 9.96989C82.8633 10.0263 81.735 10.0827 80.5727 10.1408C79.3909 10.2113 78.2091 10.2819 76.9915 10.3545C75.2061 10.4476 75.2061 10.4476 73.3846 10.5425C70.438 10.6976 67.4925 10.8633 64.547 11.0383C68.7074 6.8779 75.9644 6.68282 81.6752 6.64083C82.5439 6.67044 83.4127 6.70006 84.3077 6.73057C85.7292 6.70801 87.1508 6.68544 88.6154 6.66219C89.3374 5.57912 90.0595 4.49604 90.8034 3.38014Z" fill="currentColor"/>
<path d="M72.2051 16.5084C73.6729 16.8345 75.1297 17.2101 76.5812 17.6024C79.1336 17.6449 81.6871 17.6514 84.2393 17.6024C84.2393 17.2413 84.2393 16.8803 84.2393 16.5083C87.3312 15.9462 89.1515 16.1349 91.7778 17.893C93.7571 19.5505 95.6409 21.1518 97.3675 23.0725C97.3675 23.7945 97.3675 24.5166 97.3675 25.2605C92.3855 25.6644 92.3855 25.6644 89.9145 23.6195C89.4858 23.0779 89.0571 22.5364 88.6154 21.9784C87.5323 22.3395 86.4492 22.7005 85.3333 23.0725C82.7735 22.7776 82.7735 22.7776 79.9316 22.1836C78.9966 21.996 78.0616 21.8084 77.0983 21.6152C74.504 20.9143 72.3652 19.9876 70.0171 18.6964C70.7391 17.9743 71.4612 17.2523 72.2051 16.5084Z" fill="currentColor"/>
<path d="M78.7692 6.66219C78.7692 7.02322 78.7692 7.38425 78.7692 7.75621C75.0454 8.61994 71.8186 8.93122 68.0086 8.67929C67.0242 8.62147 66.0398 8.56365 65.0256 8.50408C62.9829 8.37073 60.9401 8.23683 58.8974 8.10237C53.2785 7.77326 48.2048 7.81278 42.6667 8.85023C43.0277 7.76715 43.3887 6.68408 43.7607 5.56818C53.59 1.4903 68.7842 4.77632 78.7692 6.66219Z" fill="currentColor"/>
<path d="M56.8889 6.6622C57.4304 7.74527 57.4304 7.74527 57.9829 8.85023C56.5839 9.05331 55.185 9.25638 53.7436 9.46562C48.1682 10.6891 44.4444 13.3447 39.9103 16.7049C33.3246 21.5379 28.0178 25.0522 19.6923 24.1665C19.6923 23.4444 19.6923 22.7224 19.6923 21.9784C21.5538 21.6061 21.5538 21.6061 23.453 21.2263C31.3108 19.2619 37.5407 14.9875 43.7607 9.94425C48.3763 7.1945 51.5173 6.27851 56.8889 6.6622Z" fill="currentColor"/>
<path d="M25.1624 18.6964C24.8014 19.4184 24.4403 20.1405 24.0684 20.8844C22.2632 20.8844 20.4581 20.8844 18.5983 20.8844C18.5983 21.6065 18.5983 22.3285 18.5983 23.0725C13.1829 24.6971 13.1829 24.6971 7.65812 26.3545C8.01915 25.2714 8.38017 24.1883 8.75214 23.0725C5.86393 23.4335 2.97573 23.7945 0 24.1665C0 23.4444 0 22.7224 0 21.9784C4.63882 19.7955 7.91905 18.2623 13.1282 18.6964C25.1624 18.6964 25.1624 18.6964 25.1624 18.6964Z" fill="currentColor"/>
<path d="M111.59 19.7904C121.021 21.8003 121.021 21.8003 124.718 24.1665C125.079 24.8885 125.44 25.6106 125.812 26.3545C126.534 26.7155 127.256 27.0766 128 27.4485C126.195 27.4485 124.39 27.4485 122.53 27.4485C123.252 28.1706 123.974 28.8926 124.718 29.6366C122.155 29.3569 119.6 28.9881 117.06 28.5425C116.699 27.8205 116.338 27.0984 115.966 26.3545C109.828 25.9935 103.691 25.6325 97.3675 25.2605C97.3675 24.5384 97.3675 23.8164 97.3675 23.0725C102.783 23.0725 108.198 23.0725 113.778 23.0725C112.695 22.3504 111.612 21.6283 110.496 20.8844C110.857 20.5234 111.218 20.1624 111.59 19.7904Z" fill="currentColor"/>
<path d="M37.1966 6.66219C37.1966 7.38425 37.1966 8.1063 37.1966 8.85023C35.0085 10.628 35.0085 10.628 32.8205 12.1323C32.0985 11.7713 31.3764 11.4102 30.6325 11.0383C30.6325 10.6772 30.6325 10.3162 30.6325 9.94425C30.0077 10.1022 29.383 10.2601 28.7393 10.4229C21.038 12.186 13.3596 12.8847 5.47009 12.1323C4.38701 11.4102 3.30393 10.6882 2.18803 9.94425C3.7365 10.0014 3.7365 10.0014 5.31624 10.0596C13.6715 10.2358 20.8137 9.82565 28.8974 7.38014C31.7806 6.64848 34.2358 6.53393 37.1966 6.66219Z" fill="currentColor"/>
<path d="M48.8205 10.9015C49.678 10.9466 50.5354 10.9918 51.4188 11.0383C46.0054 16.993 38.7685 23.8325 30.6325 25.2605C34.1541 21.5922 37.9426 18.2829 41.7863 14.9613C46.2678 11.0231 46.2678 11.0231 48.8205 10.9015Z" fill="currentColor"/>
<path d="M114.872 4.47416C116.468 4.99634 118.063 5.52104 119.658 6.04681C120.547 6.33873 121.435 6.63066 122.35 6.93143C124.718 7.75621 124.718 7.75621 126.906 8.85023C126.906 9.93331 126.906 11.0164 126.906 12.1323C120.408 11.0492 120.408 11.0492 113.778 9.94425C114.139 8.13912 114.5 6.33399 114.872 4.47416Z" fill="currentColor"/>
<path d="M40.4786 4.47416C43.173 5.82133 44.2256 7.51624 45.9487 9.94425C39.072 14.7892 39.072 14.7892 35.0085 15.4143C35.0085 11.6991 35.5793 10.9658 37.7436 8.09809C38.2513 7.41694 38.759 6.73579 39.2821 6.03399C39.6769 5.51925 40.0718 5.0045 40.4786 4.47416Z" fill="currentColor"/>
<path d="M73.9829 9.87587C75.6287 9.89068 75.6287 9.89068 77.3077 9.90578C78.151 9.91848 78.9944 9.93117 79.8633 9.94425C79.8633 10.3053 79.8633 10.6663 79.8633 11.0383C83.1125 11.5798 83.1125 11.5798 86.4274 12.1323C86.4274 12.4933 86.4274 12.8543 86.4274 13.2263C81.734 13.2263 77.0407 13.2263 72.2051 13.2263C71.8441 13.9483 71.4831 14.6704 71.1111 15.4143C69.306 13.9702 67.5009 12.5261 65.641 11.0383C68.5342 9.59165 70.7584 9.83838 73.9829 9.87587Z" fill="currentColor"/>
<path d="M47.2436 16.94C47.8994 17.1586 48.5551 17.3772 49.2308 17.6024C43.8365 22.184 39.9899 24.9618 32.8205 25.2605C43.7012 16.2999 43.7012 16.2999 47.2436 16.94Z" fill="currentColor"/>
<path d="M60.1709 14.3203C65.0162 14.793 68.0817 16.1689 72.1923 18.7092C76.3087 20.7314 80.8322 21.2901 85.3333 21.9784C85.3333 22.3395 85.3333 22.7005 85.3333 23.0725C77.1324 23.861 70.6953 21.4113 63.453 17.6024C61.4231 15.7776 61.4231 15.7776 60.1709 14.3203Z" fill="currentColor"/>
<path d="M84.2393 16.5083C87.3312 15.9462 89.1515 16.1349 91.7778 17.893C93.7571 19.5505 95.6409 21.1518 97.3675 23.0725C97.3675 23.7945 97.3675 24.5166 97.3675 25.2605C94.8376 25.534 94.8376 25.534 91.8974 25.2605C89.7355 23.024 88.6154 21.8497 88.6154 18.6964C87.1713 17.9743 85.7272 17.2523 84.2393 16.5083Z" fill="currentColor"/>
<path d="M86.4274 8.85023C90.4668 9.60763 90.4668 9.60763 91.8974 11.0383C92.2585 10.3162 92.6195 9.59416 92.9915 8.85023C94.4356 9.21125 95.8797 9.57228 97.3675 9.94425C97.0065 11.7494 96.6455 13.5545 96.2735 15.4143C91.9936 14.1498 88.7527 12.8375 85.3333 9.94425C85.6944 9.58322 86.0554 9.2222 86.4274 8.85023Z" fill="currentColor"/>
<path d="M101.744 0.0980916C104.632 0.0980916 107.52 0.0980924 110.496 0.0980924C109.052 0.459118 107.608 0.820144 106.12 1.19211C106.12 2.27519 106.12 3.35826 106.12 4.47416C99.243 7.13106 99.243 7.13106 95.1795 5.56818C95.1795 4.84613 95.1795 4.12407 95.1795 3.38014C96.0595 3.24476 96.9395 3.10937 97.8462 2.96989C98.7713 2.74425 99.6964 2.5186 100.65 2.28613C101.011 1.56407 101.372 0.842023 101.744 0.0980916Z" fill="currentColor"/>
<path d="M109.402 18.6964C111.207 20.1405 113.012 21.5846 114.872 23.0725C113.778 24.1665 113.778 24.1665 111.038 24.2733C109.382 24.2543 109.382 24.2543 107.692 24.2348C106.585 24.225 105.478 24.2151 104.338 24.2049C103.482 24.1922 102.626 24.1795 101.744 24.1665C101.744 23.0834 101.744 22.0003 101.744 20.8844C103.549 21.2454 105.354 21.6065 107.214 21.9784C107.214 21.2564 107.214 20.5343 107.214 19.7904C107.936 19.4294 108.658 19.0683 109.402 18.6964Z" fill="currentColor"/>
<path d="M77.6752 13.2263C81.2855 13.2263 84.8957 13.2263 88.6154 13.2263C85.3333 15.4143 85.3333 15.4143 83.1453 16.5083C83.8674 17.2304 84.5894 17.9525 85.3333 18.6964C82.8062 18.6964 80.279 18.6964 77.6752 18.6964C77.6752 16.8913 77.6752 15.0861 77.6752 13.2263Z" fill="currentColor"/>
<path d="M85.3333 6.66219C84.9723 7.38425 84.6113 8.1063 84.2393 8.85023C81.5251 9.40408 78.9131 9.82062 76.1709 10.1494C75.4207 10.253 74.6704 10.3567 73.8974 10.4635C70.3321 10.9178 68.0001 11.0953 64.547 9.94425C66.7784 9.38806 69.0126 8.84329 71.2479 8.30322C72.4917 7.99861 73.7356 7.69399 75.0171 7.38014C78.5665 6.70099 81.732 6.53084 85.3333 6.66219Z" fill="currentColor"/>
<path d="M32.8205 17.6024C32.8205 18.6854 32.8205 19.7685 32.8205 20.8844C28.5457 24.382 25.0857 24.4837 19.6923 24.1665C19.6923 23.4444 19.6923 22.7224 19.6923 21.9784C21.0462 21.6625 22.4 21.3466 23.7949 21.0212C27.049 20.2134 29.9037 19.3038 32.8205 17.6024Z" fill="currentColor"/>
<path d="M48.1368 9.94425C50.6639 9.94425 53.1911 9.94425 55.7949 9.94425C54.7118 10.3053 53.6287 10.6663 52.5128 11.0383C52.5128 11.7603 52.5128 12.4824 52.5128 13.2263C53.2349 13.5873 53.9569 13.9483 54.7009 14.3203C51.1695 16.6746 50.0141 16.7281 45.9487 16.5083C47.0318 15.0642 48.1149 13.6201 49.2308 12.1323C48.8697 11.4102 48.5087 10.6882 48.1368 9.94425Z" fill="currentColor"/>
<path d="M122.53 23.0725C123.613 23.4335 124.696 23.7945 125.812 24.1665C125.812 24.8885 125.812 25.6106 125.812 26.3545C126.534 26.7155 127.256 27.0766 128 27.4485C126.195 27.4485 124.39 27.4485 122.53 27.4485C123.252 28.1706 123.974 28.8926 124.718 29.6366C122.191 29.2755 119.664 28.9145 117.06 28.5425C117.06 27.4595 117.06 26.3764 117.06 25.2605C118.865 25.2605 120.67 25.2605 122.53 25.2605C122.53 24.5384 122.53 23.8164 122.53 23.0725Z" fill="currentColor"/>
<path d="M96.2735 16.5083C102.772 17.5914 102.772 17.5914 109.402 18.6964C108.319 19.2379 108.319 19.2379 107.214 19.7904C107.214 20.5125 107.214 21.2345 107.214 21.9784C105.592 21.7 103.975 21.3996 102.359 21.0895C101.458 20.9245 100.557 20.7595 99.6282 20.5895C98.8822 20.3258 98.1362 20.0621 97.3675 19.7904C97.0065 18.7073 96.6455 17.6242 96.2735 16.5083Z" fill="currentColor"/>
<path d="M108.308 7.75621C113.723 8.83929 119.138 9.92237 124.718 11.0383C124.718 11.3993 124.718 11.7603 124.718 12.1323C119.664 12.1323 114.609 12.1323 109.402 12.1323C109.041 10.6882 108.68 9.24408 108.308 7.75621Z" fill="currentColor"/>
<path d="M30.6325 14.3203C31.3545 14.6813 32.0766 15.0424 32.8205 15.4143C28.718 20.7477 28.718 20.7477 26.2564 21.9784C23.7041 22.0224 21.1506 22.0257 18.5983 21.9784C18.5983 21.6174 18.5983 21.2564 18.5983 20.8844C19.4783 20.749 20.3583 20.6136 21.265 20.4742C22.1901 20.2485 23.1152 20.0229 24.0684 19.7904C24.4294 19.0683 24.7904 18.3463 25.1624 17.6024C27.8291 15.7562 27.8291 15.7562 30.6325 14.3203Z" fill="currentColor"/>
<path d="M37.1966 6.66219C37.1966 7.38425 37.1966 8.1063 37.1966 8.85023C35.0085 10.628 35.0085 10.628 32.8205 12.1323C32.0985 11.7713 31.3764 11.4102 30.6325 11.0383C30.6325 10.6772 30.6325 10.3162 30.6325 9.94425C29.5494 9.94425 28.4663 9.94425 27.3504 9.94425C27.3504 9.22219 27.3504 8.50014 27.3504 7.75621C30.7126 6.76002 33.6968 6.56498 37.1966 6.66219Z" fill="currentColor"/>
<path d="M88.6154 18.6964C88.6154 19.7795 88.6154 20.8625 88.6154 21.9784C85.1873 23.1211 84.2506 23.0005 80.9573 21.9784C81.3183 20.8954 81.6793 19.8123 82.0513 18.6964C85.3333 17.6024 85.3333 17.6024 88.6154 18.6964Z" fill="currentColor"/>
<path d="M6.5641 20.8844C9.45231 21.2454 12.3405 21.6065 15.3162 21.9784C12.9376 24.7139 11.2351 25.7378 7.65812 26.3545C8.01915 25.2714 8.38017 24.1883 8.75214 23.0725C8.03009 22.3504 7.30803 21.6283 6.5641 20.8844Z" fill="currentColor"/>
<path d="M106.12 1.19211C107.564 1.19211 109.008 1.19211 110.496 1.19211C110.496 2.99724 110.496 4.80237 110.496 6.6622C107.247 6.12066 107.247 6.12066 103.932 5.56818C104.654 5.20715 105.376 4.84613 106.12 4.47416C106.12 3.39108 106.12 2.30801 106.12 1.19211Z" fill="currentColor"/>
<path d="M60.1709 14.3203C66.2301 14.9936 66.2301 14.9936 68.7863 17.1237C69.3956 17.9022 69.3956 17.9022 70.0171 18.6964C63.9579 18.0231 63.9579 18.0231 61.4017 15.893C60.9956 15.374 60.5894 14.855 60.1709 14.3203Z" fill="currentColor"/>
<path d="M66.735 8.85023C66.013 10.2943 65.2909 11.7384 64.547 13.2263C63.4639 13.2263 62.3809 13.2263 61.265 13.2263C61.265 12.1432 61.265 11.0601 61.265 9.94425C60.5429 9.58322 59.8209 9.22219 59.0769 8.85023C61.9943 7.39155 63.6355 8.11612 66.735 8.85023Z" fill="currentColor"/>
<path d="M25.1624 18.6964C24.8014 19.4184 24.4403 20.1405 24.0684 20.8844C21.9022 20.8844 19.7361 20.8844 17.5043 20.8844C17.1432 20.1624 16.7822 19.4403 16.4103 18.6964C19.5411 17.131 21.8079 18.0401 25.1624 18.6964Z" fill="currentColor"/>
<path d="M86.4274 8.85023C88.547 9.05536 88.547 9.05536 90.8034 9.94425C92.1709 12.2007 92.1709 12.2007 92.9915 14.3203C89.8022 13.1453 87.7641 12.375 85.3333 9.94425C85.6944 9.58322 86.0554 9.2222 86.4274 8.85023Z" fill="currentColor"/>
<path d="M40.4786 4.47416C43.173 5.82133 44.2256 7.51624 45.9487 9.94425C44.5046 10.3053 43.0605 10.6663 41.5727 11.0383C41.5727 10.3162 41.5727 9.59416 41.5727 8.85023C40.4896 8.4892 39.4065 8.12818 38.2906 7.75621C39.0127 6.67314 39.7347 5.59006 40.4786 4.47416Z" fill="currentColor"/>
</svg>
