<svg width="128" height="74" viewBox="0 0 128 74" fill="none" xmlns="http://www.w3.org/2000/svg">
<path d="M75.2247 68.1704C75.5127 67.8879 76.1509 67.1629 76.1381 66.2724C76.1179 64.9887 75.1113 63.6036 72.9499 63.5954L69.1721 63.5643V73.6534L73.7774 73.6507C73.8386 73.6534 75.2622 73.6863 76.1874 72.8031C76.6729 72.3405 76.9271 71.7097 76.9399 70.9316C76.9701 69.071 75.7019 68.3679 75.2247 68.1704ZM72.0667 65.9753C72.2834 65.9625 72.8174 65.9634 73.1182 66.2249C73.2599 66.3483 73.3303 66.5129 73.333 66.7277C73.3358 66.9234 73.2736 67.077 73.1438 67.1958C72.8466 67.4683 72.2825 67.4774 72.0549 67.471L72.0667 65.9753ZM73.7262 71.0934C73.2818 71.471 72.3493 71.3567 72.0585 71.3101L72.0631 69.6955C72.3502 69.658 73.2489 69.5775 73.7006 69.9396C73.867 70.0731 73.952 70.2495 73.9621 70.4799C73.9739 70.7478 73.8962 70.9481 73.7262 71.0934Z" />
<path d="M87.3637 63.5652H84.5888V69.9323C84.5861 69.9917 84.4855 71.3915 83.0345 71.3915C82.5591 71.3915 82.1861 71.258 81.9237 70.9947C81.5122 70.5823 81.5095 69.9807 81.5095 69.9734V63.5652H78.6441V70.2724C78.6423 70.3291 78.6057 71.6777 79.6114 72.7227C80.3538 73.4953 81.4592 73.8893 82.8992 73.8948H82.9303C84.4215 73.8948 85.5717 73.4943 86.347 72.7035C87.3838 71.6457 87.3655 70.287 87.3646 70.2331L87.3637 63.5652Z" />
<path d="M97.1675 66.8265C97.1803 65.9597 96.8878 65.1981 96.3255 64.6258C95.5959 63.8834 94.581 63.6164 93.9328 63.6146L89.6759 63.5643V73.6543H92.5623L92.5641 70.4617L94.6761 73.6543H98.261L95.2539 69.701C95.6937 69.4706 97.1429 68.5828 97.1675 66.8265ZM93.8971 67.5881C93.5461 67.9373 92.9024 67.9638 92.5851 67.9647L92.5925 65.8902C92.8439 65.8866 93.5095 65.9049 93.8834 66.2486C94.0617 66.4114 94.1513 66.6317 94.1513 66.9042C94.1522 67.1903 94.0663 67.4198 93.8971 67.5881Z" />
<path d="M103.838 67.8889L103.828 70.2761L105.848 70.2834C105.749 70.6308 105.369 71.5606 104.123 71.5606C103.41 71.5606 102.838 71.3494 102.422 70.9316C101.791 70.298 101.661 69.3535 101.663 68.6733C101.669 67.2278 102.783 65.8957 104.003 65.8774C104.013 65.8774 104.023 65.8774 104.034 65.8774C105.154 65.8774 105.799 66.8411 106.005 67.4153L106.045 67.5259L108.847 66.2879L108.803 66.1883C108.791 66.1599 107.551 63.3787 104.307 63.3421C102.666 63.3147 101.263 63.8441 100.251 64.847C99.2567 65.8345 98.7328 67.2059 98.7374 68.815C98.7419 70.2953 99.2101 71.503 100.127 72.4045C101.094 73.3554 102.546 73.8957 104.121 73.8957C104.154 73.8957 104.187 73.8957 104.22 73.8948C105.77 73.8729 109.369 73.2548 109.333 68.0196L109.332 67.9108L103.838 67.8889Z" />
<path d="M111.108 73.6534H117.018V71.1611L114.023 71.1638L114.026 69.9122L116.88 69.9213L116.891 67.4363L114.053 67.4281L114.056 66.1673L117.018 66.1508V63.5652H111.108V73.6534Z" />
<path d="M124.991 69.6754C125.453 69.4559 126.968 68.6011 126.992 66.8438C127.004 65.9396 126.706 65.1524 126.131 64.5673C125.435 63.8587 124.506 63.6036 123.868 63.6009L119.394 63.5643V73.6534H122.294V70.3839L124.42 73.6534L128 73.6525L124.991 69.6754ZM123.64 67.5935C123.256 67.9693 122.57 67.9611 122.231 67.9519L122.238 65.8783C122.513 65.8738 123.282 65.8847 123.679 66.2505C123.841 66.4004 123.92 66.5878 123.92 66.8246C123.92 67.1528 123.826 67.4107 123.64 67.5935Z" />
<path d="M45.0386 63.5689L52.7817 73.6964H64.0165L58.2117 63.5689H45.0386Z" />
<path d="M123.813 24.6623L117.186 15.8258C117.186 15.8258 116.656 14.8594 115.856 15.1035C115.408 15.2406 115.342 15.8194 115.338 16.6386C115.335 17.3618 115.165 20.2344 115.125 20.9019L12.0997 0.428273C8.25051 -0.298584 4.99383 -0.453098 3.1424 2.8813C1.32663 6.15353 4.65737 9.64153 5.44823 10.7615L24.299 35.9474H42.7063L34.4695 21.1935L34.4421 21.1506C34.3168 20.9714 33.8953 20.2509 34.1376 19.7974C34.4009 19.3037 35.136 19.4088 35.9333 19.5304L114.117 28.698L112.923 32.8187C112.923 32.8187 112.512 33.8582 113.123 34.1517C113.714 34.436 114.148 34.0539 114.661 33.7476C115.174 33.4422 123.6 27.1208 123.6 27.1208C123.6 27.1208 124.421 26.6116 124.423 25.9972C124.424 25.4843 123.813 24.6623 123.813 24.6623Z" />
<path d="M5.50034 39.8331H0V59.6822H5.50034V39.8331Z" />
<path d="M23.371 51.1547L14.4219 39.8952L14.3717 39.8331H8.86309V59.6822H14.4567V48.0452L23.4057 59.6191L23.4551 59.6822H28.9527V39.8331H23.371V51.1547Z" />
<path d="M53.6256 51.269L44.4206 39.8331H38.9394V59.6822H44.5065V48.0461L53.6594 59.62L53.7088 59.6822H59.1643V39.8331H53.6247L53.6256 51.269Z" />
<path d="M67.1003 47.0623H61.0002V52.4429H67.1003V47.0623Z" />
<path d="M36.9947 47.0623H30.8955V52.4429H36.9947V47.0623Z" />
<path d="M80.0777 39.3494H80.0329C77.0917 39.3494 74.3223 40.4347 72.2341 42.4068C70.133 44.3917 68.9691 47.0367 68.9582 49.8564C68.9371 55.6722 73.8898 60.4228 80 60.4466H80.0421C86.1312 60.4466 91.0958 55.7416 91.1177 49.9387C91.1387 44.1229 86.1861 39.3732 80.0777 39.3494ZM83.8647 53.5547C82.8407 54.5211 81.4839 55.0523 80.0402 55.0523H80.0183C78.5673 55.0468 77.2059 54.5046 76.1838 53.5254C75.1653 52.548 74.6057 51.2525 74.6112 49.8774C74.6167 48.5023 75.1845 47.2104 76.2112 46.2413C77.2343 45.2749 78.592 44.7437 80.0338 44.7437H80.0567C81.5077 44.7483 82.8699 45.2914 83.8912 46.2696C84.9106 47.247 85.4693 48.5426 85.4638 49.9186C85.4592 51.2936 84.8914 52.5846 83.8647 53.5547Z" />
<path d="M113.831 39.8331V44.4978H118.11V59.6712H123.666V44.4978H127.944V39.8331H113.831Z" />
<path d="M105.43 39.8331L105.424 51.5871C105.424 51.6045 105.459 53.3398 104.415 54.437C103.864 55.0157 103.105 55.3202 102.16 55.3412C101.279 55.3622 100.563 55.1026 100.027 54.5741C98.9294 53.4898 98.9349 51.6082 98.9349 51.588L98.9321 39.8331H93.4327L93.4181 52.303C93.4126 52.4347 93.3248 55.5359 95.5538 57.8582C97.0898 59.4582 99.3399 60.2756 102.241 60.2856H102.3C105.77 60.2856 108.282 59.1574 109.765 56.932C110.983 55.1044 111.051 53.1844 111.053 52.8168L111.024 39.834L105.43 39.8331Z" />
</svg>
