<svg width="128" height="44" viewBox="0 0 128 44" fill="none" xmlns="http://www.w3.org/2000/svg">
<path d="M4.15467 9.78667H9.09333V36.3787C9.08859 37.2972 8.89633 38.2051 8.52834 39.0467C8.16035 39.8883 7.62438 40.6459 6.95327 41.2731C6.28215 41.9003 5.49004 42.3838 4.62547 42.694C3.7609 43.0043 2.84209 43.1347 1.92533 43.0773H0V38.4427H1.41333C3.09867 38.4427 4.18667 37.6587 4.18667 35.824V9.78667M4.15467 0H9.09333V4.93866H4.15467V0ZM17.1893 19.9893C17.1141 19.2631 17.1918 18.5292 17.4175 17.8348C17.6432 17.1405 18.0119 16.5011 18.4998 15.958C18.9877 15.4148 19.584 14.9799 20.2502 14.6812C20.9165 14.3826 21.6379 14.2268 22.368 14.224C23.0977 14.2276 23.8185 14.3839 24.4841 14.6828C25.1497 14.9818 25.7453 15.4168 26.2326 15.9599C26.72 16.503 27.0882 17.1421 27.3136 17.8361C27.539 18.5301 27.6165 19.2636 27.5413 19.9893H17.1893ZM32.48 24.0533V19.9893L32.4853 19.5947C32.4727 16.9563 31.419 14.4296 29.5534 12.5639C27.6878 10.6983 25.161 9.64462 22.5227 9.632H22.368C17.6373 9.632 12.2507 12.6453 12.2507 22.2453C12.2507 32.2987 18.0907 34.7093 23.1467 34.7093C24.8201 34.7653 26.4851 34.4483 28.0209 33.7814C29.5568 33.1145 30.925 32.1143 32.0267 30.8533L28.448 27.8453C27.0422 29.3102 25.1174 30.1644 23.088 30.224C22.96 30.2347 22.832 30.2347 22.704 30.2347C21.9371 30.2319 21.1792 30.0697 20.4784 29.7583C19.7775 29.447 19.1491 28.9932 18.633 28.426C18.1169 27.8587 17.7244 27.1904 17.4805 26.4633C17.2366 25.7362 17.1465 24.9664 17.216 24.2027L32.48 24.0533ZM36.3947 2.46933H41.328V9.78667H44.912V13.5467H41.328V27.8453C41.328 29.2 41.872 29.68 43.0773 29.68H44.912V34.3147H42.352C41.5477 34.3689 40.7411 34.2505 39.9863 33.9675C39.2316 33.6844 38.546 33.2432 37.9758 32.6734C37.4055 32.1037 36.9637 31.4185 36.68 30.664C36.3962 29.9095 36.2771 29.103 36.3307 28.2987V13.696H33.8667V9.78667H36.3307L36.3947 2.46933ZM61.3173 19.1467C62.0434 19.0723 62.777 19.1506 63.471 19.3766C64.165 19.6026 64.804 19.9714 65.347 20.4591C65.89 20.9468 66.3249 21.5428 66.6238 22.2086C66.9227 22.8745 67.079 23.5955 67.0827 24.3253C67.0783 25.0547 66.9214 25.7752 66.6222 26.4404C66.3229 27.1056 65.8879 27.7009 65.345 28.188C64.8021 28.6752 64.1633 29.0434 63.4697 29.2691C62.7761 29.4949 62.043 29.573 61.3173 29.4987H53.28V19.1467H61.3173ZM48.0747 34.4373H62.768C65.255 34.4247 67.6366 33.4312 69.3952 31.6725C71.1538 29.9139 72.1474 27.5324 72.16 25.0453L72.1547 24.656C72.272 22.8905 71.78 21.1382 70.7607 19.6918C69.7415 18.2455 68.2568 17.1927 66.5547 16.7093C69.6907 15.6373 71.7653 12.6133 71.6427 9.30134C71.6427 3.88267 68.1493 0.0640004 61.44 0.0640004H48.1013V34.496M60.864 4.69866C61.5574 4.62483 62.2585 4.69722 62.9221 4.91116C63.5858 5.12511 64.1972 5.47585 64.7168 5.94075C65.2365 6.40564 65.6529 6.97434 65.9392 7.61015C66.2254 8.24596 66.3751 8.93474 66.3787 9.632C66.3751 10.3295 66.2253 11.0184 65.9391 11.6545C65.6529 12.2905 65.2366 12.8595 64.7171 13.3248C64.1975 13.7902 63.5862 14.1414 62.9225 14.356C62.2589 14.5706 61.5576 14.6437 60.864 14.5707H53.312V4.69866H60.864ZM74.9813 0H79.92V28.1173C79.92 29.232 80.5547 29.8027 81.7547 29.8027H83.44V34.4373H81.2747C77.6907 34.4373 74.9813 32.9013 74.9813 28.416V0ZM85.52 9.78667H90.4533V24.384C90.4036 25.0541 90.4923 25.7273 90.7139 26.3616C90.9355 26.996 91.2854 27.5779 91.7416 28.0712C92.1979 28.5645 92.7508 28.9586 93.366 29.2289C93.9812 29.4993 94.6454 29.6401 95.3173 29.6427C95.9888 29.6394 96.6525 29.498 97.267 29.2273C97.8815 28.9567 98.4338 28.5625 98.8895 28.0693C99.3452 27.576 99.6946 26.9944 99.9159 26.3604C100.137 25.7264 100.226 25.0537 100.176 24.384V9.78667H105.115V34.3147H100.176V31.696C99.4265 32.6586 98.4622 33.4324 97.3602 33.9557C96.2582 34.4789 95.049 34.737 93.8293 34.7093C91.6488 34.6925 89.5627 33.817 88.0233 32.2726C86.4838 30.7282 85.6151 28.6393 85.6053 26.4587L85.6107 26.192L85.52 9.78667ZM112.699 19.9893C112.622 19.2652 112.699 18.5331 112.925 17.8409C113.151 17.1486 113.52 16.5119 114.009 15.9722C114.498 15.4325 115.095 15.0021 115.762 14.7092C116.428 14.4162 117.149 14.2672 117.877 14.272C120.891 14.272 122.907 16.256 123.056 19.9893H112.699ZM127.995 24.0533V19.9893L128 19.5947C127.987 16.9563 126.934 14.4296 125.068 12.5639C123.202 10.6983 120.676 9.64462 118.037 9.632H117.877C113.152 9.632 107.765 12.6453 107.765 22.2453C107.765 32.2987 113.605 34.7093 118.629 34.7093C120.307 34.7457 121.973 34.408 123.504 33.7208C125.035 33.0335 126.394 32.0139 127.483 30.736L123.899 27.7227C123.163 28.4934 122.276 29.1036 121.293 29.5148C120.31 29.926 119.252 30.1294 118.187 30.112C117.42 30.1092 116.662 29.947 115.961 29.6357C115.26 29.3243 114.632 28.8706 114.116 28.3033C113.6 27.7361 113.207 27.0677 112.963 26.3406C112.719 25.6136 112.629 24.8437 112.699 24.08L127.995 24.0533Z" />
</svg>
