<svg viewBox="0 0 128 95" fill="none" xmlns="http://www.w3.org/2000/svg">
<path fill-rule="evenodd" clip-rule="evenodd" d="M88.0082 58.5383C91.2694 58.5448 94.5305 58.548 97.8108 58.5493L112.766 58.5496C111.998 59.8236 111.391 60.9377 110.684 61.9854C103.913 72.0316 94.8542 79.449 84.1487 84.9413C75.0061 89.632 65.2544 92.3161 55.1276 93.9087C43.9192 95.6712 33.0706 94.4808 22.5444 90.4191C14.771 87.4197 8.3428 82.6634 4.16834 75.2481C1.70545 70.8729 0.473456 66.1337 0 60.843C0.616471 62.1187 1.05991 63.1354 1.58511 64.1079C6.43974 73.0961 14.0541 78.4293 23.845 80.8596C30.3767 82.4807 37.0062 82.3677 43.6249 81.7507C51.62 81.0055 59.3534 79.1121 66.6918 75.7828C74.8991 72.0594 81.8511 66.7957 86.8387 59.1646C87.134 58.7129 87.4636 58.5372 88.0082 58.5383ZM59.4006 28.0334C66.8183 30.1159 69.7925 36.4496 66.8114 43.5562C64.2723 49.6091 57.8987 53.7204 51.3558 53.5298C50.2576 53.4979 49.2681 53.2554 48.8269 52.103C48.5649 51.4188 48.2608 51.9235 48.0364 52.0617C46.2473 53.1638 44.3208 53.6274 42.2166 53.5404C38.6036 53.3912 36.2 50.7097 36.5455 47.125C37.0796 41.5857 42.0761 35.829 47.5342 34.7045C50.122 34.1712 52.7582 34.0656 54.7191 36.804C54.9196 34.6873 56.2903 34.8776 57.6962 34.837C58.6609 34.8092 59.7871 34.8092 60.7586 34.8092C60.5852 35.3364 60.3747 35.7906 60.1943 36.2066C58.577 39.9391 56.9357 43.6611 55.3082 47.3892C55.1009 47.8636 54.9216 48.351 54.7492 48.8396C54.4489 49.69 54.8888 49.9431 55.6431 49.8852C55.8762 49.8674 56.1159 49.7884 56.3298 49.6888C60.4913 47.7532 63.3512 44.7192 64.1311 40.0769C64.6988 36.6969 63.2308 33.82 60.2285 32.155C57.4355 30.6058 54.3772 30.3767 51.2754 30.5512C45.893 30.8537 41.1107 32.5973 37.4448 36.7183C34.8063 39.6844 33.0684 43.1283 32.8293 47.1451C32.6119 50.795 34.3332 54.6362 38.6914 56.3969C42.657 57.999 46.7941 58.104 50.9535 57.7004C54.8704 57.3203 58.5826 56.1098 61.6401 53.4803C61.7703 53.3682 62.0016 53.243 62.0016 53.243C62.0016 53.243 62.1943 53.2353 62.3566 53.233L62.4691 53.2324C62.7 53.2341 62.9308 53.2352 63.1639 53.236L66.2142 53.2357C64.2211 55.8731 61.8481 57.5636 59.1246 58.7839C54.4607 60.8733 49.5422 61.4217 44.4949 61.0803C41.6563 60.8881 38.8817 60.4 36.2363 59.2777C30.8452 56.9908 28.4929 52.2488 29.2428 46.8053C30.5691 37.1815 36.3284 31.1738 45.4535 28.3572C50.0255 26.9459 54.7486 26.7275 59.4006 28.0334ZM23.2222 23.2309C23.8468 23.2609 24.4723 23.2732 25.0982 23.2765L28.8557 23.2603C30.141 23.2665 30.4078 23.5894 30.1502 24.8815C29.0823 30.2345 28.0042 35.5856 26.9239 40.936C26.5454 42.8104 26.2561 44.7113 25.742 46.5485C24.0124 52.731 18.9927 56.381 12.3513 56.391C8.14956 56.2806 4.46594 55.1935 2.26001 51.1824C1.79457 50.3363 1.72693 49.8461 2.73877 49.3511C4.24008 48.6165 5.6595 47.7122 7.10065 46.8578C7.87887 46.3963 8.45365 46.545 8.85716 47.3452C9.81494 49.2446 11.4151 49.8538 13.4346 49.6568C15.3562 49.4693 16.5927 48.4057 17.2266 46.6382C18.2149 43.8822 18.546 40.9714 19.137 38.1236C20.0848 33.5537 20.9795 28.9727 21.8585 24.3891C22.0164 23.5657 22.2807 23.1856 23.2222 23.2309ZM122.111 22.9733C124.281 23.5443 126.09 24.7644 127.654 26.3799C128.153 26.8953 128.1 27.1515 127.576 27.5895C126.137 28.7935 124.749 30.0582 123.341 31.2993L123.152 31.4758C122.934 31.6761 122.713 31.8121 122.388 31.4192C119.071 27.4182 112.548 28.5845 109.259 32.3993C106.306 35.8247 105.133 39.837 105.837 44.3018C106.437 48.1064 109.92 50.1103 114.138 49.2415C115.966 48.865 117.614 48.1005 119.124 47.0118C120.3 46.1633 120.554 46.2153 121.449 47.4009C122.147 48.3251 122.809 49.2791 123.553 50.1647C124 50.6978 124.051 50.9977 123.454 51.4895C119.834 54.4694 115.702 56.0116 110.814 56.0724C106.998 55.9413 103.266 55.0351 100.324 52.0462C97.9059 49.5902 96.9393 46.5173 97.028 43.1975C97.2145 36.2202 99.899 30.3704 105.665 26.2517C110.607 22.7214 116.109 21.3946 122.111 22.9733ZM76.6186 23.2255L76.9128 23.23C78.7061 23.3292 80.5088 23.2513 82.3077 23.2592C83.6172 23.2649 83.8925 23.5868 83.6409 24.8526C82.1089 32.5603 80.5857 40.2699 79.0118 47.9692C78.8123 48.9452 78.907 49.2905 80.0142 49.2719C83.7706 49.2091 87.5288 49.2454 91.2861 49.249C92.7546 49.2505 93.0474 49.6111 92.7633 51.0532C92.5165 52.3057 92.2343 53.552 92.0197 54.81C91.8993 55.5155 91.6054 55.7765 90.8466 55.7665C87.4895 55.7204 84.1314 55.7464 80.7738 55.7464C77.4561 55.7464 74.1382 55.7507 70.8205 55.7443C69.4395 55.7416 69.198 55.4394 69.4625 54.1043C71.4155 44.2473 73.381 34.3928 75.3032 24.5296C75.4579 23.7361 75.7252 23.3434 76.362 23.2477L76.6186 23.2255ZM49.4511 37.6654C48.5877 37.6708 47.7887 37.8976 47.0626 38.3306C43.6673 40.3554 42.096 43.5187 41.7662 47.3085C41.5788 49.4612 43.1957 50.6641 45.3455 50.2419C48.7753 49.5679 52.49 44.6552 52.5269 40.7442C52.5465 38.6877 51.501 37.653 49.4511 37.6654ZM97.8668 5.0546C104.005 8.02192 109.22 12.1699 113.376 17.6027C113.837 18.206 114.257 18.8412 114.764 19.5862L115.163 20.1668H99.0728C96.1947 20.1668 93.3166 20.1503 90.4389 20.1798C89.8171 20.1862 89.4447 20.0191 89.0869 19.47C84.7467 12.8128 78.4067 9.222 70.7716 7.70017C62.017 5.9552 53.358 6.93064 44.7474 8.77136C39.3169 9.93218 34.0225 11.5658 28.8213 13.5054C28.6051 13.586 28.405 13.7636 27.9779 13.5559C29.438 12.8243 30.7909 12.1325 32.1556 11.465C41.8739 6.7117 51.9299 2.93505 62.6377 1.10723C74.7525 -0.960571 86.5969 -0.393809 97.8668 5.0546Z" />
</svg>
