<svg version="1.0" xmlns="http://www.w3.org/2000/svg" viewBox="0 0 500.000000 500.000000"
 preserveAspectRatio="xMidYMid meet">
<g transform="translate(0.000000,500.000000) scale(0.100000,-0.100000)"
fill="currentColor" stroke="none">
<path d="M2339 4997 c-2 -3 -40 -7 -85 -11 -373 -29 -798 -180 -1134 -404
-285 -190 -514 -418 -702 -702 -208 -314 -340 -665 -399 -1065 -19 -129 -17
-519 4 -658 81 -537 307 -1003 669 -1382 389 -407 881 -663 1445 -750 147 -23
424 -30 583 -16 587 54 1102 290 1524 701 408 397 649 876 737 1465 18 116 18
540 1 650 -65 411 -192 748 -397 1055 -400 599 -1009 983 -1737 1096 -92 14
-497 31 -509 21z m744 -707 c162 -26 266 -128 302 -294 11 -49 13 -273 13
-1116 0 -580 -4 -1102 -9 -1160 -44 -525 -276 -820 -717 -910 -329 -67 -705
-11 -934 139 -142 93 -207 180 -226 306 -34 214 66 393 244 440 119 31 184 17
337 -74 127 -75 172 -91 256 -91 122 0 196 56 234 175 35 109 37 184 37 1212
0 1104 0 1106 55 1198 42 72 73 103 138 135 95 46 167 57 270 40z"/>
</g>
</svg>
