<svg width="128" height="64" viewBox="0 0 128 64" fill="none" xmlns="http://www.w3.org/2000/svg">
<path d="M72.7636 29.8203C72.2635 29.8203 71.7747 29.9686 71.3589 30.2464C70.9431 30.5242 70.619 30.9191 70.4277 31.3811C70.2363 31.8431 70.1862 32.3515 70.2838 32.842C70.3814 33.3324 70.6222 33.783 70.9758 34.1366C71.3294 34.4902 71.7799 34.731 72.2704 34.8285C72.7608 34.9261 73.2692 34.876 73.7312 34.6847C74.1932 34.4933 74.5881 34.1692 74.8659 33.7534C75.1437 33.3376 75.292 32.8488 75.292 32.3487C75.292 32.0167 75.2266 31.6879 75.0996 31.3811C74.9725 31.0744 74.7863 30.7956 74.5515 30.5609C74.3167 30.3261 74.038 30.1398 73.7312 30.0128C73.4244 29.8857 73.0957 29.8203 72.7636 29.8203Z" />
<path d="M55.3028 26.2049C55.3767 26.0178 55.4207 25.8201 55.4329 25.6192C55.4356 25.439 55.4004 25.2603 55.3297 25.0946C55.259 24.9289 55.1544 24.7798 55.0225 24.657C54.8906 24.5343 54.7344 24.4405 54.564 24.3819C54.3937 24.3232 54.2129 24.301 54.0334 24.3165C53.7442 24.3042 53.4602 24.396 53.2331 24.5753C53.0059 24.7546 52.8506 25.0095 52.7955 25.2937L49.9315 34.0504L46.6436 25.2278C46.5623 24.9629 46.3982 24.731 46.1754 24.5663C45.9526 24.4015 45.6828 24.3126 45.4057 24.3126C45.1286 24.3126 44.8588 24.4015 44.636 24.5663C44.4131 24.731 44.2491 24.9629 44.1678 25.2278L40.9125 34.0499L38.0496 25.2931C37.9947 25.009 37.8396 24.7541 37.6124 24.5747C37.3853 24.3954 37.1014 24.3036 36.8123 24.316C36.6327 24.3005 36.452 24.3227 36.2816 24.3814C36.1112 24.44 35.955 24.5337 35.8231 24.6565C35.6913 24.7793 35.5866 24.9283 35.5159 25.0941C35.4452 25.2598 35.41 25.4385 35.4127 25.6187C35.4248 25.8196 35.4687 26.0173 35.5428 26.2044L39.5461 38.0864C39.617 38.361 39.7843 38.6009 40.0174 38.7623C40.2506 38.9238 40.5341 38.9959 40.8161 38.9655C41.1037 38.9803 41.388 38.8986 41.6239 38.7334C41.8598 38.5682 42.0338 38.329 42.1182 38.0537L45.4062 29.0368L48.7248 38.0542C48.8082 38.3303 48.982 38.5703 49.2182 38.7356C49.4545 38.901 49.7395 38.9822 50.0274 38.966C50.3086 38.9887 50.589 38.9132 50.8208 38.7524C51.0526 38.5917 51.2216 38.3556 51.299 38.0843L55.3023 26.2023L55.3028 26.2049ZM25.4518 36.2491L20.7142 31.5404L25.4518 26.8318C25.7387 26.5449 25.9 26.1558 25.9 25.75C25.9001 25.3443 25.7389 24.9551 25.4521 24.6682C25.1652 24.3812 24.7761 24.22 24.3703 24.2199C23.9645 24.2199 23.5754 24.381 23.2884 24.6679L17.5242 30.4321C17.2351 30.7286 17.0733 31.1263 17.0733 31.5404C17.0733 31.9545 17.2351 32.3522 17.5242 32.6487L23.2884 38.4124C23.4305 38.5545 23.5991 38.6672 23.7847 38.744C23.9703 38.8209 24.1692 38.8605 24.3701 38.8605C24.571 38.8605 24.7699 38.8209 24.9555 38.744C25.1411 38.6672 25.3097 38.5545 25.4518 38.4124C25.5938 38.2704 25.7065 38.1017 25.7834 37.9161C25.8603 37.7305 25.8998 37.5316 25.8998 37.3307C25.8998 37.1299 25.8603 36.9309 25.7834 36.7453C25.7065 36.5597 25.5938 36.3911 25.4518 36.2491ZM16.3474 37.3257V25.7372C16.3474 25.3314 16.1862 24.9423 15.8993 24.6554C15.6124 24.3684 15.2232 24.2072 14.8175 24.2072C14.4117 24.2072 14.0225 24.3684 13.7356 24.6554C13.4487 24.9423 13.2875 25.3314 13.2875 25.7372V37.3257C13.2875 37.7315 13.4487 38.1207 13.7356 38.4076C14.0225 38.6945 14.4117 38.8557 14.8175 38.8557C15.2232 38.8557 15.6124 38.6945 15.8993 38.4076C16.1862 38.1207 16.3474 37.7315 16.3474 37.3257ZM29.2992 25.8468V37.4353C29.2992 37.8411 29.4604 38.2304 29.7474 38.5173C30.0344 38.8043 30.4236 38.9655 30.8294 38.9655C31.2352 38.9655 31.6245 38.8043 31.9114 38.5173C32.1984 38.2304 32.3596 37.8411 32.3596 37.4353V25.8468C32.3596 25.4409 32.1984 25.0517 31.9114 24.7647C31.6245 24.4778 31.2352 24.3165 30.8294 24.3165C30.4236 24.3165 30.0344 24.4778 29.7474 24.7647C29.4604 25.0517 29.2992 25.4409 29.2992 25.8468ZM58.5381 25.8468V37.4353C58.5381 37.8411 58.6994 38.2304 58.9863 38.5173C59.2733 38.8043 59.6625 38.9655 60.0684 38.9655C60.4742 38.9655 60.8634 38.8043 61.1504 38.5173C61.4374 38.2304 61.5986 37.8411 61.5986 37.4353V25.8468C61.5986 25.4409 61.4374 25.0517 61.1504 24.7647C60.8634 24.4778 60.4742 24.3165 60.0684 24.3165C59.6625 24.3165 59.2733 24.4778 58.9863 24.7647C58.6994 25.0517 58.5381 25.4409 58.5381 25.8468ZM58.5381 25.8468V37.4353C58.5381 37.8411 58.6994 38.2304 58.9863 38.5173C59.2733 38.8043 59.6625 38.9655 60.0684 38.9655C60.4742 38.9655 60.8634 38.8043 61.1504 38.5173C61.4374 38.2304 61.5986 37.8411 61.5986 37.4353V25.8468C61.5986 25.4409 61.4374 25.0517 61.1504 24.7647C60.8634 24.4778 60.4742 24.3165 60.0684 24.3165C59.6625 24.3165 59.2733 24.4778 58.9863 24.7647C58.6994 25.0517 58.5381 25.4409 58.5381 25.8468ZM58.5381 25.8468V37.4353C58.5381 37.8411 58.6994 38.2304 58.9863 38.5173C59.2733 38.8043 59.6625 38.9655 60.0684 38.9655C60.4742 38.9655 60.8634 38.8043 61.1504 38.5173C61.4374 38.2304 61.5986 37.8411 61.5986 37.4353V25.8468C61.5986 25.4409 61.4374 25.0517 61.1504 24.7647C60.8634 24.4778 60.4742 24.3165 60.0684 24.3165C59.6625 24.3165 59.2733 24.4778 58.9863 24.7647C58.6994 25.0517 58.5381 25.4409 58.5381 25.8468ZM58.5381 25.8468V37.4353C58.5381 37.8411 58.6994 38.2304 58.9863 38.5173C59.2733 38.8043 59.6625 38.9655 60.0684 38.9655C60.4742 38.9655 60.8634 38.8043 61.1504 38.5173C61.4374 38.2304 61.5986 37.8411 61.5986 37.4353V25.8468C61.5986 25.4409 61.4374 25.0517 61.1504 24.7647C60.8634 24.4778 60.4742 24.3165 60.0684 24.3165C59.6625 24.3165 59.2733 24.4778 58.9863 24.7647C58.6994 25.0517 58.5381 25.4409 58.5381 25.8468Z" />
<path d="M69.0932 45.0507C68.6999 44.7588 68.2229 44.6016 67.7331 44.6024C67.3737 44.603 67.0195 44.6876 66.6986 44.8494C66.3778 45.0113 66.0992 45.246 65.8853 45.5348C62.803 49.6 58.7693 52.8458 54.1387 54.9868C48.9594 57.4045 43.3092 58.6457 37.5934 58.6214C28.6987 58.6214 20.3571 55.7612 14.105 50.5663C11.2115 48.2101 8.83208 45.2854 7.11398 41.9729C5.45517 38.7688 4.58941 35.2134 4.58941 31.6054C4.58941 27.9973 5.45517 24.4419 7.11398 21.2378C9.57602 16.4033 13.6805 12.2736 18.9843 9.30216C24.686 6.16655 31.096 4.54402 37.6029 4.58931C43.3282 4.56626 48.9873 5.81355 54.1724 8.24128C58.8113 10.3911 62.8488 13.6513 65.9274 17.7334C66.1412 18.0235 66.4201 18.2595 66.7417 18.4224C67.0632 18.5852 67.4185 18.6704 67.779 18.671C68.2029 18.6707 68.6185 18.5529 68.9795 18.3308C69.3406 18.1086 69.633 17.7907 69.8244 17.4124C70.0158 17.0341 70.0985 16.6102 70.0636 16.1877C70.0286 15.7652 69.8772 15.3607 69.6263 15.019C66.0982 10.327 61.4686 6.57626 56.1467 4.09838C50.3444 1.37828 44.0111 -0.0213606 37.6029 0.00024641C27.6399 0.00024641 18.2527 3.23924 11.1705 9.11305C7.79745 11.8685 5.02515 15.2862 3.0248 19.1551C1.03718 23.0043 0 27.2735 0 31.6056C0 35.9378 1.03718 40.2069 3.0248 44.0562C5.90403 49.703 10.6469 54.4943 16.7393 57.9098C23.1271 61.4294 30.3098 63.2543 37.6029 63.2105C43.9961 63.232 50.3148 61.8393 56.1067 59.1324C61.4191 56.6653 66.0448 52.932 69.5778 48.2602C69.9384 47.7701 70.09 47.157 69.9992 46.5554C69.9085 45.9537 69.5823 45.4126 69.0932 45.0507Z" />
<path d="M89.607 27.0291C90.6879 27.0275 91.7321 27.4209 92.5431 28.1353C92.8077 28.332 93.1269 28.4414 93.4565 28.4482C93.6302 28.4508 93.8026 28.4181 93.9633 28.3522C94.124 28.2863 94.2696 28.1885 94.3915 28.0647C94.5133 27.941 94.6088 27.7938 94.6722 27.6321C94.7356 27.4704 94.7655 27.2975 94.7602 27.1239C94.7571 26.9425 94.7168 26.7637 94.6418 26.5986C94.5667 26.4334 94.4586 26.2854 94.3241 26.1637C93.0518 24.9631 91.3563 24.3144 89.6076 24.359C85.3856 24.359 82.4374 27.3494 82.4374 31.6319C82.4374 35.9144 85.3872 38.9053 89.6076 38.9053C91.3529 38.9511 93.0455 38.3048 94.3162 37.1075C94.4525 36.9853 94.5623 36.8364 94.6388 36.67C94.7153 36.5037 94.7568 36.3234 94.7608 36.1403C94.7661 35.9667 94.7362 35.7938 94.6729 35.632C94.6095 35.4702 94.514 35.323 94.3922 35.1992C94.2703 35.0754 94.1246 34.9775 93.9639 34.9116C93.8032 34.8457 93.6308 34.813 93.4571 34.8156C93.1185 34.8252 92.7915 34.9403 92.5216 35.1448C91.7138 35.8484 90.6788 36.2361 89.6076 36.2362C87.0792 36.2362 85.3124 34.3431 85.3124 31.6324C85.3124 28.9217 87.0781 27.0291 89.607 27.0291ZM103.853 36.3084C101 36.3084 99.5079 33.9559 99.5079 31.6329C99.5079 28.5635 101.694 26.958 103.853 26.958C106.706 26.958 108.199 29.3099 108.199 31.6329C108.199 34.7023 106.013 36.3084 103.853 36.3084ZM103.853 24.3601C102.895 24.3424 101.945 24.5189 101.058 24.879C100.171 25.239 99.3662 25.7751 98.6923 26.4549C98.0183 27.1346 97.4891 27.9439 97.1367 28.8339C96.7843 29.7239 96.6159 30.6761 96.6418 31.6329C96.6418 32.5798 96.8283 33.5175 97.1907 34.3923C97.5531 35.2672 98.0842 36.0621 98.7538 36.7317C99.4233 37.4012 100.218 37.9324 101.093 38.2948C101.968 38.6571 102.906 38.8436 103.853 38.8436C104.799 38.8436 105.737 38.6571 106.612 38.2948C107.487 37.9324 108.282 37.4012 108.951 36.7317C109.621 36.0621 110.152 35.2672 110.514 34.3923C110.877 33.5175 111.063 32.5798 111.063 31.6329C111.089 30.6761 110.921 29.7239 110.568 28.8339C110.216 27.9439 109.687 27.1346 109.013 26.4549C108.339 25.7751 107.534 25.239 106.647 24.879C105.76 24.5189 104.81 24.3424 103.853 24.3601ZM126.631 24.4417C126.365 24.4464 126.106 24.528 125.884 24.6768C125.663 24.8256 125.49 25.0352 125.386 25.2803L120.929 34.6117L120.89 34.5295L116.423 25.2613C116.318 25.0165 116.142 24.8082 115.919 24.6625C115.695 24.5167 115.434 24.44 115.167 24.4417C114.99 24.4397 114.814 24.4732 114.65 24.5401C114.486 24.6069 114.337 24.7059 114.212 24.8312C114.087 24.9565 113.988 25.1055 113.921 25.2695C113.854 25.4336 113.82 25.6094 113.822 25.7865V37.4577C113.822 37.6357 113.857 37.812 113.926 37.9764C113.994 38.1408 114.093 38.2903 114.219 38.4161C114.345 38.542 114.495 38.6418 114.659 38.7099C114.823 38.778 115 38.8131 115.178 38.8131C115.356 38.8131 115.532 38.778 115.696 38.7099C115.861 38.6418 116.01 38.542 116.136 38.4161C116.262 38.2903 116.362 38.1408 116.43 37.9764C116.498 37.812 116.533 37.6357 116.533 37.4577V31.2568L119.749 38.073C119.845 38.3042 120.01 38.5002 120.222 38.6344C120.433 38.7686 120.681 38.8345 120.931 38.8231C121.181 38.827 121.426 38.7573 121.637 38.6227C121.847 38.4881 122.013 38.2945 122.114 38.0661L125.287 31.2579V37.4783C125.287 37.8378 125.43 38.1825 125.684 38.4367C125.938 38.6908 126.283 38.8336 126.642 38.8336C127.002 38.8336 127.347 38.6908 127.601 38.4367C127.855 38.1825 127.998 37.8378 127.998 37.4783V25.8081C128.009 25.6259 127.981 25.4434 127.916 25.2728C127.851 25.1021 127.75 24.9472 127.621 24.8181C127.492 24.689 127.337 24.5887 127.167 24.5238C126.996 24.459 126.814 24.431 126.631 24.4417Z" />
</svg>
