<svg width="128" height="196" viewBox="0 0 128 196" fill="none" xmlns="http://www.w3.org/2000/svg">
<g opacity="0.933">
<path fill-rule="evenodd" clip-rule="evenodd" d="M52.638 0C62.2076 0.7969 64.5752 5.29439 59.7392 13.4923C51.2277 15.8617 47.6771 12.7846 49.0874 4.26074C50.0787 2.56979 51.2618 1.14955 52.638 0Z" fill="black"/>
<path fill-rule="evenodd" clip-rule="evenodd" d="M0.0889651 22.7239C8.13749 22.7239 16.1846 22.7239 24.2331 22.7239C23.5784 65.8639 24.2885 108.944 26.3635 151.966C32.9634 168.472 45.2712 176.521 63.2899 176.11C83.2628 176.569 96.5179 167.575 103.057 149.126C103.53 107.466 104.004 65.8042 104.477 24.1442C112.156 22.762 119.968 22.2885 127.911 22.7239C128.148 66.28 127.911 109.835 127.201 153.387C121.757 173.98 108.738 186.999 88.1442 192.443C66.6133 198.036 45.7825 196.143 25.6534 186.762C11.0888 177.755 2.80305 164.736 0.799088 147.706C0.088965 106.048 -0.148216 64.3868 0.0889651 22.7239Z" fill="black"/>
<path fill-rule="evenodd" clip-rule="evenodd" d="M72.5215 24.1442C84.1078 23.1825 89.0787 28.3907 87.434 39.7669C83.1548 46.9178 77.2367 48.5752 69.681 44.7377C64.1193 37.0215 65.0666 30.1575 72.5215 24.1442Z" fill="black"/>
<path fill-rule="evenodd" clip-rule="evenodd" d="M52.6381 56.8098C70.4011 56.3923 76.3192 64.4394 70.3911 80.954C61.5089 90.2907 52.9874 89.8177 44.8267 79.5337C41.634 69.9357 44.2387 62.3616 52.6381 56.8098Z" fill="black"/>
<path fill-rule="evenodd" clip-rule="evenodd" d="M34.1748 102.258C53.5853 102.258 72.9944 102.258 92.4049 102.258C92.6407 113.63 92.4049 124.992 91.6948 136.344C89.5161 158.391 77.444 167.623 55.4785 164.038C43.5683 160.65 36.7029 152.838 34.885 140.604C34.1748 127.831 33.9391 115.048 34.1748 102.258Z" fill="black"/>
</g>
</svg>
