<svg version="1.0" xmlns="http://www.w3.org/2000/svg" viewBox="0 0 162.000000 120.000000" fill="currentColor">
<g transform="translate(0.000000,120.000000) scale(0.100000,-0.100000)"
fill="#000000" stroke="none">
<path d="M795 1185 c-106 -19 -218 -56 -318 -106 -102 -50 -126 -71 -35 -30
122 56 218 76 363 75 115 0 139 -3 208 -27 88 -31 146 -64 198 -113 l35 -35
150 3 149 3 -60 60 c-72 72 -173 127 -282 156 -102 27 -298 34 -408 14z"/>
<path d="M583 890 c-71 -37 -128 -121 -158 -237 -19 -72 -19 -107 0 -147 30
-63 111 -84 183 -47 45 23 73 53 101 108 31 62 28 73 -19 73 -37 0 -40 -2 -60
-46 -24 -55 -45 -73 -83 -74 -60 0 -58 97 3 226 31 63 61 88 101 82 22 -3 24
-8 24 -55 l-1 -53 42 0 c46 0 54 11 54 82 0 87 -98 133 -187 88z"/>
<path d="M995 898 c-69 -25 -124 -93 -125 -152 0 -21 73 -96 94 -96 22 0 66
-40 66 -59 0 -10 -9 -30 -21 -45 -16 -20 -29 -26 -59 -26 -46 0 -62 20 -50 62
9 28 8 28 -35 28 -48 0 -55 -9 -55 -66 0 -46 14 -70 50 -89 104 -54 260 35
260 148 0 45 -30 82 -93 114 -29 14 -55 30 -59 36 -16 26 25 77 62 77 34 0 54
-22 45 -50 -6 -18 -2 -20 39 -20 l46 0 0 48 c0 38 -5 53 -24 71 -29 27 -96 36
-141 19z"/>
<path d="M1383 890 c-24 -12 -55 -36 -70 -54 -60 -71 -112 -229 -99 -300 10
-50 65 -96 117 -96 45 0 103 26 136 62 12 12 33 48 47 78 l26 55 -36 3 c-49 5
-61 -2 -69 -37 -15 -70 -103 -109 -127 -56 -8 19 -8 39 1 82 29 129 82 208
137 201 28 -3 29 -5 29 -55 l-1 -53 42 0 c46 0 54 11 54 82 0 87 -98 133 -187
88z"/>
<path d="M106 688 c-32 -117 -61 -219 -63 -225 -4 -10 29 -13 145 -13 l150 0
11 31 c6 18 11 34 11 35 0 2 -47 4 -105 4 -58 0 -105 1 -105 3 0 1 22 83 50
182 27 99 50 183 50 188 0 4 -19 7 -43 7 l-43 0 -58 -212z"/>
<path d="M1124 332 c-162 -152 -367 -232 -596 -232 -170 0 -291 40 -388 127
-28 25 -64 69 -81 97 -36 64 -37 53 -2 -22 35 -77 138 -177 223 -219 291 -142
695 -96 1005 116 59 40 205 177 205 193 0 4 -66 8 -147 8 l-148 -1 -71 -67z"/>
</g>
</svg>
