<svg width="128" height="129" viewBox="0 0 128 129" fill="none" xmlns="http://www.w3.org/2000/svg">
<path d="M63.5525 0.00230996C28.3463 0.300668 -0.296048 29.2413 0.00230996 64.4475C0.00230996 79.0671 5.07439 92.4931 13.13 102.936L14.0251 95.7751C8.35632 86.526 4.77603 75.7851 4.77603 64.1492C4.47767 31.3299 31.0315 4.77603 63.5525 4.47767C96.0734 4.17932 122.926 30.7331 123.224 63.5525C123.522 96.3718 96.9685 122.926 64.4475 123.224C55.7952 123.224 47.4412 121.434 39.9822 118.152H29.8381C39.9822 124.417 51.6182 128.296 64.4475 127.998C99.6537 127.699 128.296 98.7587 127.998 63.5525C127.699 28.3463 99.057 -0.296048 63.5525 0.00230996Z" fill="black"/>
<path d="M45.651 13.4284C35.8052 14.6218 34.3134 23.5726 34.3134 23.5726L27.7496 78.7687H54.3034L61.7623 13.4284C52.8116 13.4284 45.651 13.4284 45.651 13.4284Z" fill="black"/>
<path d="M94.5816 105.621C94.5816 105.621 103.532 105.024 105.919 95.4767C105.919 95.4767 106.814 88.3161 107.709 79.0671H54.6017L51.6182 105.621H94.5816Z" fill="black"/>
<path d="M17.6054 112.185H44.1592L47.4412 85.6309H20.589L17.6054 112.185Z" fill="black"/>
</svg>
