<svg viewBox="0 0 128 59" fill="none" xmlns="http://www.w3.org/2000/svg">
<path fill-rule="evenodd" clip-rule="evenodd" d="M120.523 31.6054C120.523 32.4161 119.925 32.4694 119.253 32.4694H118.315V30.8374H119.381C119.925 30.8374 120.523 30.9547 120.523 31.6054Z" />
<path fill-rule="evenodd" clip-rule="evenodd" d="M119.264 36.608C121.301 36.608 122.912 34.9866 122.912 32.7786C122.912 31.8083 122.527 30.8777 121.84 30.1916C121.154 29.5054 120.224 29.12 119.253 29.12C118.283 29.12 117.352 29.5054 116.666 30.1916C115.98 30.8777 115.595 31.8083 115.595 32.7786C115.595 34.9866 117.195 36.608 119.264 36.608ZM117.525 35.4346H118.315V33.1413H119.221L120.597 35.424H121.472L120 33.1093C120.757 33.0133 121.333 32.608 121.333 31.6586C121.333 30.624 120.725 30.1653 119.509 30.1653H117.525V35.4346Z" />
<path fill-rule="evenodd" clip-rule="evenodd" d="M42.8373 34.2401H37.696V45.7601H42.8373V34.2401Z" />
<path fill-rule="evenodd" clip-rule="evenodd" d="M30.9547 14.1333L64 0L97.0667 14.1333H117.675V19.904H128V58.6667H0V19.904H10.3253V14.144H30.9547V14.1333ZM94.528 24.448H99.4347L98.5813 30.72H94.528V24.448ZM119.275 28.224C118.673 28.2169 118.076 28.3296 117.518 28.5556C116.961 28.7816 116.454 29.1163 116.027 29.5403C115.6 29.9642 115.262 30.4689 115.032 31.0249C114.802 31.5809 114.685 32.177 114.688 32.7787C114.688 35.424 116.779 37.3653 119.275 37.3653C121.728 37.3653 123.829 35.424 123.829 32.7787C123.832 32.1788 123.716 31.5844 123.487 31.0298C123.259 30.4753 122.922 29.9716 122.498 29.5479C122.073 29.1243 121.569 28.7891 121.014 28.5619C120.459 28.3346 119.864 28.2198 119.264 28.224H119.275ZM20.416 45.8027H29.472V50.8907H14.5707V24.4267H20.416V45.8027ZM79.3173 50.8907H93.2373V45.792H85.1947V42.4853H93.2373V37.5787H85.1947V34.24H93.2373V29.12H79.3173V50.8907ZM48.704 48.1173C48.704 48.4824 48.6319 48.8439 48.4919 49.1811C48.3518 49.5183 48.1466 49.8245 47.8879 50.0822C47.6293 50.3398 47.3223 50.5439 46.9846 50.6826C46.6469 50.8214 46.2851 50.8921 45.92 50.8907H34.6133C33.8778 50.8907 33.1724 50.5985 32.6523 50.0784C32.1322 49.5583 31.84 48.8529 31.84 48.1173V31.8933C31.84 31.1578 32.1322 30.4524 32.6523 29.9323C33.1724 29.4122 33.8778 29.12 34.6133 29.12H45.92C46.6555 29.12 47.3609 29.4122 47.881 29.9323C48.4011 30.4524 48.6933 31.1578 48.6933 31.8933V48.1067L48.704 48.1173ZM70.1013 45.8027H66.5813V29.12H61.4293V45.8027H57.8987V29.12H52.032V48.1067C52.032 49.6427 53.28 50.88 54.816 50.88H61.7493C62.9227 50.88 64 50.08 64 48.9173C64 50.0907 65.088 50.8907 66.2507 50.8907H73.184C73.5491 50.8907 73.9106 50.8186 74.2478 50.6786C74.585 50.5385 74.8912 50.3333 75.1488 50.0746C75.4065 49.8159 75.6106 49.509 75.7493 49.1713C75.888 48.8335 75.9587 48.4718 75.9573 48.1067V29.12H70.1013V45.8027ZM113.781 42.6667C114.194 43.509 114.399 44.4381 114.379 45.376C114.329 46.354 114.083 47.312 113.656 48.1933C113.229 49.0746 112.63 49.8613 111.893 50.5067C110.859 51.3493 109.269 51.7653 107.168 51.7653C103.296 51.7653 98.9547 50.3253 98.9013 50.3147L98.8267 50.2933V45.0773L98.976 45.1307C99.0187 45.152 103.52 46.8267 105.728 47.136H105.792C105.941 47.1573 106.112 47.168 106.261 47.168C107.413 47.168 108.331 46.6347 108.533 45.8347C108.736 45.0667 108.256 44.2027 107.307 43.6373C106.467 43.1626 105.602 42.7353 104.715 42.3573C102.624 41.3973 100.469 40.4373 99.1253 38.0907C98.612 37.0596 98.3719 35.914 98.4279 34.7636C98.4839 33.6131 98.8342 32.4963 99.4453 31.52C100.907 29.3973 103.157 28.32 106.133 28.32C106.485 28.32 106.859 28.3307 107.221 28.3627C110.453 28.832 113.653 30.8373 113.685 30.8587L113.728 30.8907V35.6373L113.589 35.584C113.568 35.5733 112.096 34.944 110.389 34.2507C109.215 33.7366 107.958 33.4368 106.677 33.3653C105.824 33.3653 105.184 33.5787 104.757 34.0053C104.581 34.1629 104.446 34.3605 104.362 34.5814C104.279 34.8023 104.25 35.0401 104.277 35.2747C104.501 36.544 106.507 37.3333 107.168 37.5893L107.296 37.6427C110.635 38.976 112.715 40.5227 113.643 42.3787L113.675 42.4533L113.749 42.592L113.781 42.6667Z" />
</svg>
