<svg width="128" height="128" viewBox="0 0 128 128" fill="none" xmlns="http://www.w3.org/2000/svg">
<path d="M64 122.311C52.4672 122.311 41.1933 118.891 31.6041 112.484C22.0149 106.077 14.541 96.9696 10.1276 86.3147C5.71416 75.6597 4.5594 63.9353 6.80935 52.6241C9.05929 41.3128 14.6129 30.9228 22.7678 22.7678C30.9228 14.6129 41.3128 9.05927 52.6241 6.80932C63.9353 4.55937 75.6597 5.71413 86.3147 10.1276C96.9697 14.541 106.077 22.0149 112.484 31.6041C118.891 41.1933 122.311 52.4671 122.311 64C122.337 71.6646 120.846 79.2586 117.924 86.3447C115.003 93.4308 110.709 99.8691 105.289 105.289C99.8691 110.709 93.4309 115.003 86.3448 117.924C79.2587 120.846 71.6647 122.337 64 122.311ZM64 0C51.342 0 38.9683 3.75353 28.4435 10.7859C17.9188 17.8184 9.71575 27.8138 4.87174 39.5083C0.0277303 51.2027 -1.23968 64.071 1.22977 76.4858C3.69922 88.9005 9.79463 100.304 18.7452 109.255C27.6958 118.205 39.0995 124.301 51.5142 126.77C63.929 129.24 76.7973 127.972 88.4917 123.128C100.186 118.284 110.182 110.081 117.214 99.5565C124.246 89.0317 128 76.658 128 64C127.95 47.0414 121.192 30.7916 109.2 18.8C97.2084 6.80842 80.9586 0.0496397 64 0Z" />
<path d="M23.4667 55.8222H54.0445V105.6H73.9556V55.8222H104.533V35.5555H23.4667V55.8222Z" />
</svg>
