<svg width="100%" height="100%" viewBox="0 0 709 771" version="1.1" xmlns="http://www.w3.org/2000/svg" xmlns:xlink="http://www.w3.org/1999/xlink" xml:space="preserve" fill="currentColor">
    <g transform="matrix(13.333,0,0,13.333,-4827.22,-8240.73)">
        <path d="M362.051,648.098L362.05,648.098L362.05,623.758C362.05,620.621 364.257,618.07 366.98,618.07L410.289,618.071C413.007,618.071 415.214,620.622 415.214,623.758L415.214,634.086L415.216,634.084L415.216,670.186C415.216,673.327 413.009,675.878 410.29,675.878L366.981,675.878C364.258,675.878 362.051,673.327 362.051,670.186L362.051,648.098ZM369.472,666.121L369.492,666.14L377.179,666.14L377.179,635.05L377.285,635.05L384.504,666.14L392.59,666.14L399.961,635.05L400.07,635.05L400.07,666.14L407.778,666.14L407.778,628.941L395.84,628.941L388.793,658.257L388.684,658.257L381.527,628.941L369.476,628.941L369.472,628.945L369.472,666.121Z"/>
    </g>
</svg>
