<svg width="128" height="86" viewBox="0 0 128 86" fill="none" xmlns="http://www.w3.org/2000/svg">
<path d="M75.0261 71.7312C74.9882 71.6909 74.9242 71.6412 74.8673 71.6056C74.422 71.3095 73.8605 71.1176 73.2635 71.0821C71.8113 70.9992 70.3663 71.8283 69.5798 73.1834C69.5466 73.2402 69.5608 73.3231 69.6106 73.3516C70.0322 73.6122 70.1459 73.733 70.4823 74.0717C70.5013 74.0883 70.5321 74.0978 70.5605 74.1002C70.5676 74.1025 70.5748 74.1025 70.5819 74.1002C70.6174 74.0954 70.6506 74.0765 70.6743 74.0504C71.4537 73.0673 73.0172 72.0865 74.5641 72.1031C74.5641 72.1031 74.6494 72.1031 74.6565 72.1055C75.0758 72.1363 75.2109 71.9302 75.0261 71.7312ZM67.6254 56.9321C66.2703 54.1414 64.8915 51.7416 63.5507 49.42C61.4446 45.7765 59.2723 42.0074 57.1449 36.6251C57.1141 36.5611 57.0454 36.5256 56.9815 36.5469C56.9175 36.5682 56.8772 36.6345 56.8891 36.7009C56.9175 36.8359 59.5423 49.8322 67.0805 57.1998C67.469 57.5717 67.8409 57.4082 67.6254 56.9321ZM27.2553 36.3029C27.253 36.2342 27.2008 36.1797 27.1345 36.175C24.9645 35.9546 22.9793 35.7959 21.0699 35.6917C16.095 35.424 12.5036 35.5709 8.34601 35.7414C7.43395 35.7793 6.5006 35.8172 5.52694 35.8504C5.46061 35.8528 5.40138 35.9073 5.39901 35.976C5.39427 36.0447 5.444 36.1063 5.5127 36.1157C8.0641 36.5066 10.6961 36.7743 13.3304 36.9164C21.43 37.3547 27.0871 36.4474 27.144 36.4379C27.208 36.4284 27.2553 36.3716 27.2553 36.3029ZM24.7655 22.1316C23.1901 20.6794 16.4243 14.8445 6.47926 12.1202C6.41293 12.1036 6.34661 12.1368 6.32292 12.2007C6.29686 12.2623 6.31817 12.3334 6.37739 12.3666C7.99778 13.2928 9.66557 14.2997 11.4281 15.3633C15.787 17.9929 20.2928 20.7054 24.6684 22.5485C25.0356 22.6764 25.0261 22.3756 24.7655 22.1316ZM42.0592 28.9164C41.5546 24.5503 40.7112 20.5728 39.8181 16.356C39.1856 13.3852 38.5365 10.3079 37.9892 6.99606C37.9774 6.92973 37.9134 6.88235 37.8518 6.88709C37.7855 6.88946 37.7334 6.94394 37.731 7.01264C37.1719 20.234 41.7702 28.9069 41.8175 28.9922C41.8412 29.0372 41.8815 29.0609 41.9265 29.0609C41.9431 29.0609 41.9597 29.0609 41.9715 29.0585C42.0307 29.0372 42.0686 28.9756 42.0592 28.9164ZM73.0977 31.8302C73.0977 31.8018 73.0906 31.7734 73.0764 31.7497C72.8964 31.1456 70.5747 23.8657 60.7576 17.2112C60.7032 17.1709 60.6226 17.1827 60.58 17.2372C60.535 17.2917 60.542 17.3723 60.5965 17.4196C63.6881 20.2293 66.1424 23.38 68.9828 27.0259C70.1933 28.5752 71.4418 30.179 72.8537 31.9084C72.8798 31.9392 72.9129 31.9558 72.9509 31.9581H72.9579C73.0314 31.9581 73.093 31.9013 73.0977 31.8302ZM79.8115 12.3808C79.1979 11.7862 78.454 11.4498 77.6533 11.4071C76.3693 11.3384 75.1872 12.0325 74.576 13.2194C74.5475 13.2739 74.5617 13.3544 74.6068 13.3829C75.0616 13.6861 75.0995 13.7287 75.4549 14.122C75.4738 14.1457 75.5046 14.1552 75.5354 14.1552C75.5425 14.1552 75.552 14.1552 75.5591 14.1552C75.597 14.1504 75.6278 14.1291 75.6491 14.1007C76.2793 13.2407 77.6249 12.4068 78.9799 12.4827C79.2192 12.4945 79.4561 12.5371 79.6788 12.6082C79.7333 12.6224 79.8044 12.6011 79.8328 12.549C79.8659 12.4898 79.8565 12.4234 79.8115 12.3808ZM94.2031 15.8182C97.143 14.2997 99.5665 12.992 102.111 11.6156C105.259 9.91466 108.517 8.15687 113.051 5.83999C113.11 5.80683 113.138 5.74049 113.112 5.67653C113.091 5.61494 113.025 5.57703 112.963 5.58888C112.866 5.6102 103.471 7.6428 93.9425 15.3586C93.4758 15.7424 93.7459 16.0551 94.2031 15.8182ZM90.986 31.0105C94.0159 30.6576 100.775 29.4328 108.059 25.2278C108.114 25.1923 108.137 25.126 108.109 25.0667C108.085 25.0099 108.019 24.9767 107.955 24.9957C105.956 25.6235 103.956 26.3105 101.831 27.0354C98.247 28.2601 94.5632 29.5205 90.877 30.4941H90.8794C90.0502 30.7073 90.0597 31.129 90.986 31.0105ZM93.7648 53.009C93.5682 50.3913 93.3621 47.6859 93.3194 43.9642C93.3194 43.8955 93.2673 43.8363 93.1963 43.8339C93.1275 43.8315 93.0683 43.8813 93.0565 43.9476C91.4266 55.7002 92.8906 62.7693 93.5018 65.0246C93.6132 65.4107 94.0136 65.477 94.042 64.918C94.2813 59.8104 94.0325 56.4986 93.7648 53.009ZM127.362 85.6158C126.741 85.6917 126.125 85.7485 125.509 85.7912C120.395 86.156 115.263 85.9191 110.222 85.0591C105.186 84.1945 100.244 82.7067 95.6174 80.4657C91.5782 78.5041 87.7713 75.9456 84.5589 72.7356C81.3205 72.2121 79.0747 72.6124 78.0536 72.8849C78.4137 74.1902 78.3 75.4458 77.7149 76.5308C77.0942 77.6845 75.995 78.5491 74.5428 79.0253C73.7729 79.2741 73.0053 79.3807 72.252 79.3428C70.1128 79.2267 68.4379 77.9545 67.7722 75.9361C67.3458 74.6356 67.4264 73.335 68.0139 72.1789C68.6559 70.9068 69.8522 69.9331 71.3873 69.4309C72.1525 69.1798 72.9106 69.0732 73.6331 69.1087C75.6562 69.2129 76.7578 70.5017 77.0634 70.8973C77.0847 70.9233 77.1037 70.947 77.1179 70.9731C77.2909 71.2242 77.4804 71.3735 77.9447 71.2621C79.3898 70.9139 81.1973 70.8333 82.0549 70.876C82.6424 70.9068 82.7609 70.8239 82.325 70.279C81.4603 69.2674 79.9418 66.979 79.828 66.7823C79.5675 66.3654 78.7407 65.6263 77.9542 65.278H77.9589C75.2819 64.0675 72.297 62.44 70.3094 61.0683C66.1495 60.5211 62.5604 58.5098 59.6797 54.7147C57.4316 51.7582 55.8514 47.9702 55.0128 43.7344C52.1274 43.2772 49.242 42.7063 46.4063 41.8345C45.4682 41.5455 44.3926 41.1569 43.5445 40.8253C42.3103 40.3468 40.0526 39.4157 39.0316 39.1149C36.4826 38.4468 33.9714 37.9043 31.5314 37.4779C24.8389 40.1406 19.2979 41.2612 14.2259 40.9864C9.34338 40.7234 4.83519 39.1741 0.476238 36.2579C-0.395552 35.6538 0.0687605 35.1089 0.758138 34.8436C7.68034 32.2827 13.6336 31.174 18.9141 31.4583C23.9553 31.7284 28.4825 33.2445 32.7301 36.0731C34.0022 36.3076 35.2933 36.5753 36.5987 36.8714C35.9898 36.3976 35.3928 35.9096 34.829 35.3861C32.0431 32.811 29.8802 29.7029 28.1579 26.4147C27.6486 25.4742 27.1274 25.1805 26.4594 25.1212H26.4617C14.1311 23.9083 9.82427 19.9781 0.27249 9.83649C0.236955 9.80095 0.225124 9.74173 0.246445 9.69672C0.267766 9.64697 0.310397 9.61617 0.364884 9.61143C1.51148 9.55931 2.68177 9.56642 3.8402 9.63038C15.6686 10.27 26.0542 16.5621 28.7999 24.6711C30.6856 28.2009 33.0452 31.4796 36.0325 34.0452C38.1077 35.8457 40.4861 37.2386 43.0139 38.2857C43.6203 38.506 44.1084 38.281 43.8028 37.62C43.2603 36.4071 42.7533 35.0639 42.2795 33.6164C34.45 21.9207 31.4105 13.0038 37.397 0.0786003C37.4254 0.0312204 37.4728 0.000423521 37.5249 0.000423521C37.5747 -0.00431447 37.6244 0.0312202 37.6457 0.0809691C43.0542 11.9283 47.9035 24.9625 43.7412 32.9152C44.5916 35.559 45.5487 37.8569 46.6147 39.5295C46.7569 39.5721 46.899 39.6171 47.0459 39.655C49.5049 40.3136 52.035 40.7471 54.5982 41.0788C54.1884 37.6722 54.2263 34.0476 54.757 30.3733C54.7664 30.3212 54.8043 30.2785 54.8541 30.2643C54.9038 30.2501 54.956 30.2667 54.9915 30.307C64.5172 41.3915 69.6343 50.704 70.9704 59.4314C72.5458 60.5922 74.3509 61.708 76.4214 62.7622C77.08 63.1009 77.7528 62.7811 77.3761 61.843C77.2672 61.5706 76.4191 59.2395 76.0992 57.6854C75.8173 56.2924 75.6018 55.0866 75.4738 53.8784C75.3317 52.5755 75.263 49.9767 75.2796 49.3584C75.3056 48.4084 75.308 47.5201 75.3412 46.7359C74.621 46.5914 72.3941 46.1887 72.008 46.1247C70.5676 45.8784 69.1936 45.6651 67.739 45.4614C67.2652 44.5944 66.5569 43.3696 65.8202 42.204C68.066 42.4196 70.2384 42.6518 72.4865 42.9526C73.517 43.0877 74.5452 43.2464 75.5781 43.4146C75.6088 43.1303 75.6278 42.8508 75.6657 42.5665C75.751 41.8345 75.8623 41.1025 75.9903 40.3728C75.6467 38.5842 74.7797 36.5753 73.581 34.4906C67.1492 33.9599 62.9703 26.0357 58.5521 17.6423C57.8225 16.2612 57.0715 14.8351 56.3087 13.4374C56.2826 13.39 56.2873 13.3355 56.3205 13.2928C56.3513 13.2502 56.4058 13.2313 56.4579 13.2431C62.1056 14.5532 67.135 17.5049 70.6221 21.5512C73.889 25.3439 75.4075 29.6176 74.9408 33.6686C75.289 34.275 75.8742 35.4121 75.8742 35.4121C76.2959 36.291 76.8502 36.3976 77.1321 35.4808C77.5893 33.9789 78.544 31.3138 79.6693 29.2172C80.3303 25.171 79.2287 21.3498 78.8141 20.1037C78.3285 20.2198 77.8428 20.2719 77.369 20.2458C75.3956 20.1369 73.806 18.8671 73.0029 16.7516C72.4344 15.2567 72.4462 13.7169 73.029 12.4211C73.562 11.2413 74.5168 10.3648 75.7889 9.88623C76.4806 9.62328 77.1771 9.50956 77.8665 9.54747C79.8754 9.65407 81.6237 11.0494 82.4339 13.1862C83.4123 15.7613 82.6187 18.1753 80.5411 19.4048C80.3611 19.5115 80.3729 19.6962 80.4037 19.7981C80.6785 20.6628 81.2518 22.4372 81.4603 25.505C81.4792 25.7845 81.6474 25.9291 81.8464 25.6306C82.5216 24.6143 85.779 20.4046 90.1924 17.4244C92.3813 13.371 95.8661 9.70145 100.083 7.01975C105.958 3.28859 112.857 1.78428 119.831 2.72003C119.883 2.72477 119.926 2.76267 119.942 2.81479C119.959 2.86454 119.942 2.91666 119.902 2.95456C111.255 10.6348 101.457 19.3433 92.848 18.8813C92.2013 18.8458 91.5617 18.751 90.941 18.6112C87.1861 21.4564 84.0519 25.0407 81.9199 29.1651C81.42 30.1245 80.9817 31.1124 80.5885 32.1121C81.8985 31.8871 83.2276 31.6241 84.5613 31.3351C85.2388 31.1787 86.0348 30.8826 86.8805 30.1198C93.5824 23.887 98.6544 23.4156 113.589 22.0865L113.804 22.07C114.017 22.051 114.186 22.1031 114.268 22.2003C114.351 22.2998 114.344 22.449 114.202 22.6196C110.239 27.4097 100.012 33.8889 89.5528 33.3251C88.1977 33.2516 86.8687 33.0526 85.5894 32.747C84.1751 33.0645 82.7656 33.3535 81.3726 33.5975C80.669 33.7183 79.9441 33.8533 79.6717 34.7725C78.8875 37.3879 78.4066 40.1004 78.184 42.8318C77.9873 45.2079 77.9731 47.6053 78.0987 49.998C78.2053 52.4049 78.4919 54.6957 79.1126 56.9439C80.3137 61.4332 82.7063 65.522 85.9258 68.8363C88.2332 71.2242 90.9362 73.2165 93.8596 74.8464C94.3879 75.0952 94.883 74.9033 94.6413 74.1428C94.4494 73.5458 93.708 71.056 93.3716 68.9595C90.2255 64.3186 88.2474 57.8678 88.8255 51.0617C87.333 50.3534 85.7979 49.7209 84.2296 49.1665C82.5524 48.5624 80.8349 48.0555 79.1007 47.6101C79.0889 46.5156 79.0984 45.2908 79.1623 44.0755C81.2589 44.5185 83.3484 45.0492 85.3975 45.7078C86.7573 46.1366 88.11 46.6293 89.439 47.1766C90.1758 43.9903 91.5166 40.7874 93.599 37.7077C93.779 37.4897 94.0017 37.4116 94.1154 37.8214V37.8238C97.2638 49.3987 100.711 62.3571 95.0654 69.2058C95.6458 72.2642 96.3873 74.5147 97.1572 76.1754C97.2875 76.4336 97.4391 76.6113 97.7542 76.7606C101.943 78.5468 106.408 79.7028 110.942 80.2998C115.335 80.8731 119.997 80.9324 124.389 80.4917C126.151 80.3188 126.457 80.5628 126.898 81.7212C127.179 82.4603 127.746 83.768 127.93 84.3863C128.127 85.0426 127.897 85.5519 127.362 85.6158ZM98.9695 52.3931C99.4149 54.9848 99.5002 56.7236 99.5452 58.389C101.099 59.9407 102.393 61.6274 103.615 63.4539C104.821 65.2401 105.814 67.1519 106.723 69.1134C107.062 69.8431 107.436 70.106 108.209 69.9047C108.978 69.701 111.355 69.0732 111.355 69.0732C111.667 68.9524 111.769 68.7652 111.618 68.3862C110.315 65.2164 109.353 63.6884 107.318 60.8717C104.98 57.6191 102.184 54.7502 98.9695 52.3931Z" fill="currentColor"/>
</svg>
