<svg width="128" height="137" viewBox="0 0 128 137" fill="none" xmlns="http://www.w3.org/2000/svg">
<path d="M118.391 14.2761C97.3504 1.79586 58.5496 -4.52428 13.1086 3.7159C-1.93175 6.43596 -1.29174 15.2362 1.74833 22.5963C4.78839 29.9565 8.86848 32.2765 21.0287 29.1565C26.1489 27.7964 31.669 26.5164 37.5091 25.4764C37.4291 27.9564 36.7891 48.1969 35.109 78.9175C33.349 111.798 39.8292 138.999 59.3496 135.879C78.87 132.759 63.8297 115.478 58.1495 77.9575C77.11 70.7574 92.9503 63.1572 104.391 55.797C110.871 51.6369 144.071 29.3965 118.391 14.2761ZM56.7895 66.5973C55.1895 52.1169 54.7095 37.4766 55.2695 22.8363C62.0696 22.1163 69.1898 21.6363 76.6299 21.5563C136.311 20.8363 117.271 45.1568 56.7895 66.5973Z" fill="black"/>
</svg>
