<svg width="128" height="173" viewBox="0 0 128 173" fill="none" xmlns="http://www.w3.org/2000/svg">
<path d="M64.0782 0C58.684 6.29055 52.7948 12.1381 47.4632 18.4808C51.7957 20.3273 56.1876 22.0023 60.4717 23.9739C62.1707 24.6807 64.1032 25.7459 65.9127 24.7281C70.929 22.6387 75.9296 20.4925 80.9642 18.4427C75.2782 12.3502 69.9049 5.957 64.0782 0ZM94.0873 19.9036C87.3537 23.0442 80.5368 25.9961 73.8241 29.2013C83.4554 33.4431 93.0502 37.8111 102.754 41.8971C99.95 34.5329 97.1622 27.1635 94.0873 19.9036ZM33.7147 19.914C30.9019 27.2208 27.8306 34.4339 25.2821 41.8397C34.955 37.7845 44.5134 33.4436 54.1342 29.243C47.3642 26.0649 40.5681 22.9264 33.7147 19.9192V19.914ZM64.1616 32.198C62.3453 32.474 60.7385 33.4718 59.0551 34.167C47.188 39.138 35.373 44.2493 23.5268 49.2682C31.6675 52.9753 40.0063 56.2779 48.2043 59.874C53.5567 62.0869 58.8102 64.489 64.2199 66.5763C77.6193 60.734 91.1958 55.2773 104.517 49.2682C93.4004 44.4713 82.2734 39.6942 71.1255 35.0089C68.8083 34.0499 66.573 32.8766 64.1616 32.198ZM118.572 49.5427C103.505 56.1876 88.3752 62.6606 73.3811 69.4254C88.4482 75.9922 103.489 82.6788 118.577 89.2091C118.682 75.9922 118.7 62.7752 118.572 49.5427ZM73.3811 69.4254C73.377 69.4235 73.3712 69.422 73.3676 69.4202L73.3618 69.4338C73.3686 69.431 73.3749 69.4285 73.3811 69.4254ZM9.32899 50.0899L9.32623 50.0951C9.07346 63.3433 9.29183 76.6228 9.19964 89.8919C24.3241 83.3147 39.485 76.727 54.5365 69.9622C39.4641 63.385 24.3752 56.7713 9.32899 50.0899ZM63.8958 73.084C48.5108 79.4684 33.2143 86.1029 17.8814 92.6436C33.2143 99.2 48.5576 105.746 63.9218 112.229C79.2495 105.736 94.5564 99.2261 109.858 92.6436C94.5824 86.0039 79.2599 79.5101 63.8958 73.084ZM128 92.4769C109.702 100.06 91.4033 107.695 73.0684 115.21L73.0601 115.216C85.6829 120.798 98.29 126.39 110.97 131.815C116.609 118.698 122.389 105.611 127.992 92.4774L128 92.4769ZM0 92.6438C5.9101 105.642 11.4814 118.796 17.1205 131.909C29.8423 126.577 42.4391 120.944 55.0567 115.357C36.7218 107.815 18.4339 100.044 0.0208454 92.6438H0ZM64.3648 118.494C63.0588 118.415 61.7418 119.279 60.5055 119.719C48.2163 125.139 35.893 130.474 23.5985 135.873C35.1269 141.031 46.7334 146.015 58.2982 151.065C58.8533 151.414 59.9545 151.578 59.8763 152.442C60.0233 159.295 59.7793 166.149 59.9868 173.002C62.6922 172.981 65.407 172.991 68.1171 173.002C68.1436 166.55 68.1113 160.093 68.1113 153.646C68.2345 152.958 67.9107 151.841 68.7763 151.547C80.5965 146.226 92.5627 141.233 104.378 135.902C91.5255 130.091 78.5692 124.582 65.6649 118.938C65.2359 118.651 64.8 118.52 64.3648 118.494Z"/>
</svg>
