<svg viewBox="0 0 128 128" fill="currentColor" xmlns="http://www.w3.org/2000/svg">
<path d="M64.0007 78.371C85.6424 78.371 103.186 60.8271 103.186 39.1856C103.186 17.544 85.6424 0 64.0007 0C42.3593 0 24.8153 17.544 24.8153 39.1856C24.8153 60.8271 42.3593 78.371 64.0007 78.371Z" />
<path d="M128 87.0796C127.304 79.8051 124.593 73.1365 120.434 67.6245L64 89.5708L7.56601 67.6245C3.40714 73.1365 0.696231 79.8073 0 87.0796L35.2024 100.768L11.2368 110.088C14.4566 116.453 18.3264 122.437 22.7743 128L64 111.968L105.226 128C109.674 122.439 113.543 116.453 116.763 110.088L92.7976 100.768L128 87.0796Z"/>
</svg>
