<svg id="Layer_2" data-name="Layer 2" xmlns="http://www.w3.org/2000/svg" viewBox="0 -35.43 297.46 297.46"><defs><style>.cls-1 {fill: #1d1d1b;}.cls-1, .cls-2 {fill-rule: evenodd;}.cls-2, .cls-3 {fill: #fff;}</style></defs><g id="PO_Logo_KL_NG_4C"><g><g><path class="cls-1" d="M148.74,223.1C68.65,223.1,3.5,173.84,3.5,113.3S68.65,3.5,148.74,3.5s145.22,49.26,145.22,109.8-65.15,109.8-145.22,109.8Z"/><path class="cls-3" d="M148.74,7c78.28,0,141.72,47.58,141.72,106.3s-63.45,106.3-141.72,106.3S7,172,7,113.3,70.47,7,148.74,7M148.74,0c-39.36,0-76.44,11.55-104.42,32.53-13.8,10.35-24.66,22.44-32.28,35.95C4.05,82.65,0,97.73,0,113.3s4.05,30.65,12.04,44.81c7.62,13.51,18.48,25.6,32.28,35.95,27.98,20.98,65.06,32.53,104.42,32.53s76.45-11.55,104.42-32.54c13.8-10.35,24.65-22.44,32.27-35.95,7.99-14.17,12.04-29.24,12.04-44.81s-4.05-30.65-12.04-44.82c-7.62-13.51-18.47-25.6-32.27-35.95C225.19,11.55,188.1,0,148.74,0h0Z"/></g><g><path class="cls-2" d="M176.85,137.66c.02-13.64,10.42-23.89,23.73-23.91,5.3,0,10.06,1.04,13.95,3.92v6.49c-3-2.23-7.28-4.15-13.95-4.12-10.17.04-16.75,7.16-16.69,17.64.07,10.22,7.01,17.63,16.69,17.63,6.04,0,9.53-1.11,13.95-4.13v6.49c-3.84,2.85-8.65,3.9-13.95,3.9-14.09,0-23.74-10.62-23.73-23.9"/><polygon class="cls-2" points="222.24 114.91 222.24 160.43 252.94 160.43 252.94 154.15 228.87 154.15 228.87 140.29 249.81 140.29 249.81 134.01 228.87 134.01 228.87 121.17 251.81 121.17 251.81 114.91 222.24 114.91"/><rect class="cls-3" x="162.55" y="114.91" width="6.65" height="45.52"/><polygon class="cls-2" points="91.22 114.91 91.22 160.43 97.88 160.43 97.88 140.98 117.31 140.98 117.31 134.71 97.88 134.71 97.88 121.17 119.65 121.17 119.65 114.91 91.22 114.91"/><path class="cls-2" d="M44.25,137.66c0-10.23,7.03-17.65,16.68-17.65s16.69,7.42,16.69,17.65-7.01,17.63-16.69,17.63-16.68-7.41-16.68-17.63M37.24,137.66c0,13.64,10.19,23.9,23.7,23.9s23.72-10.27,23.72-23.9-10.18-23.91-23.72-23.91-23.7,10.29-23.7,23.91"/><polygon class="cls-2" points="126.71 114.91 126.71 160.43 133.37 160.43 133.37 140.98 152.81 140.98 152.81 134.71 133.37 134.71 133.37 121.17 155.14 121.17 155.14 114.91 126.71 114.91"/><path class="cls-2" d="M164.16,67.11c0,10.12,7.15,12.23,13.45,14.22,4.66,1.5,9.11,3.03,9.11,7.35s-4.91,6.81-9.11,6.87c-4.36.07-9.19-2.03-12.68-4.5l.02,6.64c3.37,2.79,8.07,4.43,12.52,4.38,9.34-.09,16.17-5.91,16.17-14.19,0-9.01-7.05-10.93-13.02-12.76-5.05-1.54-9.64-3.04-9.64-8.02,0-2.43,2.01-6.57,8.7-6.57,3.45,0,5.98.51,10.4,3.28l.46.31.02-6.67c-2.71-2.09-6.61-3.2-10.87-3.2-11.31.01-15.52,7.9-15.52,12.85"/><polygon class="cls-2" points="196.13 55.41 196.13 61.69 210.6 61.69 210.6 100.93 217.25 100.93 217.25 61.69 231.72 61.69 231.72 55.41 196.13 55.41"/><path class="cls-2" d="M119.09,78.18c0-10.23,7.03-17.65,16.68-17.65s16.69,7.42,16.69,17.65-7.01,17.63-16.69,17.63-16.68-7.41-16.68-17.63M112.07,78.18c0,13.64,10.19,23.9,23.7,23.9s23.72-10.27,23.72-23.9-10.19-23.91-23.72-23.91-23.7,10.29-23.7,23.91"/><path class="cls-2" d="M92.89,61.3c3.49,0,9.36,1,9.36,7.63s-5.88,7.63-9.36,7.63h-8.4v-15.27h8.4ZM77.84,55.41v45.52h6.64v-18.45h9.44c13.65,0,14.71-10.37,14.71-13.55s-1.06-13.52-14.71-13.52h-16.08Z"/></g></g></g></svg>