<svg role="img" xmlns="http://www.w3.org/2000/svg" viewBox="0 0 446.46 375.59"><defs><style>.cls-1{fill:none;}.cls-2,.cls-3{fill:#fff;}.cls-2,.cls-4{fill-rule:evenodd;}.cls-4{fill:#1d1c1b;}</style></defs><path class="cls-4" d="M223.25,297.31c-80.09,0-145.24-49.26-145.24-109.8s65.15-109.8,145.24-109.8,145.22,49.26,145.22,109.8-65.15,109.8-145.22,109.8Z"/><path class="cls-3" d="M223.25,81.21c78.28,0,141.72,47.58,141.72,106.3s-63.45,106.3-141.72,106.3-141.74-47.59-141.74-106.3,63.47-106.3,141.74-106.3M223.25,74.21c-39.36,0-76.44,11.55-104.42,32.53-13.8,10.35-24.66,22.44-32.28,35.95-7.99,14.17-12.04,29.25-12.04,44.82s4.05,30.65,12.04,44.81c7.62,13.51,18.48,25.6,32.28,35.95,27.98,20.98,65.06,32.53,104.42,32.53s76.45-11.55,104.42-32.54c13.8-10.35,24.65-22.44,32.27-35.95,7.99-14.17,12.04-29.24,12.04-44.81s-4.05-30.65-12.04-44.82c-7.62-13.51-18.47-25.6-32.27-35.95-27.97-20.98-65.05-32.53-104.42-32.53h0Z"/><path class="cls-2" d="M251.36,211.87c.02-13.64,10.42-23.89,23.73-23.91,5.3,0,10.06,1.04,13.95,3.92v6.49c-3-2.23-7.28-4.15-13.95-4.12-10.17.04-16.75,7.16-16.69,17.64.07,10.22,7.01,17.63,16.69,17.63,6.04,0,9.53-1.11,13.95-4.13v6.49c-3.84,2.85-8.65,3.9-13.95,3.9-14.09,0-23.74-10.62-23.73-23.9"/><polygon class="cls-2" points="296.75 189.12 296.75 234.64 327.45 234.64 327.45 228.36 303.38 228.36 303.38 214.51 324.32 214.51 324.32 208.22 303.38 208.22 303.38 195.39 326.31 195.39 326.31 189.12 296.75 189.12"/><rect class="cls-3" x="237.06" y="189.12" width="6.65" height="45.52"/><polygon class="cls-2" points="165.73 189.12 165.73 234.64 172.39 234.64 172.39 215.2 191.82 215.2 191.82 208.92 172.39 208.92 172.39 195.39 194.16 195.39 194.16 189.12 165.73 189.12"/><path class="cls-2" d="M118.76,211.87c0-10.23,7.03-17.65,16.68-17.65s16.69,7.42,16.69,17.65-7.01,17.63-16.69,17.63-16.68-7.41-16.68-17.63M111.75,211.87c0,13.64,10.19,23.9,23.7,23.9s23.72-10.27,23.72-23.9-10.18-23.91-23.72-23.91-23.7,10.29-23.7,23.91"/><polygon class="cls-2" points="201.22 189.12 201.22 234.64 207.88 234.64 207.88 215.2 227.31 215.2 227.31 208.92 207.88 208.92 207.88 195.39 229.65 195.39 229.65 189.12 201.22 189.12"/><path class="cls-2" d="M238.67,141.33c0,10.12,7.15,12.23,13.45,14.22,4.66,1.5,9.11,3.03,9.11,7.35s-4.91,6.81-9.11,6.87c-4.36.07-9.19-2.03-12.68-4.5l.02,6.64c3.37,2.79,8.07,4.43,12.52,4.38,9.34-.09,16.17-5.91,16.17-14.19,0-9.01-7.05-10.93-13.02-12.76-5.05-1.54-9.64-3.04-9.64-8.02,0-2.43,2.01-6.57,8.7-6.57,3.45,0,5.98.51,10.4,3.28l.46.31.02-6.67c-2.71-2.09-6.61-3.2-10.87-3.2-11.31.01-15.52,7.9-15.52,12.85"/><polygon class="cls-2" points="270.64 129.63 270.64 135.91 285.11 135.91 285.11 175.14 291.76 175.14 291.76 135.91 306.23 135.91 306.23 129.63 270.64 129.63"/><path class="cls-2" d="M193.6,152.39c0-10.23,7.03-17.65,16.68-17.65s16.69,7.42,16.69,17.65-7.01,17.63-16.69,17.63-16.68-7.41-16.68-17.63M186.58,152.39c0,13.64,10.19,23.9,23.7,23.9s23.72-10.27,23.72-23.9-10.19-23.91-23.72-23.91-23.7,10.29-23.7,23.91"/><path class="cls-2" d="M167.4,135.51c3.49,0,9.36,1,9.36,7.63s-5.88,7.63-9.36,7.63h-8.4v-15.27h8.4ZM152.35,129.63v45.52h6.64v-18.45h9.44c13.65,0,14.71-10.37,14.71-13.55s-1.06-13.52-14.71-13.52h-16.08Z"/><rect class="cls-1" width="446.46" height="375.59"/></svg>