<svg viewBox="0 0 128 40" fill="currentColor" xmlns="http://www.w3.org/2000/svg">
<path fill-rule="evenodd" clip-rule="evenodd" d="M8.312 0.34711C8.41224 0.537701 9.42197 2.29795 10.5561 4.25768L12.6186 7.82114L6.34487 18.6848C2.89448 24.6598 0.0395677 29.6665 0.000560743 29.8112C-0.0631341 30.0507 5.32032 39.6444 5.52227 39.6518C5.56769 39.6533 8.44877 34.728 11.9248 28.7062C15.4009 22.6843 18.3002 17.8123 18.3674 17.88C18.435 17.9471 21.2924 22.8571 24.7176 28.7901C28.1423 34.7231 31.0002 39.5777 31.0679 39.5777C31.1977 39.5777 36.6864 30.1553 36.6864 29.9326C36.6864 29.8615 36.0257 28.6696 35.2184 27.2841L33.751 24.765L36.792 24.6879L39.8331 24.6104L44.8176 15.9756C47.5584 11.2266 49.8016 7.26171 49.8016 7.16543C49.8016 7.06865 48.8926 5.41703 47.7821 3.49483L45.7626 0H26.946H8.1298L8.312 0.34711ZM54.4306 0.132326C54.4306 0.205403 55.3099 1.78493 56.3849 3.64295C57.4598 5.50047 58.3382 7.08988 58.3372 7.17481C58.3357 7.25973 54.1847 14.5131 49.1133 23.2931C44.0414 32.0736 39.8573 39.3472 39.8153 39.4563C39.7531 39.6177 45.0486 39.6548 68.1595 39.6548C86.594 39.6548 96.562 39.6019 96.5284 39.5042C96.5003 39.4212 95.2619 37.2358 93.7772 34.648L91.0768 29.9425L73.9108 29.9381C64.4697 29.9356 56.7468 29.8818 56.7488 29.8181C56.7512 29.7544 57.5417 28.3487 58.5065 26.6936L60.2604 23.6846L73.7943 23.6451C84.5153 23.614 87.3129 23.5661 87.2527 23.414C87.2107 23.3084 86.2736 21.6597 85.17 19.7504L83.1634 16.2782L73.8871 16.2012L64.6109 16.1242L66.4151 13.0012L68.2188 9.87864L73.816 9.83815L79.4138 9.79766L76.6043 4.90302L73.7953 0.00839306L64.1127 0.0039479C58.7875 0.00197287 54.4306 0.0592499 54.4306 0.132326ZM82.359 0.0651743C82.359 0.24194 105.133 39.5501 105.243 39.5629C105.374 39.5782 127.863 0.7357 127.993 0.269591C128.063 0.0162929 127.726 -5.42507e-07 122.456 0.000986975L116.845 0.00197395L111.064 10.0233C107.885 15.5346 105.249 20.0096 105.207 19.9676C105.164 19.9251 102.555 15.4324 99.409 9.9838L93.6878 0.0770255L88.0234 0.0365369C84.9078 0.0143178 82.359 0.0271548 82.359 0.0651743ZM35.3473 12.6911C34.4521 14.2395 33.4695 15.941 33.1639 16.4713L32.6084 17.4356H25.5383H18.4681L18.6498 17.0885C18.8982 16.614 21.6351 11.8586 22.2908 10.762L22.8216 9.87518H29.8982H36.9752L35.3473 12.6911Z" />
</svg>
