<svg fill="currentColor" xmlns="http://www.w3.org/2000/svg" xmlns:xlink="http://www.w3.org/1999/xlink" id="Layer_1" x="0px" y="0px"
     viewBox="0 0 333 285" style="enable-background:new 0 0 333 285;" xml:space="preserve">
  <path d="M322.8,7.8h-0.1V7.7c-3.7-0.8-7.9,1.1-9.5,4.6c-0.7,1.4-0.8,3-0.5,4.5c-4.2,2-8.5,4.1-12.7,6.1v-0.1 c-0.2-0.3-0.4-0.6-0.6-0.9c-5.1-7.5-10.9-13.2-14-11.6c-0.5,0.3-1.2,0.9-1.4,2.3c-0.5,3,1,8.4,4.1,14.6 c-6.3-9.2-13.6-16.6-17.4-14.7c-0.9,0.4-1.4,1.4-1.7,2.7c-0.7,3.8,1.4,10.7,5.3,18.5c-4.7-6.4-9.7-10.9-12.5-9.5 c-0.5,0.3-1.2,0.9-1.4,2.3c-0.5,2.7,0.7,7.3,3.2,12.6c0.1,0.3,0.3,0.6,0.4,1c0,0-10.7,5.2-16.4,7.9c-0.2,0.1-0.4,0.2-0.7,0.3 c-3.6-5.5-8.4-11.3-14.2-13.1c-0.6-0.2-1.6,0.4-1.8,1c-0.9,3.1-1.8,6.2-2.6,9.3c-2.7-1.4-5.5-2.5-8.2-3.4c-16.1-5-33.5-1.7-48.6,4.9 c-24.9,10.9-45.8,30.4-65.1,49.1c-0.2,0.2-0.3,0.4-0.5,0.5c-4.1-3.2-17.2-11.1-35.9,2.6c-22.6,16.6-63,45.2-63,45.2 s-5.2,4.3-1.9,9.3s9.9,1.5,9.9,1.5l29.9-9.8c0,0,15-6.1,22.5-4.5c-2.6,3.8-5.1,7.6-7.3,11.6c-2.5,4.4-3.6,6.9-1.2,12.2 c0,0,0,0,0,0.1c1.2,2,2.3,4,3.5,6c0,0,0,0,0.1,0c3.1,4.3,5.6,4.8,10.3,4.9c3,0,6-0.1,9.1-0.3c0.4,2,1.2,5.1,3.1,5 c2.8-0.2,16.3-5.7,16.8,18.9s-3.5,44.9-3.3,55c0.2,10.1,1.4,27.4,27.6,23.9s34.8-20.9,36.6-24.8s0.3-12-6.8-16.5 c-7.1-4.4-7.1-9.7-5.2-12.5c1.9-2.8,3.1-9.6-4.2-15.6c-5.5-4.5-5.2-14.9,2.5-17.7c7.7-2.9,34.4-15.3,34.4-15.3s9.6-3.2,9.8-16 c0.1-7.8,1.4-11.9,2.3-13.9c0.2-0.5-0.1-1-0.6-1.2c1.1-0.5,2.2-1,3.3-1.6c0.1,0,0.2-0.1,0.2-0.1c1.9-1,3.8-1.9,5.7-3 c2.6-1.4,5-2.8,7.3-4.3c0.2-0.1,0.4-0.3,0.6-0.4c2.8-1.8,5.4-3.6,7.8-5.4c0.1,0,0.1-0.1,0.2-0.1l0.1-0.1c0.6-0.5,1.2-0.9,1.7-1.4 l0.4-0.1c0,0,0-0.1,0-0.2c0.4-0.4,0.9-0.7,1.3-1.1c0.5-0.4,0.9-0.7,1.4-1.1c0.7-0.6,1.2-1.1,1.9-1.7c9.7-8.8,17.7-19.6,21-32.3 c0.9-3.4,1.4-7,1.6-10.6c3.4,1.3,6.9,2.6,10.3,3.9c0.6,0.2,1.8-0.5,1.9-1.2c0.1-2.7-0.6-5.5-1.3-8c-1.2-4.4-2.8-8.7-4.7-12.8 c5.3-3.7,10.7-7.3,16-11c0.2,0.3,0.4,0.5,0.6,0.8c4.4,6,9.1,10.6,12.5,10c0.2,0,0.4-0.1,0.6-0.2c0.4-0.2,0.8-0.6,1-1.4 c0.8-2.8-1.1-8.9-4-14.9c5.8,8.4,12.4,15.4,17,14.5c0.3,0,0.5-0.1,0.8-0.3c0.5-0.3,0.9-0.9,1.2-1.6c1.2-3.9-2.1-13-6.5-21.5 c4.6,6.7,9.9,12.2,13.6,11.5c0.2,0,0.4-0.1,0.6-0.2c0.4-0.2,0.8-0.6,1-1.4c0.9-3.1-1.6-10.3-5.1-17c-0.1-0.3-0.3-0.6-0.5-0.9 c2.9-2,5.7-3.9,8.6-5.9c1.2-0.8,2.3-1.6,3.5-2.4c0.5,0.3,1,0.5,1.6,0.7c3.5,0.9,7.5-0.9,9.3-4C329.2,14,327.1,9.2,322.8,7.8z  M52.7,133c-2.2,1.3-5,0.6-6.3-1.6c-1.3-2.2-0.6-5,1.6-6.3c2.2-1.3,5-0.6,6.3,1.6C55.6,128.9,54.9,131.7,52.7,133z M66.5,126.1 c-2.7,1.6-6.2,0.7-7.7-2c-1.6-2.7-0.7-6.2,2-7.7c2.7-1.6,6.2-0.7,7.7,2C70.1,121.1,69.2,124.6,66.5,126.1z M80.1,119 c-3,1.8-6.9,0.8-8.7-2.3c-1.8-3-0.8-6.9,2.3-8.7c3-1.8,6.9-0.8,8.7,2.3C84.2,113.3,83.1,117.2,80.1,119z M105.1,145.5 c-3,0.2-5.5-2.1-5.7-5s2.1-5.5,5-5.7c3-0.2,5.5,2.1,5.7,5C110.3,142.8,108.1,145.3,105.1,145.5z M133.9,136.5 c-7.1,0.5-13.2-4.9-13.6-12c-0.5-7.1,4.9-13.2,12-13.6c7.1-0.5,13.2,4.9,13.6,12S140.9,136.1,133.9,136.5z M187,161.2 c-0.4,7.6-5.4,8.9-5.4,8.9l-11,5c-4.1-12.6,0.7-16.9,0.7-16.9l16.1-4.6C187.4,153.6,187.4,153.6,187,161.2z M173.3,119.3 c-10.1,0.6-18.8-7-19.5-17.1c-0.6-10.1,7-18.8,17.1-19.5s18.8,7,19.5,17.1C191,109.9,183.4,118.6,173.3,119.3z"/>
  <g>	<path
          d="M270,84.5c-0.1,2.7-1.4,5.3-3.5,7.1c3.5,10.9,5.4,22.6,5.4,34.6c0,58.9-45.1,107.5-102.6,113c1.5,2.9,2.3,5.9,2.5,8.8  c61.3-6.7,109.1-58.8,109.1-121.8c0-20.1-4.8-39-13.4-55.7c0.3,1.1,0.7,2.2,0.9,3.3C269.2,76.5,270.2,80.4,270,84.5z"/>
    <path d="M158.4,12.7c23.8,0,45.9,7.3,64.1,19.9c0.9-2.1,2.6-4,4.8-5.1c0.7-0.4,1.5-0.7,2.3-0.9C209.5,12.2,185,3.8,158.4,3.8  C95.6,3.7,43.8,51.1,36.7,112c3.4-2.4,6.9-4.9,10.2-7.4C57,52.3,103.2,12.7,158.4,12.7z"/>
    <path d="M58.7,180.5c-0.7-0.6-1.3-1.2-2-1.9l-0.7-0.2l-1.8-2.9c-1.3-2.1-2.5-4.2-3.6-6.2l-1.8-3.1l0.2-0.8c-1.2-3.8-1.1-7.1-0.4-10  c-0.2-0.6-0.3-1.2-0.4-1.7c-0.1,0-0.2,0.1-0.3,0.1l-0.6,0.2l-7.7,2.5c7.7,29.9,26.3,55.4,51.4,72c0.3-3.3,0.6-6.8,0.8-10.4  C78.2,208.3,66.9,195.4,58.7,180.5z"/></g></svg>