<svg viewBox="0 0 128 93" fill="none" xmlns="http://www.w3.org/2000/svg">
<path fill-rule="evenodd" clip-rule="evenodd" d="M52.0169 0.548218C48.7625 0.969439 40.9575 2.84511 36.3381 4.31581C17.4962 10.3156 1.85613 25.814 0.330829 39.9974C-1.44734 56.5297 3.89723 68.7015 17.4628 79.0127C24.8787 84.6494 42.9648 92.3494 46.0284 91.1735C46.32 91.0617 46.5481 91.1569 46.5481 91.3906C46.5481 91.6395 46.8221 91.7354 47.2287 91.6292C47.6032 91.5313 47.9093 91.6077 47.9093 91.7991C47.9093 91.9906 48.2922 92.0741 48.7602 91.9847C49.2282 91.8953 49.6111 91.973 49.6111 92.1576C49.6111 92.3491 50.0499 92.4056 50.632 92.2893C51.2134 92.1729 51.6532 92.2295 51.6532 92.4199C51.6532 92.6042 52.3039 92.7501 53.0995 92.7443C53.8951 92.7384 58.6043 92.7966 63.5647 92.8736C69.1147 92.9598 72.7409 92.8863 72.9924 92.6829C73.2177 92.5008 73.7039 92.4479 74.0731 92.5652C76.3336 93.2828 90.2144 89.6179 97.3017 86.4325C140.515 67.0111 137.53 21.0996 91.9825 4.60182C81.4945 0.803355 63.8634 -0.985209 52.0169 0.548218ZM73.0961 2.71965C112.685 7.36576 135.569 35.3224 121.787 62.2035C101.251 102.257 17.6477 98.8045 3.87221 57.3344C-4.97181 30.7107 18.458 6.39689 56.7582 2.45216C59.9645 2.12195 69.3064 2.2747 73.0961 2.71965ZM57.6088 3.25755C1.97184 7.43174 -17.1433 57.7355 27.8298 81.6242C42.5426 89.4389 64.23 91.7894 83.1336 87.6178C121.257 79.2047 137.133 45.86 114.393 21.9642C101.863 8.79713 79.9579 1.58079 57.6088 3.25755ZM64.2453 5.2837C65.0682 6.10632 65.0793 6.27468 64.3776 7.27638C63.8627 8.01157 63.8728 8.0899 64.5479 8.56247C66.3195 9.80338 64.8349 11.7506 62.1184 11.7486L60.3314 11.7473L60.3149 8.17505L60.2983 4.6028H61.9315C63.111 4.6028 63.7539 4.79195 64.2453 5.2837ZM69.7423 5.29151C69.116 7.94624 69.2837 11.0664 70.0679 11.3579C71.9787 12.0681 72.7536 10.9933 72.7536 7.6326C72.7536 5.16247 72.7945 5.01752 73.4439 5.1875C73.8794 5.30126 74.0767 5.57199 73.9789 5.92139C73.8934 6.2256 73.7195 7.47009 73.5924 8.68695C73.3048 11.4418 72.7783 12.0902 70.8291 12.0902C68.619 12.0902 67.8403 11.1753 68.1139 8.89984C68.229 7.94039 68.3249 6.57044 68.3265 5.85541C68.3291 4.7003 68.4146 4.56867 69.0952 4.67235C69.5638 4.74385 69.8148 4.98404 69.7423 5.29151ZM54.6381 8.255C54.748 11.786 54.9495 12.0817 56.5629 11.0846C57.7628 10.3432 57.7791 10.3423 57.7791 11.0212C57.7791 11.8975 57.6588 11.9579 55.3632 12.2358L53.458 12.4666L53.261 9.47057C53.1528 7.82273 52.9601 6.20675 52.833 5.87913C52.6451 5.39649 52.7855 5.28435 53.5737 5.28695L54.5458 5.29053L54.6381 8.255ZM61.7615 5.49854C61.4641 5.79593 61.4466 7.47626 61.7378 7.76748C62.2396 8.2693 63.2631 7.26305 63.1597 6.36958C63.0586 5.49659 62.2604 4.99964 61.7615 5.49854ZM81.4981 6.6998C82.2359 7.31213 81.92 9.13255 81.0067 9.53329C80.0492 9.95354 80.0528 10.0852 81.0776 12.1259C81.5381 13.0422 81.8543 13.792 81.7806 13.792C80.7776 13.792 79.9091 12.9443 79.3667 11.4366C78.6796 9.52582 78.2129 9.70035 78.2041 11.8715C78.1999 12.9274 78.0936 13.1436 77.6606 12.9775C77.3646 12.8637 76.8998 12.7708 76.6278 12.7708C76.2663 12.7708 76.216 12.6102 76.4402 12.1754C76.8026 11.4736 77.4647 8.67623 77.6688 6.98517C77.7481 6.32993 77.8232 5.77545 77.8355 5.75303C77.9395 5.56679 81.1257 6.39039 81.4981 6.6998ZM49.6111 6.63772C49.6111 7.23185 49.5113 7.26533 48.7631 6.92471C47.3922 6.30003 46.5839 6.89611 46.9508 8.2615C47.2469 9.36266 48.2821 9.80078 48.7602 9.02724C49.1151 8.45294 49.6111 8.64892 49.6111 9.36363C49.6111 9.80013 49.3998 10.0224 49.0157 9.99027C47.8199 9.89016 47.2531 10.0579 47.3812 10.4736C47.4533 10.7076 47.6044 11.3202 47.7172 11.8351C47.9603 12.944 48.5249 13.0175 49.7001 12.0931C50.6255 11.3654 51.4049 11.9881 50.5042 12.7357C49.8835 13.2508 46.0366 13.6636 46.3333 13.1832C46.5878 12.7714 45.692 8.18643 45.1736 7.2468C44.9078 6.7648 45.0193 6.61985 45.7834 6.45116C46.2976 6.33773 46.8715 6.19408 47.0587 6.13135C48.2613 5.73028 49.6111 5.99809 49.6111 6.63772ZM79.079 7.04529C78.6279 8.50819 78.6286 9.08282 79.0807 9.25638C79.8308 9.54402 80.6277 8.67752 80.5133 7.69793C80.4041 6.7622 79.3186 6.26818 79.079 7.04529ZM41.6973 7.86563C41.4571 8.10582 42.2807 11.0193 43.1563 13.0262C43.5034 13.8216 43.6809 14.4745 43.5512 14.4771C43.4212 14.4797 42.9704 14.5743 42.5491 14.6871C41.9137 14.8574 41.7828 14.7553 41.7789 14.0868C41.7678 12.191 41.4282 11.6999 40.2929 11.9384C38.7075 12.2719 38.544 12.5839 39.1482 14.1225C39.6581 15.4206 39.6529 15.5168 39.0568 15.836C38.1864 16.3018 38.0408 16.2654 38.0327 15.5786C38.0285 15.251 37.5933 13.7059 37.0648 12.1445C36.105 9.30773 36.105 9.30611 36.8168 9.03959C37.4425 8.80526 37.5634 8.93624 37.8085 10.1112C38.1276 11.6397 38.5641 11.9218 39.8531 11.4317C40.8854 11.0394 40.9852 10.445 40.2558 9.03439C39.7933 8.13995 39.8005 8.04114 40.341 7.89976C41.253 7.66087 41.9186 7.6443 41.6973 7.86563ZM87.663 7.95859C87.9078 8.11395 88.4551 9.33536 88.8792 10.6728C89.8861 13.8482 89.9554 13.8788 90.6398 11.4402C91.0094 10.1225 91.401 9.36753 91.7153 9.36753C91.987 9.36753 92.1275 9.55897 92.0277 9.79298C91.9279 10.027 91.4205 11.5585 90.9005 13.1962C89.7162 16.9264 89.4756 16.9112 88.1954 13.0262L87.1576 9.87814L86.3548 12.3453C85.9135 13.7026 85.4383 14.8129 85.2989 14.8129C84.8351 14.8129 84.6024 14.1079 84.9287 13.6919C85.3632 13.1377 86.7072 9.04869 86.7072 8.28036C86.7072 7.61115 86.9733 7.52144 87.663 7.95859ZM61.7144 8.65185C61.3367 9.2632 61.9373 11.0693 62.5181 11.0693C63.187 11.0693 63.905 10.4297 63.905 9.83426C63.905 8.84621 62.1723 7.91114 61.7144 8.65185ZM33.5348 11.3323C33.6313 11.6254 33.3622 11.7415 32.7008 11.6911C29.5534 11.4512 30.4062 13.2872 33.7789 14.0114C36.3771 14.5694 36.1401 17.3269 33.4172 18.2255C32.4015 18.5606 32.1194 18.5505 31.8785 18.1709C31.3718 17.3711 31.5425 17.1136 32.4314 17.3366C33.4315 17.5875 34.6366 17.0454 34.6366 16.3443C34.6366 15.7687 33.6011 15.1531 32.6329 15.1531C30.8021 15.1531 29.71 14.0448 30.0818 12.5637C30.4397 11.1379 33.1519 10.1703 33.5348 11.3323ZM97.9495 11.9257C99.5115 12.7172 99.9753 13.3428 99.415 13.9031C99.2915 14.0266 98.9772 13.8238 98.7168 13.452C97.7493 12.0704 97.0183 11.9878 96.4173 13.192C95.8284 14.3728 96.4482 15.406 97.5029 15.001C97.7626 14.9016 97.9381 15.0963 97.9381 15.484C97.9381 16.4334 97.46 16.5744 96.8109 15.8165C96.0244 14.8974 95.662 14.9819 95.0142 16.2345C94.3151 17.5859 95.0575 18.3796 96.6852 18.0221C97.5893 17.8235 97.631 17.8589 97.2754 18.5229C96.8012 19.4089 96.9117 19.4167 94.7786 18.3455C92.5519 17.2268 92.6267 17.3116 93.241 16.6017C93.8712 15.8731 95.5557 12.1887 95.5557 11.5386C95.5557 10.874 96.0228 10.9494 97.9495 11.9257ZM71.1008 13.8001C104.956 17.1494 124.391 40.9539 109.453 60.7773C85.8813 92.0598 13.2831 81.2439 13.3763 46.4636C13.4218 29.4613 30.6571 16.7808 57.9494 13.6698C60.3009 13.4016 67.8279 13.4764 71.1008 13.8001ZM57.9494 14.3406C27.1983 17.5583 8.19232 35.5518 15.5448 54.4863C24.162 76.6784 66.485 85.9813 94.5348 71.8493C125.108 56.4455 117.716 25.0606 81.4572 16.3274C74.6767 14.6942 63.5536 13.7543 57.9494 14.3406ZM73.9447 18.2028C103.103 22.9669 118.953 42.5868 106.39 58.3657L105.027 60.0769H101.312C99.063 60.0769 97.5978 59.9427 97.5978 59.7366C97.5978 59.5494 97.8276 59.3963 98.1084 59.3963C98.3892 59.3963 98.6187 59.1665 98.6187 58.8857C98.6187 58.2555 98.6255 58.2555 96.3582 58.9143C93.6066 59.7145 92.7174 59.0866 93.0437 56.5742C93.1701 55.5995 93.4428 54.6849 93.6492 54.5422C93.8556 54.3995 89.8514 54.3228 84.7509 54.3719C78.8577 54.4288 75.4765 54.5854 75.4749 54.8019C75.4713 55.2007 73.5856 56.3334 72.9245 56.3334C72.6746 56.3334 72.4191 56.4585 72.3567 56.6119C72.2943 56.7653 71.5539 57.2996 70.7118 57.7998L69.18 58.7092L73.3493 58.7125L77.5183 58.7154L77.5826 56.7585L77.647 54.8019L77.7692 56.7374L77.8914 58.6732L80.172 58.5311C87.5756 58.0699 91.1316 58.0787 91.1316 58.5584C91.1316 59.4837 89.5712 60.0863 86.6724 60.2807C85.1006 60.3863 81.9765 60.5953 79.7304 60.7451C77.4842 60.8953 73.1524 61.2034 70.1037 61.4299C67.0554 61.6565 64.3369 61.7559 64.0629 61.6506C63.5267 61.4449 63.3531 59.227 63.8491 58.9202C64.0057 58.8236 64.062 57.8788 63.9742 56.8212C63.8575 55.4168 63.9417 54.8175 64.2853 54.5997C64.6769 54.3517 64.6704 54.2932 64.2453 54.2516C63.9645 54.224 64.271 54.0888 64.9259 53.951L66.1171 53.7001L64.9961 53.6552L63.8748 53.6107L63.9911 51.4107C64.0551 50.2006 64.177 49.143 64.2615 49.0601C64.6177 48.7121 68.3294 48.5122 68.3294 48.8411C68.3294 49.0309 68.1087 49.1863 67.839 49.1863C67.1714 49.1863 66.9637 49.6062 67.1942 50.4886C67.3112 50.9352 67.656 51.2283 68.0645 51.2283C68.6486 51.2283 68.7234 51.4142 68.6112 52.5895C68.54 53.3383 68.6005 53.951 68.7458 53.951C68.8911 53.951 69.01 53.3383 69.01 52.5895C69.01 50.7155 70.6744 50.4736 70.7661 52.3344L70.8207 53.4404L70.9604 52.2993C71.0904 51.2378 71.1701 51.1724 72.097 51.3632C72.6453 51.4763 73.5534 51.6626 74.115 51.7773C75.3212 52.024 75.4492 52.4819 74.3702 52.6896C73.7137 52.816 73.738 52.844 74.5405 52.8836C75.3267 52.9226 75.4762 52.7926 75.4762 52.0695C75.4762 51.2745 75.5734 51.2209 76.7526 51.3645C77.4546 51.45 78.6032 51.5309 79.3049 51.5442C80.3801 51.5647 80.5887 51.6892 80.6277 52.3344C80.6732 53.0874 80.6765 53.0877 80.8172 52.3665C81.086 50.9901 84.9878 51.3177 85.06 52.7224L85.1146 53.7807L85.2517 52.6747C85.373 51.699 85.5111 51.5686 86.4257 51.5686C87.4007 51.5686 87.4544 51.6362 87.3296 52.7068C87.2002 53.8135 87.2324 53.8467 88.4834 53.8957C89.7363 53.9448 89.7701 53.9146 89.7701 52.7572V51.5686H91.4719C92.5919 51.5686 93.1828 51.7139 93.2003 51.9941C93.2218 52.3344 93.2614 52.3344 93.3989 51.9941C93.6885 51.2764 94.5329 51.5221 94.5686 52.3344C94.6005 53.0484 94.6177 53.0543 94.8241 52.4192C95.0929 51.5917 97.188 51.2524 97.6388 51.9635C97.8471 52.2921 97.9293 52.2053 97.9329 51.6538C97.9358 51.2326 97.785 50.888 97.5978 50.888C97.4106 50.888 97.2575 50.4285 97.2575 49.8668C97.2575 49.0728 97.4086 48.846 97.9381 48.846C98.3125 48.846 98.6187 48.6929 98.6187 48.5057C98.6187 48.3185 97.7382 48.1498 96.6618 48.1313C95.5856 48.1124 94.1689 48.0623 93.514 48.0198C92.8587 47.9772 91.2889 47.9161 90.0256 47.8836C87.2909 47.8137 86.3987 46.5231 89.0044 46.4064L90.2807 46.3492L89.0261 46.2169L87.7719 46.0849L87.8788 41.3241C87.9377 38.7055 87.9435 36.6084 87.8915 36.6637C87.5827 36.9916 85.6863 40.9994 85.6863 41.3235C85.6863 41.575 85.9872 41.5175 86.5284 41.1629L87.3702 40.6113L87.3052 43.3672L87.2399 46.1233H85.7848H84.3297L84.3843 44.7322C84.445 43.18 83.572 42.1201 83.3556 43.4832C83.2906 43.8937 83.4053 44.2853 83.6107 44.3539C83.8165 44.4222 83.9845 44.6279 83.9845 44.8106C83.9845 44.9929 83.8314 45.0478 83.6442 44.9321C83.457 44.8164 83.3039 44.9607 83.3039 45.2523C83.3039 45.5441 83.457 45.783 83.6442 45.783C83.8314 45.783 83.9845 46.175 83.9845 46.6537C83.9845 47.1328 83.8421 47.4367 83.6676 47.3291C83.4934 47.2212 83.2548 47.2888 83.1372 47.4789C83.0195 47.6694 82.5879 47.8521 82.1777 47.8849C81.7676 47.918 82.504 48.0331 83.8145 48.1404C85.9872 48.3181 86.2008 48.4033 86.2421 49.1063C86.2798 49.7479 86.2612 49.7622 86.1332 49.1915C85.8793 48.0604 85.0122 48.3685 84.9511 49.6117L84.8965 50.7177L84.7593 49.6117C84.5533 47.9522 81.6021 47.8725 81.6021 49.5265C81.6021 50.0882 81.449 50.5477 81.2618 50.5477C81.0746 50.5477 80.9215 50.0882 80.9215 49.5265C80.9215 48.7325 80.7704 48.5057 80.241 48.5057C79.7417 48.5057 79.5604 48.7325 79.5604 49.3566C79.5604 49.8243 79.407 50.2071 79.2201 50.2071C79.0329 50.2071 78.8795 49.7372 78.8795 49.1625C78.8795 47.6876 77.4565 47.8459 77.1354 49.3566L76.918 50.3774L76.878 49.4414C76.852 48.8378 76.6492 48.5057 76.307 48.5057C76.0151 48.5057 75.8711 48.3526 75.9868 48.1654C76.109 47.9674 75.77 47.8251 75.1762 47.8251C74.6146 47.8251 74.0504 47.6554 73.9223 47.4484C73.7858 47.2271 73.6018 47.2024 73.4767 47.3879C73.2063 47.7903 70.3712 47.5215 70.3712 47.0935C70.3712 46.918 70.6393 46.8192 70.9669 46.8741C71.4389 46.9534 71.5503 46.7516 71.5032 45.901C71.4424 44.7979 72.4994 44.0315 72.9076 44.883C73.0422 45.1642 73.1494 45.1535 73.2931 44.845C73.4029 44.6097 73.6708 44.5333 73.8888 44.6747C74.4043 45.0095 80.565 45.0114 80.3583 44.677C80.2718 44.5366 80.3628 44.4215 80.5611 44.4215C80.7633 44.4215 80.9215 45.119 80.9215 46.0099C80.9215 46.8835 81.0067 47.5127 81.111 47.4087C81.215 47.3044 81.3064 46.4548 81.3135 45.5204C81.3252 43.9944 81.3954 43.8397 82.0045 43.999C82.5859 44.1508 82.6662 44.4121 82.5677 45.8305C82.5047 46.7405 82.5785 47.4848 82.7315 47.4848C83.4862 47.4841 82.8333 42.0323 82.0142 41.4957C81.2339 40.9841 81.2264 40.9409 81.8098 40.2964C82.3929 39.6519 82.388 39.6207 81.6681 39.4325C80.9722 39.2505 80.9189 39.0269 80.8832 36.129C80.8621 34.4195 80.7902 30.7998 80.723 28.0859L80.6011 23.1508L78.3695 23.0501L76.1383 22.9493L76.2325 24.2413L76.3265 25.5332L78.2837 25.4178L80.241 25.3028V26.8645V28.4262L78.9646 28.4843C78.2629 28.5162 77.4006 28.5581 77.0493 28.5773C76.4506 28.6098 76.4126 28.9514 76.4516 33.9654L76.4932 39.3188L73.9236 39.2801C70.9923 39.2362 70.8854 39.2866 71.2045 40.5593C71.3934 41.3114 71.5065 41.3972 71.7857 41.0007C72.045 40.6315 72.0814 40.7212 71.9296 41.3586C71.8185 41.8266 71.5406 43.1666 71.3121 44.3367C70.7658 47.1338 70.4453 47.033 70.4986 44.0812C70.5389 41.8441 70.496 41.6985 69.7969 41.6989C69.2863 41.6989 69.0458 41.913 69.0311 42.3798C69.0194 42.7539 69.0006 43.3665 68.9889 43.7409C68.9769 44.1251 68.7338 44.4215 68.4308 44.4215C68.1354 44.4215 67.6979 44.6893 67.4587 45.0166C66.86 45.8357 66.5353 45.3894 66.9455 44.3107C67.1308 43.8235 67.1519 43.3441 66.9923 43.2456C66.8327 43.1468 66.602 43.6008 66.4794 44.2545C66.2578 45.4356 65.6068 45.926 65.6068 44.912C65.6068 44.6201 65.4511 44.4777 65.261 44.5951C65.0705 44.7127 65.0029 44.9516 65.1108 45.1258C65.2184 45.3 65.128 45.4427 64.9096 45.4427C64.6876 45.4427 64.6038 45.2055 64.7195 44.9042C64.8329 44.6081 64.9259 44.2252 64.9259 44.0536C64.9259 43.8817 65.1557 43.7409 65.4365 43.7409C66.0865 43.7409 66.1018 43.1923 65.4586 42.9456C65.1209 42.8163 64.8082 43.1995 64.4465 44.1856C63.9645 45.4989 63.9251 45.5314 63.9502 44.5918C64.1865 35.7017 63.851 24.342 63.3521 24.342C62.9189 24.342 62.8432 24.5637 63.0031 25.3632C63.1155 25.9245 63.0645 26.3841 62.89 26.3841C62.7154 26.3841 62.2536 27.455 61.8639 28.7639C61.4739 30.0727 60.6252 32.1424 59.9775 33.3632C58.8195 35.5466 58.5282 36.5941 59.0798 36.5941C59.5663 36.5941 61.6773 33.8679 62.0634 32.7408C62.5272 31.388 63.0024 31.4621 63.2244 32.9221C63.632 35.6042 63.2114 45.5103 62.6982 45.3134C62.4258 45.209 62.2035 45.2721 62.2035 45.4534C62.2035 45.6345 62.433 45.783 62.7138 45.783C63.434 45.783 63.3528 46.7954 62.6286 46.8435C62.0615 46.8809 62.0615 46.8903 62.6286 47.0385C62.9563 47.124 63.2244 47.5056 63.2244 47.8862C63.2244 48.2996 63.0528 48.5131 62.799 48.4166C62.2273 48.1992 60.842 48.7361 60.842 49.1752C60.842 49.5841 61.5905 49.4976 61.9136 49.0517C62.0352 48.884 62.3478 48.8284 62.6082 48.9285C63.1493 49.1362 63.4951 61.7787 62.9595 61.7787C61.3842 61.7787 59.1737 60.6658 59.0596 59.8149C58.9472 58.9767 58.9066 59.0177 58.6466 60.2303C58.4454 61.1683 58.4766 61.6139 58.7493 61.7049C60.0994 62.1547 58.5113 62.4541 54.2907 62.5451L49.4411 62.6497L55.5842 62.7245L61.7274 62.7996L62.4759 64.3401C63.8062 67.0784 64.7494 66.874 50.3768 66.9624L37.5293 67.0414L50.462 67.2178L63.3944 67.394L63.5013 68.5L63.6079 69.6061H50.5969C43.441 69.6061 37.6576 69.6776 37.7451 69.765C38.0256 70.0458 68.4737 70.1956 69.18 69.9197C69.7091 69.7133 69.5853 69.6486 68.6242 69.6301C67.6729 69.6116 67.3453 69.4442 67.2042 68.9047C66.9764 68.0336 67.786 67.6527 68.5381 68.2771C69.7387 69.2732 72.7188 68.9976 74.0816 67.7645C74.7596 67.1512 95.2154 66.9237 95.2154 67.5298C95.2154 67.9023 92.6683 69.2658 91.9718 69.2658C91.6968 69.2658 91.4719 69.4029 91.4719 69.5703C91.4719 69.9223 86.4429 71.978 83.5483 72.8097C74.5239 75.4024 60.4406 76.0784 51.1426 74.3649C45.4554 73.3171 45.2842 73.0385 50.2917 72.9826C53.9104 72.942 54.3173 72.8864 53.0143 72.6102C52.1722 72.4314 49.6946 72.3567 47.5089 72.4441C43.0607 72.6216 42.1799 72.4028 36.1752 69.6288C33.0375 68.1789 26.1254 63.7805 24.9693 62.4979L24.3213 61.7787L28.3729 61.7546C30.9532 61.7394 32.1772 61.6246 31.7437 61.4381C31.3692 61.2772 29.3447 61.1348 27.2441 61.1218L23.4252 61.0978L21.5667 58.4603C16.1994 50.8425 16.0405 42.6183 21.1153 35.1072C29.4786 22.7293 53.873 14.9234 73.9447 18.2028ZM67.1623 27.8853C66.4271 28.5198 65.623 28.9611 65.3757 28.8662C65.0383 28.7366 64.9259 29.1383 64.9259 30.4734C64.9259 32.6146 65.4729 32.4024 66.824 29.736C68.3691 26.6864 69.7598 27.2506 71.7951 31.7534L72.4532 33.2088L73.4543 32.496C74.8486 31.5031 74.7196 32.2614 73.1699 34.1643C70.8613 37.0001 70.8542 37.1161 73.0938 35.3744L75.3062 33.6544L75.407 30.9662L75.5077 28.278L74.6939 29.0424C73.9516 29.7399 72.7536 29.7945 72.7536 29.1308C72.7536 28.7778 70.0933 27.09 69.2317 26.8963C68.7328 26.7842 68.0737 27.0991 67.1623 27.8853ZM81.6021 27.6302C81.6021 28.1678 83.6725 31.1488 84.0456 31.1488C84.3108 31.1488 83.3686 29.6511 81.7084 27.4336C81.6499 27.3556 81.6021 27.444 81.6021 27.6302ZM50.632 28.9364C50.1451 29.4548 49.4567 29.7873 48.871 29.7873C48.2798 29.7873 47.9093 29.9684 47.9093 30.2576C47.9093 31.5314 44.8993 33.4213 44.3319 32.5035C43.351 30.9161 40.1752 30.2456 38.7205 31.3188C38.0863 31.7868 37.3096 32.1697 36.9943 32.1697C36.6793 32.1697 36.2178 32.4151 35.9692 32.7148C35.7202 33.0147 34.2837 34.072 32.7769 35.0643C31.2698 36.0569 29.7461 37.1899 29.3912 37.5822C29.0359 37.9745 28.4301 38.2956 28.045 38.2956C27.6595 38.2956 25.7513 39.0997 23.8045 40.0825L20.2651 41.8692L22.1888 41.9715C24.0047 42.0684 24.1974 41.9992 25.6275 40.7407C26.4621 40.0058 27.8318 39.2141 28.6774 38.9772C29.5215 38.7409 30.2122 38.4168 30.2122 38.2573C30.2122 37.8367 33.4617 36.2535 34.3249 36.2535C35.1892 36.2535 37.2634 34.5257 38.1679 33.0521C38.8784 31.8947 39.6984 31.1758 40.3264 31.1595C40.756 31.1482 43.1897 34.2605 43.5872 35.3295C43.8001 35.9015 43.8642 35.9038 44.6809 35.3685C46.2293 34.3541 46.0382 35.2054 44.3156 36.9952L42.6343 38.7422L43.9958 37.9485C46.6703 36.3897 47.324 35.7849 48.0006 34.243C48.3783 33.3836 49.0534 32.2207 49.5012 31.6591C49.9494 31.0978 50.6827 30.1787 51.1309 29.6173C51.7851 28.7977 52.0315 28.6803 52.3783 29.0216C52.6159 29.2556 52.9711 29.4418 53.1674 29.4357C53.5548 29.4233 52.0757 28.0859 51.6746 28.0859C51.541 28.0859 51.0717 28.4687 50.632 28.9364ZM84.6758 30.1276C85.0983 30.9701 85.7838 32.1187 86.1988 32.6803C86.6139 33.2416 87.4589 34.6649 88.0764 35.8427C89.0885 37.7723 92.7199 41.6989 93.4922 41.6989C93.6462 41.6989 93.8361 40.8184 93.9141 39.7419C94.0301 38.1373 94.2349 37.6056 95.0513 36.7892C96.1554 35.6851 95.804 35.2684 94.2622 35.8534C91.2317 37.004 89.7672 36.4846 88.4047 33.7766C87.5925 32.1622 87.0624 31.5021 85.201 29.7873L83.9078 28.5961L84.6758 30.1276ZM53.6514 32.3894C54.5767 34.1565 55.9593 35.7998 56.2652 35.4966C56.4969 35.2668 53.98 31.7053 53.2802 31.2727C53.1063 31.1654 53.2734 31.6679 53.6514 32.3894ZM56.1176 33.3219C56.5772 34.0489 57.1004 34.6236 57.2808 34.5982C57.9419 34.5053 57.5795 33.7659 56.4459 32.8938L55.2826 31.9994L56.1176 33.3219ZM98.2761 36.6318C99.1173 37.4532 99.8131 38.202 99.8222 38.2956C99.9766 39.8648 100.831 41.027 102.22 41.5571C104.814 42.5481 104.463 41.6878 101.419 39.5931C100.553 38.9976 100.019 38.4529 100.231 38.3824C100.443 38.3115 100.052 37.7613 99.3623 37.1597C97.2877 35.35 96.6432 35.0363 98.2761 36.6318ZM46.685 37.1971C45.6264 38.0694 42.892 41.1899 43.4852 40.8493C44.7118 40.1446 46.4373 38.7922 47.1419 37.9823C48.3507 36.5935 48.0484 36.0741 46.685 37.1971ZM81.6021 39.9974C81.6021 40.2093 79.667 40.3377 76.4773 40.3377C73.1472 40.3377 71.4259 40.2184 71.5624 39.9974C71.6869 39.7959 73.778 39.6571 76.6876 39.6571C79.7372 39.6571 81.6021 39.7861 81.6021 39.9974ZM75.7164 42.8052C75.6355 43.2261 75.5688 42.8816 75.5688 42.0395C75.5688 41.197 75.6355 40.8525 75.7164 41.2737C75.7977 41.6946 75.7977 42.384 75.7164 42.8052ZM89.6557 42.2673C89.5302 42.3928 89.6622 42.8536 89.9492 43.2918C90.3126 43.8459 90.3434 44.0611 90.0509 43.9996C89.8198 43.9509 89.6216 44.0643 89.6102 44.2515C89.5988 44.4387 89.4682 44.7833 89.3196 45.0173C89.1708 45.2513 89.1734 45.4518 89.3248 45.4632C89.476 45.4746 90.2892 45.5285 91.1316 45.5831C91.9737 45.638 93.6203 45.9956 94.79 46.3778C95.96 46.76 96.9172 47.0447 96.9172 47.0103C96.9172 46.9761 96.6107 46.3472 96.2366 45.6127C95.6939 44.5486 95.5557 44.4345 95.5557 45.0504C95.5557 45.4872 95.4056 45.73 95.2099 45.6095C95.0198 45.4918 94.9622 45.2367 95.0825 45.0423C95.2236 44.8138 95.0305 44.7748 94.5348 44.9321C94.0541 45.0849 93.8474 45.0481 93.9797 44.834C94.0957 44.6464 93.9618 44.4053 93.682 44.2977C93.4025 44.1904 93.1734 43.8869 93.1734 43.6233C93.1734 43.3594 92.9559 42.9628 92.6897 42.7422C92.2893 42.41 92.2409 42.476 92.4086 43.126C92.5851 43.8111 92.5419 43.8547 92.0699 43.4676C91.6136 43.0938 91.5038 43.1205 91.3695 43.6379C91.2233 44.2025 91.2073 44.2041 91.1709 43.6558C91.1491 43.3285 90.9785 43.0603 90.7913 43.0603C90.6041 43.0603 90.451 42.8306 90.451 42.5497C90.451 42.0177 90.0483 41.8747 89.6557 42.2673ZM92.4606 45.0527C91.9578 45.2256 91.7023 44.8749 91.9909 44.4079C92.1739 44.1118 92.3117 44.128 92.5246 44.4703C92.693 44.7417 92.6667 44.9818 92.4606 45.0527ZM68.8872 46.0953C68.828 47.7646 68.9145 47.7006 66.3725 47.9642C64.1634 48.1933 63.8241 47.9723 64.5908 46.8039C64.8683 46.3814 64.9772 46.3729 65.2229 46.7542C65.4612 47.1231 65.6724 47.1331 66.2874 46.8039C66.9 46.4759 67.111 46.4844 67.3342 46.8458C67.5416 47.1816 67.6953 47.0811 67.93 46.4555C68.1113 45.9731 68.1178 45.5639 67.9456 45.4986C67.5195 45.3371 67.9381 44.7618 68.4819 44.7618C68.7893 44.7618 68.9193 45.1892 68.8872 46.0953ZM53.4434 46.0193C53.251 46.5445 52.8954 47.6632 52.6532 48.5057C52.0328 50.6654 51.8664 50.8588 51.6294 49.6969L51.4214 48.6757L50.9794 49.6969L50.5377 50.7177L50.1207 49.1863C49.8861 48.325 49.6293 47.8781 49.5337 48.1654C49.4401 48.4462 49.2243 49.1352 49.0537 49.6969C48.6048 51.1763 48.1063 50.8214 47.9018 48.8765C47.8043 47.9466 47.6298 47.0915 47.5141 46.9758C47.3064 46.7681 46.2826 49.7456 46.111 51.058C45.8988 52.6776 45.3167 51.8774 44.7908 49.2441C44.1479 46.0251 43.9808 45.7063 43.5317 46.8452C43.0175 48.1495 42.1237 51.2673 42.1237 51.7578C42.1237 54.0573 41.0518 51.6863 40.5964 48.3796C40.3059 46.2686 39.9646 46.6388 39.0828 50.0215C37.8423 54.7811 36.744 54.3296 35.8187 48.6802C35.5782 47.2124 34.6776 47.7 34.6057 49.3364C34.5872 49.7612 34.4475 49.5678 34.2508 48.846C33.5098 46.1236 33.3665 46.1974 32.5949 49.6969C32.3472 50.8198 32.016 51.8842 31.859 52.062C31.702 52.2398 31.5737 52.661 31.5737 52.998C31.5737 53.3897 31.3208 53.6107 30.8729 53.6107C30.4875 53.6107 30.2645 53.4612 30.3773 53.2785C30.5583 52.9857 30.0545 49.548 29.6284 48.1654C29.4481 47.5804 28.2156 51.2251 28.0758 52.7569C27.8977 54.7093 26.9887 54.161 26.8847 52.0379C26.74 49.0949 26.3692 48.91 25.6496 51.4224C24.9037 54.0267 24.4136 54.0755 23.8636 51.6001C23.3439 49.2594 23.1902 49.1713 22.7144 50.94C22.0081 53.5652 21.7731 53.951 20.8806 53.951C19.4356 53.951 19.5916 54.5591 21.1068 54.8321C21.9031 54.9754 24.2393 55.1292 26.2983 55.174C33.0603 55.3203 41.9453 55.839 42.3857 56.113C42.6232 56.2609 43.3152 56.2173 43.923 56.0168C44.5308 55.8163 47.7822 55.6209 51.1484 55.5829C56.8512 55.5185 57.3085 55.4662 57.8529 54.8175C58.8936 53.5769 58.6348 52.9298 57.0985 52.9298C56.3497 52.9298 55.7367 52.8918 55.736 52.845C55.7269 52.0994 54.2722 45.5431 54.071 45.3423C53.9182 45.1895 53.6358 45.4941 53.4434 46.0193ZM87.3877 47.1806C87.3877 47.6948 87.2353 47.8394 86.8495 47.6912C86.5534 47.5774 85.8644 47.4845 85.318 47.4845C84.6621 47.4845 84.3248 47.3112 84.3248 46.9742C84.3248 46.5959 84.722 46.4636 85.8563 46.4636C87.1869 46.4636 87.3877 46.5578 87.3877 47.1806ZM74.8808 48.6019C75.4798 48.6516 76.0531 49.744 75.6774 50.1194C75.5669 50.2302 75.4739 50.0271 75.471 49.6683C75.4668 49.1372 75.4076 49.1083 75.1515 49.5132C74.8805 49.9419 74.7488 49.9302 74.194 49.4281C73.3847 48.6955 73.1826 48.6978 72.9882 49.4414C72.8732 49.8824 72.8225 49.835 72.7932 49.2584C72.7575 48.5541 72.6235 48.4956 71.3924 48.6441C70.4372 48.7592 70.0309 48.6802 70.0309 48.3789C70.0309 48.0474 70.5142 48.0181 72.1581 48.2509C73.3279 48.4166 74.5532 48.5746 74.8808 48.6019ZM91.103 48.2902C91.0253 48.3591 89.9658 48.5031 88.7492 48.61C87.3621 48.7322 86.8544 48.6981 87.3877 48.519C88.2221 48.2388 91.3822 48.0445 91.103 48.2902ZM93.514 48.8141C93.514 48.9838 93.8201 49.0426 94.1946 48.9444C94.7676 48.7946 94.8751 48.934 94.8751 49.8272C94.8751 51.031 94.2193 51.2972 94.1481 50.1223L94.1019 49.3566L93.9544 50.1223C93.8588 50.6176 93.5621 50.888 93.1136 50.888C92.6208 50.888 92.4798 50.732 92.6267 50.3495C92.7401 50.0534 92.8331 49.5174 92.8331 49.1583C92.8331 48.7995 92.9865 48.5057 93.1734 48.5057C93.3606 48.5057 93.514 48.6445 93.514 48.8141ZM92.0468 50.4626C91.961 50.7902 91.8912 50.5221 91.8912 49.8668C91.8912 49.2119 91.961 48.9438 92.0468 49.2714C92.1323 49.599 92.1323 50.135 92.0468 50.4626ZM95.7904 50.4626C95.7049 50.7902 95.6347 50.5221 95.6347 49.8668C95.6347 49.2119 95.7049 48.9438 95.7904 49.2714C95.8762 49.599 95.8762 50.135 95.7904 50.4626ZM96.9172 49.9351C96.9172 50.6365 96.7999 50.9069 96.588 50.695C96.4069 50.5139 96.3481 50.0238 96.4576 49.6058C96.7378 48.5339 96.9172 48.6623 96.9172 49.9351ZM100.91 51.4627C100.809 52.3571 100.49 53.234 100.185 53.4573C98.8264 54.4505 99.5508 54.8019 102.96 54.8019C106.758 54.8019 107.964 54.509 107.64 53.6656C107.522 53.3556 107.268 52.3737 107.077 51.4841C106.639 49.4437 106.305 49.4362 105.908 51.4581C105.514 53.467 104.934 53.6757 104.372 52.0116L103.935 50.7177L103.635 52.1845C103.248 54.0784 102.674 53.8795 102.026 51.6268C101.4 49.4492 101.141 49.4112 100.91 51.4627ZM59.3525 51.7519C59.2358 52.0562 59.1562 52.637 59.1753 53.0429C59.1971 53.5093 59.3128 53.3435 59.4896 52.5918C59.7867 51.3271 59.7061 50.8312 59.3525 51.7519ZM96.3215 53.5164C95.7101 53.5922 95.2154 53.8519 95.2154 54.0969C95.2154 54.4353 95.5574 54.4739 96.6618 54.2604C97.4574 54.1063 98.2322 53.9737 98.3837 53.9656C98.5351 53.9575 98.5644 53.7979 98.4487 53.6107C98.333 53.4235 98.0557 53.2948 97.8331 53.3247C97.6101 53.3546 96.9299 53.441 96.3215 53.5164ZM60.0438 55.4821C60.7592 57.5821 61.1787 57.7179 60.5209 55.6365C60.2297 54.7145 59.8855 53.9578 59.7565 53.9555C59.6274 53.9529 59.7568 54.64 60.0438 55.4821ZM95.5557 56.6841C94.152 57.0169 93.3362 57.3039 93.7431 57.3217C94.7344 57.3653 98.0265 56.6314 98.4315 56.2762C98.8407 55.918 98.712 55.9362 95.5557 56.6841ZM104.404 60.7884C104.404 61.897 93.3924 63.0098 91.7147 62.0712C91.43 61.9116 90.9665 62.0013 90.5859 62.2893C90.0168 62.7199 90.635 62.7791 95.8112 62.7888C101.825 62.7999 102.371 62.9374 100.746 64.0323C99.624 64.788 85.6863 65.2538 85.6863 64.5355C85.6863 64.3294 86.1163 64.1607 86.6421 64.1607C87.8278 64.1607 88.8331 63.4626 88.471 62.8902C88.2721 62.5759 87.5262 62.7671 85.4994 63.6518C84.0111 64.3015 82.4871 64.8507 82.1127 64.8722C81.7234 64.8946 81.9177 65.0259 82.5668 65.1797C83.1911 65.3272 84.0664 65.3496 84.512 65.2297C85.618 64.932 98.6187 65.1465 98.6187 65.4627C98.6187 65.6018 98.1741 65.9785 97.6303 66.2997C96.1684 67.1632 78.0065 67.1954 78.337 66.3338C78.649 65.5209 75.7635 66.0149 73.712 67.1255C72.5127 67.7746 71.838 67.9351 70.9894 67.7736C67.684 67.1444 67.0602 67.1512 65.5213 67.8321L63.9723 68.5172L63.8455 67.6153C63.7756 67.119 63.7753 65.9093 63.8449 64.9265L63.9706 63.1399H65.9552C67.0466 63.1399 69.0611 62.9972 70.4316 62.8226C71.8022 62.6484 75.6803 62.3286 79.0498 62.1125C82.4189 61.896 86.1712 61.599 87.3877 61.452C88.8539 61.2752 89.6775 61.3064 89.8293 61.545C89.983 61.7862 90.2537 61.7439 90.6506 61.4163C91.1063 61.0399 91.2749 61.0253 91.3854 61.3532C91.5778 61.9249 92.3156 61.8915 92.8165 61.2882C93.3953 60.5907 104.404 60.1159 104.404 60.7884ZM29.957 62.7131C31.9692 62.7732 35.262 62.7732 37.2741 62.7131C39.2863 62.653 37.6401 62.6039 33.6154 62.6039C29.5911 62.6039 27.9449 62.653 29.957 62.7131ZM45.2718 62.6939C45.5994 62.7794 46.1354 62.7794 46.463 62.6939C46.7906 62.6081 46.5225 62.5382 45.8676 62.5382C45.2123 62.5382 44.9442 62.6081 45.2718 62.6939ZM63.5647 64.229C63.5647 65.3916 63.1269 65.2222 62.7291 63.9056C62.5578 63.3388 62.6364 63.1399 63.0313 63.1399C63.4045 63.1399 63.5647 63.4668 63.5647 64.229ZM33.02 65.0952C34.845 65.1566 37.8315 65.1566 39.6565 65.0952C41.4815 65.034 39.9883 64.984 36.3381 64.984C32.6882 64.984 31.195 65.034 33.02 65.0952ZM79.9007 65.7208C79.1031 66.1632 79.0949 66.1931 79.7739 66.1979C80.1721 66.2005 80.6885 65.973 80.9215 65.6922C81.4347 65.074 81.0467 65.0847 79.9007 65.7208ZM34.8918 66.1167C37.1847 66.1755 40.9371 66.1755 43.2301 66.1167C45.523 66.0579 43.6467 66.0098 39.0607 66.0098C34.4748 66.0098 32.5988 66.0579 34.8918 66.1167ZM72.2036 71.7239C76.9349 71.9211 80.1002 71.915 80.8822 71.7063C81.7565 71.4733 79.6007 71.3832 73.4341 71.3959L64.7559 71.4135L72.2036 71.7239ZM86.0266 77.9164C86.0266 77.9947 86.1237 78.3119 86.2424 78.621C86.4276 79.1037 86.2827 79.1505 85.2212 78.9512C84.2117 78.7621 83.9845 78.8209 83.9845 79.272C83.9845 79.8938 85.1958 84.4027 85.4913 84.8808C85.6661 85.1636 84.9735 85.6017 84.3511 85.6017C84.2091 85.6017 83.9049 84.7213 83.6754 83.6448C82.7686 79.3959 82.4423 78.9181 81.2108 80.0326C80.6407 80.5484 80.5793 80.5474 80.3762 80.0179C80.095 79.285 79.9813 79.3504 82.9636 78.5294C85.7607 77.7594 86.0266 77.7061 86.0266 77.9164ZM43.7059 78.375C43.9207 78.5125 44.2096 79.5438 44.3478 80.667C44.7775 84.1622 44.8421 84.1908 46.672 81.6986C49.198 78.2583 50.0349 78.5066 48.9305 82.3685C48.5561 83.6776 48.2499 85.1812 48.2499 85.7093C48.2499 86.5111 48.1232 86.6519 47.4842 86.5612C46.6252 86.439 46.617 86.2397 47.3639 83.5756C48.0601 81.0925 47.9256 81.1061 46.0106 83.7144C44.1131 86.2986 44.0322 86.2726 43.3997 82.8791L42.9239 80.3267L42.477 81.8582C42.2313 82.7003 42.0259 83.8171 42.0203 84.3394C42.0132 85.0235 41.8595 85.2582 41.4714 85.1772C40.8519 85.0482 40.8633 84.7599 41.5868 82.1985C41.8777 81.1688 42.1175 79.8288 42.1198 79.2204C42.124 78.103 42.7549 77.7666 43.7059 78.375ZM78.8795 80.1239C78.8795 80.6839 78.6939 80.7473 77.5183 80.5897L76.1568 80.407V81.6538C76.1568 83.1485 76.8198 83.5323 78.0315 82.7383C78.8574 82.1972 78.8795 82.205 78.8795 83.0328C78.8795 83.795 78.7745 83.8619 77.8638 83.6799C76.6492 83.4371 76.266 84.068 76.7558 85.5055C77.1049 86.5306 77.922 86.62 78.9064 85.7412C79.6351 85.0905 79.9007 85.1379 79.9007 85.9193C79.9007 86.6356 79.5321 86.7942 77.0928 87.1254L75.4762 87.3451V86.1796C75.4762 85.0589 74.9767 81.9596 74.6058 80.7801C74.4622 80.3238 74.7794 80.1486 76.228 79.8847C78.8359 79.4095 78.8795 79.4134 78.8795 80.1239ZM55.918 83.4745C56.2525 85.1126 56.6675 86.7338 56.8398 87.0773C57.0124 87.4208 57.0826 87.7728 56.9961 87.8596C56.6984 88.157 55.0441 87.5668 55.0905 87.18C55.4445 84.2285 52.7374 83.4901 52.1118 86.3675C51.9779 86.9834 51.6902 87.3035 51.2703 87.3035C50.5078 87.3035 50.4877 87.1709 51.1013 86.1855C51.359 85.7707 52.2083 84.3212 52.988 82.9642C54.8409 79.7394 55.1669 79.7963 55.918 83.4745ZM72.4133 80.6478C72.4133 80.731 71.878 81.382 71.2237 82.0945C69.7247 83.7267 69.7251 83.7322 71.5552 85.8244C73.0379 87.5193 73.0574 87.5713 72.2716 87.7215C71.6244 87.8453 71.2019 87.545 70.1518 86.2153C68.7624 84.4567 68.3691 84.629 68.9522 86.7406C69.2609 87.859 69.231 87.9243 68.3519 88.0533C67.436 88.1879 67.4259 88.1677 67.3784 86.1296C67.3521 84.9969 67.2348 83.3429 67.1174 82.4536C66.9098 80.8805 66.9283 80.837 67.7997 80.837C68.5212 80.837 68.6827 80.9862 68.6297 81.6027C68.5933 82.024 68.5875 82.8128 68.6168 83.3555L68.6697 84.3426L69.6906 82.933C70.2522 82.1579 70.7118 81.2927 70.7118 81.0102C70.7118 80.6894 71.031 80.4967 71.5624 80.4967C72.0304 80.4967 72.4133 80.565 72.4133 80.6478ZM63.489 81.3668C64.4822 82.0626 64.4474 83.0646 63.3957 84.0394L62.5464 84.8266L63.7363 86.385C65.1059 88.1788 65.1485 88.3244 64.3048 88.3244C63.6391 88.3244 62.5363 87.2739 61.8935 86.0272C61.2421 84.7635 60.7286 85.0954 60.9727 86.6226C61.1729 87.8739 61.128 87.9841 60.4208 87.9841C59.67 87.9841 59.6508 87.895 59.6508 84.4109V80.8376L61.1918 80.8373C62.0391 80.8373 63.0729 81.0755 63.489 81.3668ZM61.1823 82.5388C61.1823 83.1004 61.155 83.6747 61.1216 83.8151C61.0881 83.9555 61.3075 84.1177 61.6091 84.1759C62.4028 84.3286 63.0034 83.0575 62.5438 82.1985C61.9802 81.1454 61.1823 81.345 61.1823 82.5388ZM53.7161 82.8401C53.2766 83.6614 53.4872 84.2402 54.2257 84.2402C54.7691 84.2402 54.8705 83.3097 54.407 82.5778C54.1688 82.2017 54.0294 82.2547 53.7161 82.8401Z" />
</svg>
