<svg viewBox="0 0 128 118" fill="none" xmlns="http://www.w3.org/2000/svg">
<path fill-rule="evenodd" clip-rule="evenodd" d="M78.5008 117.082C77.1518 117.483 75.7417 117.637 74.3377 117.537C72.9751 117.728 71.5865 117.509 70.3482 116.908C69.9686 116.436 69.7689 115.845 69.7844 115.239C69.785 114.604 69.858 113.971 70.0014 113.352C70.2345 112.648 70.2345 111.888 70.0014 111.184C69.6762 110.707 68.462 110.902 67.8333 110.556C67.2045 110.209 66.9659 109.276 66.7489 108.279C66.7489 107.953 66.4892 107.672 66.467 107.412C66.4187 105.661 66.6382 103.914 67.118 102.23C67.5081 100.538 67.9847 98.9774 68.2666 97.438C68.6901 94.983 68.8212 92.4866 68.6574 90.0013C68.5282 88.9064 68.5282 87.8004 68.6574 86.7055C68.8305 85.7083 69.2428 84.8842 69.4592 83.9086C69.4592 83.5834 69.4592 83.215 69.4592 82.8681C69.4592 82.5207 69.6762 82.326 69.6978 82.0657C69.6632 81.3028 69.5835 80.5424 69.4592 79.7887C69.3832 77.3956 69.4407 74.9993 69.6329 72.6123C69.6329 71.9403 70.0014 71.2028 69.5241 70.8992C67.343 70.9654 65.1687 71.1898 63.0197 71.5718C56.8754 72.4009 50.6415 72.3063 44.5253 71.2899C44.0049 71.1811 43.4845 71.1811 42.9859 71.0513C39.2283 70.2334 35.6971 68.5975 32.6436 66.2594C32.2317 65.9342 31.7113 65.5657 31.2343 65.1756C30.791 64.7719 30.312 64.409 29.8033 64.0913C28.7537 63.6944 27.606 63.635 26.5212 63.9231C25.4364 64.2106 24.4688 64.8307 23.7541 65.6956C23.4072 66.2594 23.147 67.0186 22.8001 67.6906C22.4532 68.3626 22.1714 69.0346 21.8678 69.685C20.3935 73.068 18.7456 76.19 17.2496 79.6806C16.2993 81.7368 15.4809 83.8517 14.7995 86.0118C13.4335 90.6733 14.7995 96.8525 15.7752 101.319C15.9052 101.739 16.0573 102.151 16.2305 102.555C16.5937 103.76 17.2405 104.86 18.1168 105.764C18.5504 106.132 19.2876 106.371 19.7647 106.783C20.3999 107.524 20.919 108.358 21.304 109.255C21.4992 109.623 21.7811 110.035 22.0412 110.491C22.605 111.488 22.8001 112.377 21.6943 112.962C20.6592 113.372 19.5551 113.577 18.4421 113.569C17.9217 113.721 18.0951 114.437 17.7699 114.784C17.3464 115.056 16.8866 115.268 16.404 115.412C14.6587 115.836 12.8373 115.836 11.0919 115.412C10.7893 115.325 10.5071 115.178 10.2615 114.981C10.0158 114.784 9.81177 114.539 9.66092 114.263C9.35737 113.331 10.0945 112.095 9.42241 111.401C9.14056 111.098 8.51182 111.141 7.94806 110.902C7.06256 110.491 6.37089 109.753 6.01839 108.842C5.10776 106.544 5.6498 102.924 5.56307 100.17C5.56307 99.3458 5.4113 98.4568 5.38962 97.5462C5.38962 95.8769 4.9343 94.2294 4.76085 92.5811C4.6265 91.8498 4.45279 91.1258 4.24049 90.413C3.98031 89.2205 3.78517 87.9413 3.43826 86.7488C3.0236 85.5476 3.0236 84.2425 3.43826 83.0412C3.54667 82.7161 3.89357 82.4341 4.06703 82.0008C4.30986 81.3646 4.42052 80.6858 4.39226 80.0057C4.21881 79.6806 3.41658 80.0057 3.19976 79.6156C2.72276 76.0163 2.18071 72.3737 1.89885 68.6013C1.81212 67.2133 1.81212 65.9126 1.68203 64.6118C1.44354 62.0319 1.68203 59.4082 1.40017 56.9147C1.40017 55.6789 0.988216 54.5514 0.83644 53.3589C0.0504285 49.7436 -0.183497 46.03 0.142626 42.3445C0.506545 40.2878 1.37023 38.352 2.65771 36.7073C3.54493 35.5533 4.51601 34.4662 5.56307 33.455C6.6146 32.4432 7.73773 31.5084 8.92375 30.6581C9.69319 30.0437 10.5211 29.5063 11.3955 29.0536C13.6009 28.0359 15.9749 27.4332 18.3987 27.2757C21.1424 27.098 23.8971 27.2143 26.6161 27.6226C29.1095 28.078 31.6029 28.5116 34.0529 28.9885C36.503 29.4656 38.8012 30.116 41.0562 30.7014C41.3597 30.7014 41.6199 30.9616 41.9234 31.0484C42.639 31.2435 43.4629 31.2868 44.2651 31.5036C46.7117 32.1082 49.2252 32.3996 51.7453 32.3709C54.3121 32.4513 56.8797 32.2403 59.399 31.7421C59.7267 31.6285 60.0455 31.4908 60.353 31.3302C60.7216 31.2001 61.1552 31.3302 61.5021 31.1134C61.8488 30.8966 61.9792 30.7665 62.2395 30.6581C63.5211 30.0432 64.7477 29.3178 65.9038 28.4899C66.8113 27.7984 67.8017 27.2229 68.8521 26.777C69.4159 26.5602 69.9798 26.2784 70.5219 26.1049C71.6892 25.7944 72.8168 25.3506 73.8826 24.7823C75.1815 23.844 76.4063 22.8074 77.5469 21.6818C78.7611 20.5977 80.0186 19.5136 81.2977 18.5379C83.9208 16.3697 86.5879 14.5485 89.0596 12.5538C90.3387 11.4777 91.7013 10.5061 93.1355 9.6484C97.4156 6.48672 102.759 5.11783 108.031 5.83238C108.51 5.97562 109.006 6.0487 109.506 6.04919C109.961 6.04919 110.308 5.26868 110.589 4.74831C111.217 3.74313 111.768 2.69223 112.238 1.60445C112.649 0.780546 112.432 0 113.256 0C114.081 0 113.972 2.16818 114.016 3.03545C113.948 4.0389 113.948 5.04574 114.016 6.04919C114.118 6.3622 114.307 6.63997 114.56 6.85085C114.813 7.06167 115.12 7.19712 115.446 7.2417C115.902 7.2417 116.205 6.87311 116.639 6.61296C117.033 6.42353 117.417 6.21364 117.788 5.98416C118.553 5.35195 119.278 4.67122 119.956 3.9461C120.52 3.3607 121.409 1.99472 122.363 2.12482C123.967 2.29827 122.363 4.70498 122.016 5.48549C121.17 7.35013 120.346 8.73775 119.392 10.5157C118.981 11.2312 118.07 12.2069 118.07 12.9657C118.07 13.7246 118.525 13.833 118.764 14.3967C119.002 14.9604 118.937 14.9388 119.046 15.1772C119.603 16.6981 120.08 18.2469 120.477 19.8172C120.845 21.0747 121.149 22.4407 121.604 23.6982C122.059 24.9558 122.71 26.0832 123.209 27.2757C123.339 27.6009 123.36 27.9912 123.491 28.3164C124.531 30.9833 125.55 34.0188 126.807 36.5772C127.493 37.7644 127.9 39.0912 128 40.4583C127.874 41.861 127.296 43.1849 126.352 44.2309C125.941 44.903 125.355 45.9003 124.748 46.1172C124.279 46.1604 123.807 46.1604 123.339 46.1172C122.688 46.1172 122.233 46.6159 121.669 46.6809C120.952 46.717 120.242 46.5272 119.64 46.1382C119.036 45.7491 118.571 45.1806 118.309 44.5127C118.215 44.0627 118.157 43.606 118.135 43.1468C117.783 41.5615 116.866 40.1586 115.555 39.2007C114.819 38.4548 113.979 37.8193 113.062 37.3144C111.587 36.5555 109.961 36.1002 108.421 35.2546C107.901 34.9121 107.288 34.738 106.666 34.756C105.841 34.9077 105.017 36.252 104.497 37.0976C100.464 42.4096 96.887 47.9385 92.9624 53.0771C90.1705 56.4755 87.6685 60.1018 85.4825 63.9182C84.978 64.9821 84.5576 66.0838 84.2244 67.2133C83.8126 68.3626 83.6173 69.6201 83.1839 70.8127C81.6662 75.1489 81.2111 80.4397 79.8232 84.9707C79.6717 85.448 79.6278 85.9902 79.4764 86.5101C78.8476 88.8304 78.2189 91.4758 77.4814 93.9258C76.9552 96.1347 76.6863 98.3975 76.6795 100.669C76.3945 102.985 76.6084 105.336 77.3082 107.563C77.7416 108.323 79.3027 108.604 79.8881 109.406C80.4736 110.209 80.5601 111.011 80.9725 111.748C81.3842 112.485 82.0563 113.309 81.9913 114.089C81.9419 114.355 81.8269 114.602 81.6563 114.811C81.4856 115.019 81.2655 115.181 81.0158 115.282C80.5385 115.521 79.8232 115.282 79.3682 115.629C78.9126 115.976 79.0424 116.67 78.5008 117.082Z" />
</svg>
