<svg width="128" height="105" viewBox="0 0 128 105" fill="none" xmlns="http://www.w3.org/2000/svg">
<path d="M97.6572 52.0009C97.6572 70.5317 82.6243 85.5576 64.095 85.5576C45.5606 85.5576 30.5418 70.5317 30.5418 52.0009C30.5418 33.4735 45.5606 18.4512 64.095 18.4512C82.6243 18.4512 97.6572 33.4735 97.6572 52.0009ZM64.0954 0C35.3699 0 12.0855 23.2828 12.0855 52.0009C12.0855 80.7244 35.3699 104.011 64.0954 104.011C92.8154 104.011 116.098 80.7244 116.098 52.0009C116.098 23.2828 92.815 0 64.0954 0Z" fill="currentColor"/>
<path d="M128 41.5029H0V62.54H128V41.5029Z" fill="currentColor"/>
</svg>
