<svg viewBox="0 0 128 43" fill="none" xmlns="http://www.w3.org/2000/svg">
<path d="M0 0V26.4427C0 36.4 6.944 42.9813 16 42.9813C20.4053 42.9813 24.3307 41.296 27.168 38.3413V42.2667H33.44V0H27.104V26.0693C27.104 32.7733 22.5707 37.3013 16.72 37.3013C10.8 37.3013 6.34133 32.8907 6.34133 26.0693V0.00533549H0V0ZM39.68 0V42.2667H45.7067V38.4C48.4853 41.2373 52.4107 42.9867 56.6933 42.9867C58.813 43.0064 60.9156 42.6056 62.8793 41.8074C64.8431 41.0093 66.6291 39.8296 68.1339 38.3366C69.6388 36.8437 70.8326 35.0671 71.6463 33.1098C72.4601 31.1524 72.8776 29.0531 72.8747 26.9333C72.8846 24.8085 72.4726 22.7029 71.6627 20.7386C70.8527 18.7742 69.6608 16.9902 68.1561 15.4899C66.6514 13.9897 64.8638 12.8031 62.897 11.9989C60.9303 11.1948 58.8234 10.7891 56.6987 10.8053C54.6629 10.8028 52.6472 11.2077 50.7704 11.9964C48.8935 12.785 47.1936 13.9414 45.7707 15.3973V0.00533549H39.6747L39.68 0ZM92.3147 10.8693C83.3173 10.8693 76.5013 18.176 76.5013 26.8693C76.5013 36.0427 83.616 42.9227 92.8533 42.9227C98.4693 42.9227 103.056 40.4533 106.133 36.3467L101.728 33.088C99.4347 36.1653 96.416 37.6053 92.8533 37.6053C87.664 37.6053 83.504 33.872 82.656 28.8587H107.707V26.8693C107.707 17.696 101.189 10.8693 92.3147 10.8693ZM125.888 11.232C122.507 11.232 120.032 12.8 118.523 15.2747V11.472H112.491V42.2667H118.581V24.7467C118.581 19.9787 121.483 16.9067 125.467 16.9067H128V11.2267H125.888V11.232ZM92.1867 16.1813C96.72 16.1813 100.528 19.3173 101.552 24.0213H82.7733C83.856 19.3173 87.6587 16.1813 92.1867 16.1813ZM56.2827 16.2453C62.0747 16.2453 66.8427 20.9547 66.8427 26.9333C66.854 29.7478 65.7487 32.4519 63.769 34.4525C61.7894 36.4532 59.0971 37.587 56.2827 37.6053C54.8824 37.6082 53.4954 37.3338 52.2018 36.7979C50.9081 36.2621 49.7333 35.4754 48.7451 34.4833C47.757 33.4912 46.975 32.3133 46.4444 31.0174C45.9137 29.7216 45.6449 28.3336 45.6533 26.9333C45.6435 25.5324 45.9111 24.1434 46.4407 22.8464C46.9703 21.5494 47.7515 20.3701 48.7391 19.3765C49.7268 18.3829 50.9014 17.5946 52.1952 17.0572C53.489 16.5198 54.8764 16.2439 56.2773 16.2453H56.2827Z" />
</svg>
