<!DOCTYPE svg PUBLIC "-//W3C//DTD SVG 1.1//EN" "http://www.w3.org/Graphics/SVG/1.1/DTD/svg11.dtd">
<svg width="100%" height="100%" viewBox="0 0 428 128" version="1.1" xmlns="http://www.w3.org/2000/svg">
    <path d="M92.423,75.184L73.079,103.204L0,1.263L36.709,1.263C39.005,1.262 41.125,2.523 42.222,4.54L92.423,75.184ZM86.319,75.225L38.146,7.436C38.03,7.273 37.925,7.104 37.829,6.928C37.607,6.519 37.176,6.263 36.71,6.263L9.736,6.263L73.002,94.514L86.319,75.225Z"/>
    <path d="M359.032,97.99C338.245,97.99 319.672,92.545 300.563,80.839L298.438,79.53C299.632,75.258 300.348,70.867 300.574,66.437C301.832,67.201 303.127,67.902 304.454,68.54C315.513,73.85 331.804,76.802 355.711,77.82L360.016,78.01C380.724,78.915 391.525,79.653 391.525,85.535C391.525,91.74 381.462,97.99 359.032,97.99ZM216.857,98.784C205.049,98.784 193.498,95.609 185.168,90.052C174.959,83.343 170.006,74.745 170.006,63.922C170.006,43.796 189.641,29.261 216.7,29.261C231.102,29.261 243.279,34.024 251.934,43.036C253.023,43.92 254.447,44.28 255.825,44.02L286.787,33.196C286.23,35.681 285.949,38.22 285.948,40.766C285.89,44.87 286.651,48.945 288.185,52.752L198.933,52.752L198.933,52.842L217.226,78.558C218.182,80.308 219.914,81.504 221.889,81.778L259.906,81.778C251.207,92.265 235.083,98.795 216.902,98.795L216.857,98.784ZM371.846,46.58C365.003,45.965 358.506,45.697 352.77,45.462C343.511,45.092 335.517,44.769 329.11,43.226C324.279,42.108 321.841,40.464 321.841,38.418C321.841,35.254 328.718,29.898 354.492,29.898C371.458,29.832 388.165,34.088 403.031,42.264L403.892,42.734C404.885,43.079 405.991,42.841 406.755,42.119L406.811,42.119L425.663,20.115L422.309,17.878C404.91,6.396 381.652,0.57 353.161,0.57C317.302,0.57 293.764,11.45 287.558,30.177L286.183,28.489C271.39,9.873 247.416,0.034 216.857,0.034C198.049,0.034 179.902,4.976 165.522,13.786L174.467,0.916L138.597,0.916C136.751,0.92 134.998,1.74 133.811,3.153L68.834,97.263L86.423,121.783C86.873,122.553 87.701,123.026 88.593,123.025C89.484,123.025 90.31,122.551 90.761,121.783L136.282,56.039C135.923,58.674 135.74,61.33 135.734,63.989C135.541,81.193 143.285,97.561 156.711,108.321C171.963,120.989 193.32,128 216.857,128C241.166,128 263.182,121.057 278.859,108.456C279.977,107.539 281.095,106.588 282.091,105.627C303.772,120.464 327.835,127.385 357.757,127.385C402.394,127.385 427.989,111.732 427.989,84.45C427.989,55.737 400.985,49.275 371.79,46.58"/>
</svg>
