<svg width="128" height="85" viewBox="0 0 128 85" fill="none" xmlns="http://www.w3.org/2000/svg">
<path d="M119.201 0C113.879 0 108.745 3.24379 105.418 8.15353C121.132 18.5657 101.878 70.5627 73.4774 70.5627C70.079 70.5627 67.1697 69.5612 65.2537 67.5031C80.6289 53.4386 91.7305 34.3121 91.7305 23.0269C91.7305 17.2602 88.963 13.5999 82.4579 13.5999C63.5978 13.5999 43.7127 45.0368 47.4028 67.7113C35.5126 72.0043 29.607 66.6381 29.607 55.8575C29.607 33.343 52.7643 9.99569 51.4159 2.9955C27.4308 10.5323 8.6495 -6.97617 0 21.5132C11.6614 15.1057 22.4241 25.3737 35.7255 17.8449C24.2927 31.2365 12.7653 50.1628 12.9151 66.1733C13.0176 76.6497 18.5921 84.2105 30.6635 84.2105C37.5155 84.2105 44.6272 81.8078 51.4712 77.8031C54.4044 81.5275 59.135 84.2105 66.3576 84.2105C95.807 84.2105 128 42.1692 128 12.1742C128 4.21292 124.846 0.0320371 119.201 0ZM62.5256 57.8038C62.7857 41.6006 74.045 24.5648 79.7615 24.5648C81.4568 24.5648 81.8115 25.678 81.8115 26.8634C81.8115 32.4059 73.7061 47.2313 62.5256 57.8038Z" />
</svg>
