<svg width="128" height="144" viewBox="0 0 128 144" fill="none" xmlns="http://www.w3.org/2000/svg">
<path d="M63.9954 0C58.5297 0 54.1827 3.0512 54.1827 6.76703L57.5029 44.3559C57.8693 46.6197 60.6435 48.3682 63.9972 48.3682C67.3575 48.364 70.1216 46.6168 70.4957 44.3559L73.8236 6.76703C73.8236 3.05095 69.4716 0 63.9954 0ZM9.90041 30.1503C7.06291 30.2172 3.83869 32.3655 1.78828 35.9207C-0.954028 40.6547 -0.4689 45.9445 2.73971 47.801L36.9479 63.7298C39.0848 64.5243 41.9861 63.0079 43.6669 60.1111C45.3561 57.1995 45.2262 53.9235 43.4487 52.4708L12.5513 30.8015C11.7488 30.3369 10.8464 30.128 9.90041 30.1503ZM118.092 30.1503C117.146 30.128 116.245 30.3362 115.445 30.8018L84.5459 52.471C82.7828 53.9202 82.6487 57.1837 84.3178 60.0901C86.0045 62.9871 88.9092 64.5246 91.0459 63.73L125.258 47.8012C128.48 45.9444 128.942 40.6549 126.218 35.921C124.158 32.366 120.929 30.2175 118.092 30.1503ZM38.2206 79.7401C37.7781 79.7339 37.3498 79.8046 36.9479 79.9558L2.73971 95.8663C-0.4689 97.7302 -0.954028 103.023 1.78828 107.762C4.52216 112.487 9.34166 114.732 12.551 112.879L43.4482 91.2253C45.2257 89.7554 45.3561 86.4836 43.6664 83.5745C42.3012 81.205 40.1382 79.7659 38.2206 79.7401ZM89.7734 79.7401C87.8579 79.7649 85.6855 81.2112 84.3166 83.5804C82.6355 86.4895 82.7783 89.7554 84.5469 91.225L115.446 112.879C118.649 114.732 123.473 112.486 126.219 107.761C128.942 103.022 128.48 97.7297 125.258 95.8663L91.0447 79.9556C90.6431 79.8044 90.2157 79.7352 89.7734 79.7401ZM63.9851 95.3189C60.6369 95.3229 57.8688 97.0602 57.5029 99.3193L54.1827 136.906C54.1827 140.629 58.5297 143.675 63.9954 143.675C69.4716 143.675 73.8236 140.629 73.8236 136.907L70.4957 99.3193C70.1216 97.0602 67.3454 95.3231 63.9851 95.3189Z" />
</svg>
