<svg viewBox="0 0 792 427" version="1.1" xmlns="http://www.w3.org/2000/svg" fill="currentColor">
    <g transform="matrix(0.1,0,0,-0.1,-103.382,714)">
        <path d="M1571,7120C1530,7110 1458,7083 1411,7059C1260,6982 1125,6825 1070,6662C1015,6494 1023,6305 1092,6150C1108,6114 1495,5428 1953,4625L2785,3165L2870,3079C2942,3006 2970,2985 3050,2946C3159,2893 3251,2870 3363,2870C3576,2870 3789,2975 3915,3142C3943,3179 4195,3612 4475,4104C4756,4597 4987,5000 4991,5000C4994,5000 5228,4594 5510,4098C5793,3601 6045,3169 6069,3137C6158,3019 6300,2929 6460,2889C6647,2842 6875,2887 7030,3002C7085,3043 7172,3136 7209,3194C7230,3228 7616,3901 8066,4690C8685,5775 8891,6145 8913,6209C8973,6383 8959,6572 8873,6750C8835,6829 8814,6858 8741,6930C8670,7002 8639,7025 8560,7064C8451,7117 8359,7140 8244,7140C8042,7140 7827,7037 7705,6883C7680,6851 7427,6417 7143,5918C6858,5419 6623,5011 6620,5010C6617,5010 6383,5416 6100,5912C5817,6408 5566,6840 5542,6872C5463,6977 5341,7062 5205,7107C5134,7131 5109,7134 4990,7134C4868,7134 4847,7132 4775,7106C4665,7068 4566,7004 4484,6918C4421,6851 4369,6764 3891,5927C3477,5202 3364,5012 3355,5022C3348,5029 3119,5429 2845,5910C2571,6391 2330,6810 2309,6841C2220,6974 2048,7088 1883,7124C1790,7145 1664,7143 1571,7120ZM1879,7009C1998,6980 2143,6882 2210,6785C2276,6689 3895,3840 3918,3780C3951,3692 3960,3533 3936,3440C3900,3296 3812,3168 3695,3089C3460,2928 3156,2955 2955,3153C2885,3224 2866,3256 2050,4685C1592,5488 1207,6168 1195,6195C1081,6454 1176,6774 1413,6929C1552,7020 1715,7047 1879,7009ZM5151,7004C5283,6965 5411,6870 5484,6757C5503,6728 5886,6059 6336,5270C6865,4343 7163,3811 7178,3767C7306,3388 7019,2985 6620,2986C6458,2986 6319,3044 6206,3156C6147,3216 6084,3323 5299,4698C4752,5655 4447,6199 4432,6243C4318,6582 4540,6956 4893,7020C4960,7032 5082,7024 5151,7004ZM8432,6996C8531,6961 8586,6926 8665,6846C8896,6613 8893,6244 8660,6009C8585,5934 8469,5869 8374,5850C8290,5832 8129,5842 8056,5868C7885,5930 7746,6070 7688,6238C7669,6294 7665,6325 7665,6430C7665,6581 7685,6651 7762,6766C7853,6902 8006,6998 8175,7024C8236,7033 8365,7019 8432,6996Z"/>
    </g>
</svg>
