<svg width="128" height="38" viewBox="0 0 128 38" fill="none" xmlns="http://www.w3.org/2000/svg">
<g clip-path="url(#clip0_33_882)">
<path d="M64.9689 0.294959L46.4929 18.771L64.9689 37.247L83.445 18.771L64.9689 0.294959Z" />
<path d="M36.9579 14.0032H23.2448V0.298706H13.7045V14.0032H0V23.5435H13.7045V37.248H23.2448V23.5435H36.9579V14.0032Z" />
<path d="M113.493 1.27142C109.435 1.26145 105.466 2.45717 102.089 4.70685C98.7117 6.95654 96.079 10.1588 94.5248 13.9072C92.9705 17.6557 92.5649 21.7813 93.3593 25.7607C94.1537 29.7401 96.1123 33.3937 98.9867 36.2581L128 7.24476C126.093 5.34456 123.831 3.83892 121.341 2.81396C118.852 1.78899 116.185 1.26482 113.493 1.27142Z" />
</g>
<defs>
<clipPath id="clip0_33_882">
<rect width="128" height="37.5467" fill="white"/>
</clipPath>
</defs>
</svg>
